<?xml version="1.0" encoding="UTF-8" standalone="no"?>
<!-- Created with Inkscape (http://www.inkscape.org/) -->

<svg
   xmlns:dc="http://purl.org/dc/elements/1.1/"
   xmlns:cc="http://creativecommons.org/ns#"
   xmlns:rdf="http://www.w3.org/1999/02/22-rdf-syntax-ns#"
   xmlns:svg="http://www.w3.org/2000/svg"
   xmlns="http://www.w3.org/2000/svg"
   xmlns:sodipodi="http://sodipodi.sourceforge.net/DTD/sodipodi-0.dtd"
   xmlns:inkscape="http://www.inkscape.org/namespaces/inkscape"
   width="657.57141"
   height="657.57141"
   id="svg3010"
   version="1.1"
   inkscape:version="0.48.4 r9939"
   sodipodi:docname="framasphere_icon.svg"
   inkscape:export-filename="/home/berengere/Documents/Loxodonta/SiteWeb/css/google_icon.png"
   inkscape:export-xdpi="6.9383264"
   inkscape:export-ydpi="6.9383264">
  <defs
     id="defs3012">
    <clipPath
       clipPathUnits="userSpaceOnUse"
       id="clipPath3796">
      <path
         d="m 576.60442,169.57839 c -17.46443,9.3793 -36.23135,15.72057 -55.93112,18.57196 20.10767,-14.59797 35.54765,-37.70102 42.81687,-65.23972 -18.81676,13.51045 -39.65796,23.32897 -61.83758,28.61219 -17.76223,-22.91782 -43.07064,-37.23514 -71.08139,-37.23514 -53.77573,0 -97.38058,52.79714 -97.38058,117.91619 0,9.24178 0.86447,18.2422 2.5262,26.87637 -80.93128,-4.92258 -152.68734,-51.86538 -200.7141,-123.21204 -8.38364,17.4199 -13.18598,37.67436 -13.18598,59.28716 0,40.90743 17.18747,77.00314 43.31863,98.15006 -15.96481,-0.61322 -30.97951,-5.92029 -44.10674,-14.75092 -0.009,0.49394 -0.009,0.98788 -0.009,1.48603 0,57.13318 33.56933,104.78883 78.11515,115.6261 -8.17055,2.69002 -16.77471,4.13817 -25.65594,4.13817 -6.2738,0 -12.37609,-0.74091 -18.32403,-2.12171 12.39335,46.85004 48.35806,80.945 90.97098,81.89219 -33.32969,31.63338 -75.31801,50.48459 -120.94163,50.48459 -7.8623,0 -15.61272,-0.55863 -23.23054,-1.65596 43.0937,33.46475 94.27961,52.98353 149.27325,52.98353 179.1184,0 277.06448,-179.68124 277.06448,-335.51315 0,-5.10781 -0.095,-10.19458 -0.28043,-15.25469 19.02998,-16.62426 35.53838,-37.39371 48.59354,-61.04121 z"
         style="fill:#800000;fill-opacity:1;fill-rule:nonzero;stroke:none"
         id="path3798"
         inkscape:connector-curvature="0"
         sodipodi:nodetypes="ccccssccsccscsccscsscc"
         clip-path="none" />
    </clipPath>
    <clipPath
       clipPathUnits="userSpaceOnUse"
       id="clipPath3813">
      <path
         d="m 582.11015,156.79888 c -21.64453,6.0984 -44.9033,10.22148 -69.3182,12.07545 24.92043,-9.49157 44.05596,-24.51311 53.06506,-42.41871 -23.32054,8.78446 -49.15006,15.16844 -76.63836,18.60358 -22.01362,-14.90111 -53.37957,-24.2102 -88.09468,-24.2102 -66.64691,0 -120.68856,34.32857 -120.68856,76.66882 0,6.00898 1.07138,11.86103 3.13085,17.47495 C 183.26413,211.79212 94.333305,181.27002 34.811366,134.8806 24.42111,146.20698 18.469334,159.37638 18.469334,173.42897 c 0,26.59791 21.301277,50.06725 53.686917,63.81693 -19.78598,-0.39871 -38.394438,-3.84936 -54.663663,-9.59102 -0.01149,0.32116 -0.01149,0.64232 -0.01149,0.96622 0,37.14785 41.60413,68.13344 96.811962,75.1798 -10.12616,1.74905 -20.789724,2.69063 -31.796671,2.69063 -7.775426,0 -15.338299,-0.48174 -22.709874,-1.37953 15.359692,30.46178 59.932535,52.63024 112.744825,53.2461 -41.30713,20.56795 -93.345324,32.82496 -149.888933,32.82496 -9.744128,0 -19.3496142,-0.36322 -28.7907564,-1.0767 53.4081514,21.7587 116.8453794,34.44976 185.0017094,34.44976 221.99027,0 343.37969,-116.8283 343.37969,-218.14983 0,-3.32109 -0.11777,-6.62849 -0.34756,-9.91856 23.58479,-10.80905 44.04447,-24.31329 60.22437,-39.68885 z"
         style="fill:#800000;fill-opacity:1;fill-rule:nonzero;stroke:none"
         id="path3815"
         inkscape:connector-curvature="0"
         sodipodi:nodetypes="ccccssccsccscsccscsscc"
         clip-path="none" />
    </clipPath>
    <clipPath
       clipPathUnits="userSpaceOnUse"
       id="clipPath3837">
      <path
         d="m 580.78708,165.99394 c -18.83875,8.355 -39.0825,14.00375 -60.3325,16.54375 21.69,-13.00375 38.345,-33.58375 46.18625,-58.115 -20.2975,12.035 -42.77875,20.78125 -66.70375,25.4875 -19.16,-20.415 -46.46,-33.16875 -76.675,-33.16875 -58.00749,0 -105.04374,47.03125 -105.04374,105.03875 0,8.2325 0.9325,16.25 2.725,23.94125 -87.3,-4.385 -164.70275,-46.20125 -216.50889,-109.75625 -9.043369,15.5175 -14.223619,33.56 -14.223619,52.8125 0,36.44 18.539999,68.59375 46.727509,87.43125 -17.22114,-0.54625 -33.41739,-5.27375 -47.577639,-13.14 -0.01,0.44 -0.01,0.88 -0.01,1.32375 0,50.89375 36.210999,93.345 84.262269,102.99875 -8.81351,2.39625 -18.09476,3.68625 -27.67488,3.68625 -6.7675,0 -13.35001,-0.66 -19.76601,-1.89 13.36863,41.73362 52.16351,72.10512 98.12976,72.94887 -35.9525,28.17875 -81.245,44.97125 -130.458889,44.97125 -8.481,0 -16.84133,-0.49762 -25.05862,-1.47512 46.484869,29.81012 101.698759,47.19729 161.020009,47.19729 193.21374,0 298.86749,-160.05854 298.86749,-298.87229 0,-4.55 -0.1025,-9.08125 -0.3025,-13.58875 20.5275,-14.80875 38.335,-33.31 52.4175,-54.375 z"
         style="fill:#800000;fill-opacity:1;fill-rule:nonzero;stroke:none"
         id="path3839"
         inkscape:connector-curvature="0"
         sodipodi:nodetypes="ccccssccsccscsccscsscc"
         clip-path="none" />
    </clipPath>
    <clipPath
       clipPathUnits="userSpaceOnUse"
       id="clipPath4467">
      <path
         id="path4469"
         style="fill:#100f0d;fill-opacity:1;fill-rule:evenodd;stroke:none"
         d="m 167.91475,214.64039 c 32.33707,0 52.47153,-20.57345 52.47153,-46.27027 -0.60157,-26.26018 -20.13446,-46.25824 -51.85513,-46.25824 -31.73537,0 -52.47152,19.99806 -52.47152,46.25824 0,25.69682 20.12713,46.27027 51.25354,46.27027 l 0.60158,0 0,0 z m 46.36681,304.28025 0,-267.73718 -92.7408,0 0,267.73718 92.7408,0 0,0"
         inkscape:connector-curvature="0" />
    </clipPath>
    <clipPath
       clipPathUnits="userSpaceOnUse"
       id="clipPath4461">
      <path
         id="path4463"
         style="fill:#100f0d;fill-opacity:1;fill-rule:evenodd;stroke:none"
         d="m 132.14339,214.44105 c 19.14695,0 31.06867,-21.44181 31.06867,-48.22324 -0.3562,-27.36856 -11.92172,-48.2107 -30.70369,-48.2107 -18.79069,0 -31.06867,20.84214 -31.06867,48.2107 0,26.78143 11.91738,48.22324 30.34749,48.22324 l 0.3562,0 0,0 z m 27.45402,317.12325 0,-279.03778 -54.91231,0 0,279.03778 54.91231,0 0,0"
         inkscape:connector-curvature="0" />
    </clipPath>
    <clipPath
       clipPathUnits="userSpaceOnUse"
       id="clipPath5184">
      <path
         id="path5186"
         style="fill:#100f0d;fill-opacity:1;fill-rule:nonzero;stroke:none"
         d="m 197.76269,530.91414 c -54.09555,0 -93.1635,-34.24888 -93.1635,-75.37911 0,-40.31444 48.45804,-73.8734 102.55358,-73.28793 12.62167,0.13138 24.38525,2.16492 35.06657,5.62108 29.36501,20.42121 50.43082,31.96021 56.37296,55.23117 1.11757,4.72153 1.72397,9.57443 1.72397,14.53491 0,41.13229 -26.50253,73.27988 -102.55358,73.27988 z m 14.21754,-241.24056 c -36.31469,-1.08389 -70.82289,-40.62031 -77.08568,-88.29745 -6.27101,-47.68371 18.07441,-84.18316 54.38417,-83.09926 36.29827,1.09621 70.8196,39.35125 77.08855,87.03332 6.25952,47.6833 -18.08878,85.45099 -54.38704,84.36339 z m 75.28944,70.61309 c -12.73416,-9.01647 -37.09559,-30.94652 -37.09559,-43.83957 0,-15.10601 4.31096,-22.54755 27.04778,-40.31403 23.31078,-18.214 39.80574,-42.8965 39.80574,-72.68193 0,-35.45127 -15.78919,-72.27835 -45.43011,-80.4897 l 44.68452,0 31.53815,-24.63404 c 0,0 -105.70018,0 -140.9322,0 -63.18879,0 -122.653703,47.86888 -122.653703,103.3197 0,56.65995 43.074233,102.39306 107.353903,102.39306 4.46657,0 8.81283,-0.0879 13.06262,-0.39414 -4.16973,7.98841 -7.15291,16.98394 -7.15291,26.32271 0,15.74567 8.47288,28.51514 19.1813,38.93493 -8.09105,0 -15.90456,0.23402 -24.42876,0.23402 -78.26442,0 -138.499183,49.84535 -138.499183,101.53045 0,50.9056 66.035673,82.74864 144.300093,82.74864 89.21835,0 138.50246,-50.62502 138.50246,-101.5321 0,-40.81779 -12.04769,-65.26421 -49.28411,-91.598"
         inkscape:connector-curvature="0" />
    </clipPath>
    <clipPath
       clipPathUnits="userSpaceOnUse"
       id="clipPath5188">
      <path
         id="path5190"
         style="fill:#100f0d;fill-opacity:1;fill-rule:nonzero;stroke:none"
         d="m 197.1622,300.54316 c -47.65517,-8.6933 -76.0378,-48.04933 -68.79136,-87.77307 7.10271,-38.93586 55.70407,-63.5599 103.25608,-54.30115 11.09584,2.15522 21.10063,6.00966 29.90136,11.06415 22.27108,24.44192 38.79591,38.97167 39.93066,62.40177 0.15266,4.73967 -0.16813,9.52407 -1.04208,14.31493 -7.2468,39.72573 -36.25791,66.51498 -103.25466,54.29337 z M 252.18951,69.836835 c -31.80026,-6.882693 -55.23443,-50.612689 -52.3517,-97.665914 2.87664,-47.060891 30.75418,-78.399831 62.55009,-71.517925 31.78363,6.891953 55.45512,49.386498 52.57695,96.4454734 -2.88669,47.0586486 -30.99021,79.6220016 -62.77534,72.7383656 z m 53.885,80.297625 c -9.62954,-10.75456 -27.22691,-35.84963 -24.95538,-48.3018 2.66142,-14.589442 7.77021,-21.083729 30.93024,-34.588801 23.74449,-13.845051 42.62427,-35.032727 47.87195,-63.7996175 6.24591,-34.2389825 -1.17519,-72.3440925 -25.8405,-85.0380225 l 39.36458,7.180922 32.12345,-18.723393 c 0,0 -93.11598,-16.986298 -124.15343,-22.648178 -55.66581,-10.15461 -116.48477,26.521182 -126.25425,80.075812 -9.98251,54.722412 19.9061,105.813781 76.53292,116.143695 3.9348,0.71779 7.7791,1.331351 11.57688,1.718536 -5.08072,7.045153 -9.2936,15.253667 -10.93893,24.273087 -2.77411,15.20724 2.44026,28.90166 10.03799,40.686 -7.12776,-1.30025 -14.05226,-2.32988 -21.56161,-3.69975 -68.9466,-12.5773 -130.791969,25.88366 -139.897997,75.80134 -8.968694,49.16484 43.594867,90.53109 112.541467,103.10839 78.59641,14.33762 130.93223,-26.63614 139.90118,-75.80241 7.1914,-39.42199 0.88509,-64.96853 -27.27856,-96.38581"
         inkscape:connector-curvature="0" />
    </clipPath>
  </defs>
  <sodipodi:namedview
     id="base"
     pagecolor="#ffffff"
     bordercolor="#666666"
     borderopacity="1.0"
     inkscape:pageopacity="0.0"
     inkscape:pageshadow="2"
     inkscape:zoom="1.5264703"
     inkscape:cx="263.46729"
     inkscape:cy="407.62506"
     inkscape:document-units="px"
     inkscape:current-layer="layer1"
     showgrid="false"
     fit-margin-left="1.5"
     fit-margin-top="1.5"
     fit-margin-right="1.5"
     fit-margin-bottom="1.5"
     inkscape:window-width="1301"
     inkscape:window-height="744"
     inkscape:window-x="65"
     inkscape:window-y="24"
     inkscape:window-maximized="1" />
  <metadata
     id="metadata3015">
    <rdf:RDF>
      <cc:Work
         rdf:about="">
        <dc:format>image/svg+xml</dc:format>
        <dc:type
           rdf:resource="http://purl.org/dc/dcmitype/StillImage" />
        <dc:title />
      </cc:Work>
    </rdf:RDF>
  </metadata>
  <g
     inkscape:label="Calque 1"
     inkscape:groupmode="layer"
     id="layer1"
     transform="translate(-66.928589,-190.71936)">
    <path
       sodipodi:type="arc"
       style="fill:#000000;stroke:none;stroke-width:6;stroke-miterlimit:4;stroke-opacity:1;stroke-dasharray:none;fill-opacity:1"
       id="path3018"
       sodipodi:cx="395.71429"
       sodipodi:cy="519.50507"
       sodipodi:rx="324.28571"
       sodipodi:ry="324.28571"
       d="m 720,519.50507 c 0,179.09805 -145.18766,324.2857 -324.28571,324.2857 -179.09805,0 -324.285701,-145.18765 -324.285701,-324.2857 0,-179.09805 145.187651,-324.28571 324.285701,-324.28571 C 574.81234,195.21936 720,340.40702 720,519.50507 z"
       clip-path="none"
       inkscape:export-xdpi="6.9383264"
       inkscape:export-ydpi="6.9383264"
       inkscape:export-filename="/home/berengere/Documents/Loxodonta/SiteWeb/css/google_icon.png" />
    <path
       style="fill:none;stroke:#000000;stroke-width:1px;stroke-linecap:butt;stroke-linejoin:miter;stroke-opacity:1"
       d="m 188.25378,504.39449 25.25072,-87.63488 204.97643,71.29615"
       id="path3100"
       inkscape:connector-curvature="0" />
    <path
       style="fill:#ffcc00;fill-opacity:1;fill-rule:nonzero;stroke:none"
       d="m 181.96103,512.15365 28.46988,-99.35162 189.81721,54.39415 -28.46987,99.35113 z"
       id="rect4466"
       inkscape:connector-curvature="0"
       sodipodi:nodetypes="ccccc" />
    <path
       style="fill:#37b9d9;fill-opacity:1;fill-rule:nonzero;stroke:none"
       d="m 391.18063,467.19533 28.46986,99.35111 189.81708,-54.39365 -28.46986,-99.35114 z"
       id="rect4468"
       inkscape:connector-curvature="0" />
    <path
       style="fill:#75b153;fill-opacity:1;stroke:none"
       d="M 275.84375 122.9375 L 275.84375 322.0625 L 164.09375 477.5 L 243.09375 534.65625 L 328.46875 421.65625 L 413.84375 534.65625 L 492.8125 477.5 L 381.0625 322.0625 L 381.0625 122.9375 L 328.78125 122.9375 L 328.125 122.9375 L 275.84375 122.9375 z "
       transform="translate(66.928589,190.71936)"
       id="path4464" />
  </g>
</svg>
