<?xml version="1.0" encoding="UTF-8" standalone="no"?>
<!-- Created with Inkscape (http://www.inkscape.org/) -->

<svg
   xmlns:dc="http://purl.org/dc/elements/1.1/"
   xmlns:cc="http://creativecommons.org/ns#"
   xmlns:rdf="http://www.w3.org/1999/02/22-rdf-syntax-ns#"
   xmlns:svg="http://www.w3.org/2000/svg"
   xmlns="http://www.w3.org/2000/svg"
   xmlns:sodipodi="http://sodipodi.sourceforge.net/DTD/sodipodi-0.dtd"
   xmlns:inkscape="http://www.inkscape.org/namespaces/inkscape"
   width="657.57141"
   height="657.57141"
   id="svg3010"
   version="1.1"
   inkscape:version="0.91 r13725"
   sodipodi:docname="platypus_icon.svg"
   inkscape:export-filename="/Users/mathieu/Documents/WebSite/css/platypus_icon.png"
   inkscape:export-xdpi="6.8433633"
   inkscape:export-ydpi="6.8433633">
  <defs
     id="defs3012">
    <clipPath
       clipPathUnits="userSpaceOnUse"
       id="clipPath3796">
      <path
         d="m 576.60442,169.57839 c -17.46443,9.3793 -36.23135,15.72057 -55.93112,18.57196 20.10767,-14.59797 35.54765,-37.70102 42.81687,-65.23972 -18.81676,13.51045 -39.65796,23.32897 -61.83758,28.61219 -17.76223,-22.91782 -43.07064,-37.23514 -71.08139,-37.23514 -53.77573,0 -97.38058,52.79714 -97.38058,117.91619 0,9.24178 0.86447,18.2422 2.5262,26.87637 -80.93128,-4.92258 -152.68734,-51.86538 -200.7141,-123.21204 -8.38364,17.4199 -13.18598,37.67436 -13.18598,59.28716 0,40.90743 17.18747,77.00314 43.31863,98.15006 -15.96481,-0.61322 -30.97951,-5.92029 -44.10674,-14.75092 -0.009,0.49394 -0.009,0.98788 -0.009,1.48603 0,57.13318 33.56933,104.78883 78.11515,115.6261 -8.17055,2.69002 -16.77471,4.13817 -25.65594,4.13817 -6.2738,0 -12.37609,-0.74091 -18.32403,-2.12171 12.39335,46.85004 48.35806,80.945 90.97098,81.89219 -33.32969,31.63338 -75.31801,50.48459 -120.94163,50.48459 -7.8623,0 -15.61272,-0.55863 -23.23054,-1.65596 43.0937,33.46475 94.27961,52.98353 149.27325,52.98353 179.1184,0 277.06448,-179.68124 277.06448,-335.51315 0,-5.10781 -0.095,-10.19458 -0.28043,-15.25469 19.02998,-16.62426 35.53838,-37.39371 48.59354,-61.04121 z"
         style="fill:#800000;fill-opacity:1;fill-rule:nonzero;stroke:none"
         id="path3798"
         inkscape:connector-curvature="0"
         sodipodi:nodetypes="ccccssccsccscsccscsscc"
         clip-path="none" />
    </clipPath>
    <clipPath
       clipPathUnits="userSpaceOnUse"
       id="clipPath3813">
      <path
         d="m 582.11015,156.79888 c -21.64453,6.0984 -44.9033,10.22148 -69.3182,12.07545 24.92043,-9.49157 44.05596,-24.51311 53.06506,-42.41871 -23.32054,8.78446 -49.15006,15.16844 -76.63836,18.60358 -22.01362,-14.90111 -53.37957,-24.2102 -88.09468,-24.2102 -66.64691,0 -120.68856,34.32857 -120.68856,76.66882 0,6.00898 1.07138,11.86103 3.13085,17.47495 C 183.26413,211.79212 94.333305,181.27002 34.811366,134.8806 24.42111,146.20698 18.469334,159.37638 18.469334,173.42897 c 0,26.59791 21.301277,50.06725 53.686917,63.81693 -19.78598,-0.39871 -38.394438,-3.84936 -54.663663,-9.59102 -0.01149,0.32116 -0.01149,0.64232 -0.01149,0.96622 0,37.14785 41.60413,68.13344 96.811962,75.1798 -10.12616,1.74905 -20.789724,2.69063 -31.796671,2.69063 -7.775426,0 -15.338299,-0.48174 -22.709874,-1.37953 15.359692,30.46178 59.932535,52.63024 112.744825,53.2461 -41.30713,20.56795 -93.345324,32.82496 -149.888933,32.82496 -9.744128,0 -19.3496142,-0.36322 -28.7907564,-1.0767 53.4081514,21.7587 116.8453794,34.44976 185.0017094,34.44976 221.99027,0 343.37969,-116.8283 343.37969,-218.14983 0,-3.32109 -0.11777,-6.62849 -0.34756,-9.91856 23.58479,-10.80905 44.04447,-24.31329 60.22437,-39.68885 z"
         style="fill:#800000;fill-opacity:1;fill-rule:nonzero;stroke:none"
         id="path3815"
         inkscape:connector-curvature="0"
         sodipodi:nodetypes="ccccssccsccscsccscsscc"
         clip-path="none" />
    </clipPath>
    <clipPath
       clipPathUnits="userSpaceOnUse"
       id="clipPath3837">
      <path
         d="m 580.78708,165.99394 c -18.83875,8.355 -39.0825,14.00375 -60.3325,16.54375 21.69,-13.00375 38.345,-33.58375 46.18625,-58.115 -20.2975,12.035 -42.77875,20.78125 -66.70375,25.4875 -19.16,-20.415 -46.46,-33.16875 -76.675,-33.16875 -58.00749,0 -105.04374,47.03125 -105.04374,105.03875 0,8.2325 0.9325,16.25 2.725,23.94125 -87.3,-4.385 -164.70275,-46.20125 -216.50889,-109.75625 -9.043369,15.5175 -14.223619,33.56 -14.223619,52.8125 0,36.44 18.539999,68.59375 46.727509,87.43125 -17.22114,-0.54625 -33.41739,-5.27375 -47.577639,-13.14 -0.01,0.44 -0.01,0.88 -0.01,1.32375 0,50.89375 36.210999,93.345 84.262269,102.99875 -8.81351,2.39625 -18.09476,3.68625 -27.67488,3.68625 -6.7675,0 -13.35001,-0.66 -19.76601,-1.89 13.36863,41.73362 52.16351,72.10512 98.12976,72.94887 -35.9525,28.17875 -81.245,44.97125 -130.458889,44.97125 -8.481,0 -16.84133,-0.49762 -25.05862,-1.47512 46.484869,29.81012 101.698759,47.19729 161.020009,47.19729 193.21374,0 298.86749,-160.05854 298.86749,-298.87229 0,-4.55 -0.1025,-9.08125 -0.3025,-13.58875 20.5275,-14.80875 38.335,-33.31 52.4175,-54.375 z"
         style="fill:#800000;fill-opacity:1;fill-rule:nonzero;stroke:none"
         id="path3839"
         inkscape:connector-curvature="0"
         sodipodi:nodetypes="ccccssccsccscsccscsscc"
         clip-path="none" />
    </clipPath>
  </defs>
  <sodipodi:namedview
     id="base"
     pagecolor="#ffffff"
     bordercolor="#666666"
     borderopacity="1.0"
     inkscape:pageopacity="0.0"
     inkscape:pageshadow="2"
     inkscape:zoom="0.5"
     inkscape:cx="625.28595"
     inkscape:cy="328.78571"
     inkscape:document-units="px"
     inkscape:current-layer="layer1"
     showgrid="false"
     fit-margin-left="1.5"
     fit-margin-top="1.5"
     fit-margin-right="1.5"
     fit-margin-bottom="1.5"
     inkscape:window-width="1440"
     inkscape:window-height="778"
     inkscape:window-x="0"
     inkscape:window-y="1"
     inkscape:window-maximized="1"
     inkscape:object-paths="false"
     inkscape:snap-smooth-nodes="true"
     inkscape:object-nodes="false"
     inkscape:snap-bbox="true"
     inkscape:snap-intersection-paths="false"
     inkscape:snap-others="false" />
  <metadata
     id="metadata3015">
    <rdf:RDF>
      <cc:Work
         rdf:about="">
        <dc:format>image/svg+xml</dc:format>
        <dc:type
           rdf:resource="http://purl.org/dc/dcmitype/StillImage" />
        <dc:title />
      </cc:Work>
    </rdf:RDF>
  </metadata>
  <g
     inkscape:label="Calque 1"
     inkscape:groupmode="layer"
     id="layer1"
     transform="translate(-66.928589,-190.71936)">
    <path
       sodipodi:type="arc"
       style="fill:#000000;stroke:none;stroke-width:6;stroke-miterlimit:4;stroke-opacity:1;stroke-dasharray:none;fill-opacity:1"
       id="path3018"
       sodipodi:cx="395.71429"
       sodipodi:cy="519.50507"
       sodipodi:rx="324.28571"
       sodipodi:ry="324.28571"
       d="M 720,519.50507 A 324.28571,324.28571 0 0 1 395.71429,843.79077 324.28571,324.28571 0 0 1 71.428589,519.50507 324.28571,324.28571 0 0 1 395.71429,195.21936 324.28571,324.28571 0 0 1 720,519.50507 Z"
       clip-path="none" />
    <g
       id="g4150"
       transform="matrix(0.99647373,0,0,1.1345819,2.4179388,-70.177663)">
      <path
         sodipodi:nodetypes="cssscsscssssssssssssssscsssccaassssczssssssssssssscsssssssssscc"
         style="fill:#37b9d9;fill-opacity:1"
         d="m 352.8053,757.91794 c -3.33679,-2.61518 -5.20531,-7.25612 -4.39916,-10.92642 1.05303,-4.79442 -1.367,-7.2692 -8.87491,-9.07564 -16.76656,-4.03414 -21.69377,-12.9964 -17.90707,-32.57178 1.08498,-5.60875 1.97277,-10.77136 1.9729,-11.47245 1.2e-4,-0.75491 -4.80807,-1.292 -11.79092,-1.31709 -11.60281,-0.0417 -12.07617,-0.16691 -29.63718,-7.83895 -21.04105,-9.19242 -25.66612,-10.5855 -35.17583,-10.59497 -8.38634,-0.009 -8.67157,0.24605 -16.42768,14.65213 -15.9148,29.55994 -30.9303,42.38846 -39.53877,33.78001 -2.17027,-2.17027 -2.54942,-4.24905 -2.54942,-13.97753 0,-10.963 -0.16088,-11.61133 -3.95303,-15.93037 -2.17418,-2.47623 -7.60127,-6.2434 -12.0602,-8.37145 -4.45893,-2.12806 -8.41815,-4.37239 -8.79827,-4.98743 -1.51644,-2.45364 1.17955,-5.1655 9.46223,-9.51791 6.76371,-3.55424 12.09401,-5.13439 24.13911,-7.156 14.73004,-2.47223 21.80336,-4.29136 21.80336,-5.6074 0,-1.46908 -8.92723,-15.64249 -11.07919,-17.58999 -1.31409,-1.18923 -7.62782,-3.87413 -14.03049,-5.96642 -25.3501,-8.28403 -43.95364,-21.48517 -58.5392,-38.80666 -31.65994,-37.59867 -40.668001,-81.72526 11.24409,-62.2055 16.85807,6.3389 48.56288,22.47347 76.51206,48.47714 6.81609,6.34164 14.68535,12.69978 17.48722,14.12918 4.65587,2.37525 18.79389,6.348 22.75239,6.39337 0.90412,0.01 5.4931,-3.58913 10.19774,-7.99888 10.75881,-10.08442 17.7352,-14.87415 31.10487,-21.35537 30.64945,-14.85798 63.47678,-19.69826 145.4593,-21.44747 0,0 39.11948,3.14967 48.94762,-1.04437 13.48885,-10.33308 24.63342,-25.50235 44.00373,-33.33433 7.51736,-2.90183 15.88165,-3.55211 23.93764,-3.37213 8.76705,0.19587 17.09715,5.1476 25.86062,4.82955 13.92774,-0.50548 11.93413,6.20959 40.43562,-10.63477 18.21622,-10.76578 26.23768,-13.97217 37.26761,-14.89688 11.14096,-0.93403 13.71013,0.95593 13.71013,10.0855 0,14.76073 -13.09427,29.42042 -46.47904,52.03566 l -21.62207,14.64705 -7.05907,14.06052 c -1.94124,3.86665 -9.15449,16.91125 -11.71556,20.39548 -4.96641,6.75661 -18.34348,19.99866 -24.66201,24.41312 -6.71238,4.68961 -20.11661,11.00681 -29.31849,13.81731 -5.57958,1.70415 -8.92303,3.40368 -8.92303,4.53569 0,3.64138 9.34322,6.61459 23.30273,7.41539 15.87919,0.91093 16.8987,1.68978 14.31081,10.93275 -1.22626,4.37977 -3.75395,8.16345 -9.25912,13.85986 -7.1247,7.37222 -7.89859,7.82284 -13.08984,7.62194 -11.528,-0.44615 -23.47928,-8.55815 -30.22909,-20.51817 -3.20944,-5.68682 -4.34028,-6.74257 -6.56614,-6.13012 -1.47893,0.40693 -4.85276,1.10172 -7.49741,1.54399 -6.33814,1.05991 -7.17277,2.80179 -3.04412,6.35309 6.39302,5.49904 3.81732,8.61141 -5.61917,6.78999 -3.10697,-0.59971 -6.00036,-1.11536 -6.42979,-1.14588 -0.42941,-0.0306 -2.94618,1.66535 -5.59282,3.76864 -5.96609,4.74124 -10.00852,4.84738 -14.15645,0.37169 -2.68907,-2.90155 -3.54385,-3.2016 -5.35669,-1.88038 -4.51918,3.29366 -17.75128,9.13551 -24.8305,10.96246 -14.07213,3.63162 -37.37868,5.01509 -57.2577,3.39875 -10.02215,-0.8149 -20.51606,-2.00423 -23.31982,-2.64295 -2.83428,-0.64568 -5.58316,-0.67591 -6.19098,-0.0681 -0.60782,0.60781 0.0852,4.24267 1.56068,8.18637 3.56328,9.52372 7.5855,29.72707 8.54651,42.92848 0.98395,13.51673 -1.01298,20.80417 -5.8294,21.27335 -1.75275,0.17074 -4.09695,-0.40288 -5.20934,-1.27472 z"
         id="path4207"
         inkscape:connector-curvature="0" />
      <path
         sodipodi:nodetypes="csccscscc"
         inkscape:connector-curvature="0"
         id="path4216"
         d="m 592.92886,517.71281 c 4.78246,-1.52466 13.3274,1.73318 18.00633,-0.41067 22.36749,-10.24863 37.83774,-22.77675 59.6969,-25.12098 19.0325,-3.21283 16.92175,11.24624 10.47642,24.41703 -4.82637,9.28353 -15.08788,16.98448 -20.95237,22.19678 -13.89778,12.3522 -26.87961,20.11697 -43.91503,30.1544 -0.37402,4.19257 -4.24402,12.27738 -7.05907,14.06052 -8.46312,5.36079 -37.47128,-14.16886 -17.83919,-45.14535 -8.89312,-5.37926 -0.8584,-21.06581 1.58601,-20.15173 z"
         style="fill:#75b153;fill-opacity:1;fill-rule:evenodd;stroke:none;stroke-width:1px;stroke-linecap:butt;stroke-linejoin:miter;stroke-opacity:1" />
      <path
         id="path4226"
         d="m 534.56295,646.17149 c 0,3.64138 9.34322,6.61459 23.30273,7.41539 15.87919,0.91093 16.8987,1.68978 14.31081,10.93275 -1.22626,4.37977 -3.75395,8.16345 -9.25912,13.85986 -7.1247,7.37222 -7.89491,7.66873 -13.08984,7.62194 -8.86979,-0.0799 -14.2718,-3.03685 -21.6595,-9.33943 -2.79858,-2.38752 -6.49397,-6.50073 -8.56959,-11.17874 -0.45612,-1.028 -3.64229,-4.72874 -5.51235,-6.24721 -1.25674,-7.03017 4.63088,-7.38099 11.24041,-9.52181 2.19688,-0.71157 6.83634,-2.78322 9.23645,-3.54275 z"
         style="fill:#75b153;fill-opacity:1"
         inkscape:connector-curvature="0" />
      <path
         id="path4224"
         d="m 500.23813,661.86031 c 2.4707,1.00228 0.93567,4.29085 2.25264,5.38991 6.47432,5.40308 3.81732,8.61141 -5.61917,6.78999 -3.10697,-0.59971 -6.00036,-1.11536 -6.42979,-1.14588 -0.42941,-0.0306 -2.94618,1.66535 -5.59282,3.76864 -5.96609,4.74124 -10.00852,4.84738 -14.15645,0.37169 l -3.11921,-2.60154 c 7.01692,-2.2264 27.10571,-14.11927 32.6648,-12.57281 z"
         style="fill:#75b153;fill-opacity:1"
         inkscape:connector-curvature="0" />
      <path
         id="path4222"
         d="m 353.73685,686.80444 c -0.60782,0.60781 0.0852,4.24267 1.56068,8.18637 3.56328,9.52372 7.5855,29.72707 8.54651,42.92848 0.98395,13.51673 -1.01298,20.80417 -5.8294,21.27335 -1.75275,0.17074 -4.09695,-0.40288 -5.20934,-1.27472 l 0,2e-5 c -3.33679,-2.61518 -5.20531,-7.25612 -4.39916,-10.92642 1.05303,-4.79442 -1.367,-7.2692 -8.87491,-9.07564 -16.76656,-4.03414 -21.69377,-12.9964 -17.90707,-32.57178 1.08498,-5.60875 1.97277,-10.77136 1.9729,-11.47245 z"
         style="fill:#75b153;fill-opacity:1"
         inkscape:connector-curvature="0" />
      <path
         id="path4218"
         d="m 246.99313,674.12064 c -8.38634,-0.009 -8.67157,0.24605 -16.42768,14.65213 -15.9148,29.55994 -30.9303,42.38846 -39.53877,33.78001 -2.17027,-2.17027 -2.54942,-4.24905 -2.54942,-13.97753 0,-10.963 -0.16088,-11.61133 -3.95303,-15.93037 -2.17418,-2.47623 -7.60127,-6.2434 -12.0602,-8.37145 -4.45893,-2.12806 -8.41815,-4.37239 -8.79827,-4.98743 -1.51644,-2.45364 1.17955,-5.1655 9.46223,-9.51791 6.76371,-3.55424 12.09401,-5.13439 24.13911,-7.156 14.73004,-2.47223 21.80336,-4.29136 21.80336,-5.6074 15.04183,-2.8961 18.6618,11.3406 27.92267,17.11595 z"
         style="fill:#75b153;fill-opacity:1"
         inkscape:connector-curvature="0" />
    </g>
    <circle
       style="opacity:1;fill:#ffcc00;fill-opacity:1;stroke:none;stroke-opacity:1"
       id="path4228"
       cx="540.42078"
       cy="427.62845"
       r="25" />
    <circle
       r="15"
       cy="290.21664"
       cx="312.07822"
       id="circle4239"
       style="opacity:1;fill:#ffcc00;fill-opacity:1;stroke:none;stroke-opacity:1" />
    <circle
       r="20"
       cy="389.03897"
       cx="401.3812"
       id="circle4254"
       style="opacity:1;fill:#ffcc00;fill-opacity:1;stroke:none;stroke-opacity:1" />
  </g>
</svg>
