<?xml version="1.0" encoding="UTF-8" standalone="no"?>
<!-- Created with Inkscape (http://www.inkscape.org/) -->

<svg
   xmlns:dc="http://purl.org/dc/elements/1.1/"
   xmlns:cc="http://creativecommons.org/ns#"
   xmlns:rdf="http://www.w3.org/1999/02/22-rdf-syntax-ns#"
   xmlns:svg="http://www.w3.org/2000/svg"
   xmlns="http://www.w3.org/2000/svg"
   xmlns:sodipodi="http://sodipodi.sourceforge.net/DTD/sodipodi-0.dtd"
   xmlns:inkscape="http://www.inkscape.org/namespaces/inkscape"
   width="651.57141"
   height="651.57141"
   id="svg3010"
   version="1.1"
   inkscape:version="0.91 r13725"
   sodipodi:docname="Linkedin_Icon.svg"
   inkscape:export-filename="/home/berengere/Documents/Loxodonta/SiteWeb/css/twitter_icon.png"
   inkscape:export-xdpi="6.9383264"
   inkscape:export-ydpi="6.9383264">
  <defs
     id="defs3012">
    <clipPath
       clipPathUnits="userSpaceOnUse"
       id="clipPath3796">
      <path
         d="m 576.60442,169.57839 c -17.46443,9.3793 -36.23135,15.72057 -55.93112,18.57196 20.10767,-14.59797 35.54765,-37.70102 42.81687,-65.23972 -18.81676,13.51045 -39.65796,23.32897 -61.83758,28.61219 -17.76223,-22.91782 -43.07064,-37.23514 -71.08139,-37.23514 -53.77573,0 -97.38058,52.79714 -97.38058,117.91619 0,9.24178 0.86447,18.2422 2.5262,26.87637 -80.93128,-4.92258 -152.68734,-51.86538 -200.7141,-123.21204 -8.38364,17.4199 -13.18598,37.67436 -13.18598,59.28716 0,40.90743 17.18747,77.00314 43.31863,98.15006 -15.96481,-0.61322 -30.97951,-5.92029 -44.10674,-14.75092 -0.009,0.49394 -0.009,0.98788 -0.009,1.48603 0,57.13318 33.56933,104.78883 78.11515,115.6261 -8.17055,2.69002 -16.77471,4.13817 -25.65594,4.13817 -6.2738,0 -12.37609,-0.74091 -18.32403,-2.12171 12.39335,46.85004 48.35806,80.945 90.97098,81.89219 -33.32969,31.63338 -75.31801,50.48459 -120.94163,50.48459 -7.8623,0 -15.61272,-0.55863 -23.23054,-1.65596 43.0937,33.46475 94.27961,52.98353 149.27325,52.98353 179.1184,0 277.06448,-179.68124 277.06448,-335.51315 0,-5.10781 -0.095,-10.19458 -0.28043,-15.25469 19.02998,-16.62426 35.53838,-37.39371 48.59354,-61.04121 z"
         style="fill:#800000;fill-opacity:1;fill-rule:nonzero;stroke:none"
         id="path3798"
         inkscape:connector-curvature="0"
         sodipodi:nodetypes="ccccssccsccscsccscsscc"
         clip-path="none" />
    </clipPath>
    <clipPath
       clipPathUnits="userSpaceOnUse"
       id="clipPath3813">
      <path
         d="m 582.11015,156.79888 c -21.64453,6.0984 -44.9033,10.22148 -69.3182,12.07545 24.92043,-9.49157 44.05596,-24.51311 53.06506,-42.41871 -23.32054,8.78446 -49.15006,15.16844 -76.63836,18.60358 -22.01362,-14.90111 -53.37957,-24.2102 -88.09468,-24.2102 -66.64691,0 -120.68856,34.32857 -120.68856,76.66882 0,6.00898 1.07138,11.86103 3.13085,17.47495 C 183.26413,211.79212 94.333305,181.27002 34.811366,134.8806 24.42111,146.20698 18.469334,159.37638 18.469334,173.42897 c 0,26.59791 21.301277,50.06725 53.686917,63.81693 -19.78598,-0.39871 -38.394438,-3.84936 -54.663663,-9.59102 -0.01149,0.32116 -0.01149,0.64232 -0.01149,0.96622 0,37.14785 41.60413,68.13344 96.811962,75.1798 -10.12616,1.74905 -20.789724,2.69063 -31.796671,2.69063 -7.775426,0 -15.338299,-0.48174 -22.709874,-1.37953 15.359692,30.46178 59.932535,52.63024 112.744825,53.2461 -41.30713,20.56795 -93.345324,32.82496 -149.888933,32.82496 -9.744128,0 -19.3496142,-0.36322 -28.7907564,-1.0767 53.4081514,21.7587 116.8453794,34.44976 185.0017094,34.44976 221.99027,0 343.37969,-116.8283 343.37969,-218.14983 0,-3.32109 -0.11777,-6.62849 -0.34756,-9.91856 23.58479,-10.80905 44.04447,-24.31329 60.22437,-39.68885 z"
         style="fill:#800000;fill-opacity:1;fill-rule:nonzero;stroke:none"
         id="path3815"
         inkscape:connector-curvature="0"
         sodipodi:nodetypes="ccccssccsccscsccscsscc"
         clip-path="none" />
    </clipPath>
    <clipPath
       clipPathUnits="userSpaceOnUse"
       id="clipPath3837">
      <path
         d="m 580.78708,165.99394 c -18.83875,8.355 -39.0825,14.00375 -60.3325,16.54375 21.69,-13.00375 38.345,-33.58375 46.18625,-58.115 -20.2975,12.035 -42.77875,20.78125 -66.70375,25.4875 -19.16,-20.415 -46.46,-33.16875 -76.675,-33.16875 -58.00749,0 -105.04374,47.03125 -105.04374,105.03875 0,8.2325 0.9325,16.25 2.725,23.94125 -87.3,-4.385 -164.70275,-46.20125 -216.50889,-109.75625 -9.043369,15.5175 -14.223619,33.56 -14.223619,52.8125 0,36.44 18.539999,68.59375 46.727509,87.43125 -17.22114,-0.54625 -33.41739,-5.27375 -47.577639,-13.14 -0.01,0.44 -0.01,0.88 -0.01,1.32375 0,50.89375 36.210999,93.345 84.262269,102.99875 -8.81351,2.39625 -18.09476,3.68625 -27.67488,3.68625 -6.7675,0 -13.35001,-0.66 -19.76601,-1.89 13.36863,41.73362 52.16351,72.10512 98.12976,72.94887 -35.9525,28.17875 -81.245,44.97125 -130.458889,44.97125 -8.481,0 -16.84133,-0.49762 -25.05862,-1.47512 46.484869,29.81012 101.698759,47.19729 161.020009,47.19729 193.21374,0 298.86749,-160.05854 298.86749,-298.87229 0,-4.55 -0.1025,-9.08125 -0.3025,-13.58875 20.5275,-14.80875 38.335,-33.31 52.4175,-54.375 z"
         style="fill:#800000;fill-opacity:1;fill-rule:nonzero;stroke:none"
         id="path3839"
         inkscape:connector-curvature="0"
         sodipodi:nodetypes="ccccssccsccscsccscsscc"
         clip-path="none" />
    </clipPath>
    <clipPath
       clipPathUnits="userSpaceOnUse"
       id="clipPath4467">
      <path
         id="path4469"
         style="fill:#100f0d;fill-opacity:1;fill-rule:evenodd;stroke:none"
         d="m 167.91475,214.64039 c 32.33707,0 52.47153,-20.57345 52.47153,-46.27027 -0.60157,-26.26018 -20.13446,-46.25824 -51.85513,-46.25824 -31.73537,0 -52.47152,19.99806 -52.47152,46.25824 0,25.69682 20.12713,46.27027 51.25354,46.27027 l 0.60158,0 0,0 z m 46.36681,304.28025 0,-267.73718 -92.7408,0 0,267.73718 92.7408,0 0,0"
         inkscape:connector-curvature="0" />
    </clipPath>
    <clipPath
       clipPathUnits="userSpaceOnUse"
       id="clipPath4461">
      <path
         id="path4463"
         style="fill:#100f0d;fill-opacity:1;fill-rule:evenodd;stroke:none"
         d="m 132.14339,214.44105 c 19.14695,0 31.06867,-21.44181 31.06867,-48.22324 -0.3562,-27.36856 -11.92172,-48.2107 -30.70369,-48.2107 -18.79069,0 -31.06867,20.84214 -31.06867,48.2107 0,26.78143 11.91738,48.22324 30.34749,48.22324 l 0.3562,0 0,0 z m 27.45402,317.12325 0,-279.03778 -54.91231,0 0,279.03778 54.91231,0 0,0"
         inkscape:connector-curvature="0" />
    </clipPath>
  </defs>
  <sodipodi:namedview
     id="base"
     pagecolor="#ffffff"
     bordercolor="#666666"
     borderopacity="1.0"
     inkscape:pageopacity="0.0"
     inkscape:pageshadow="2"
     inkscape:zoom="1.6883901"
     inkscape:cx="315.42081"
     inkscape:cy="325.78571"
     inkscape:document-units="px"
     inkscape:current-layer="layer1"
     showgrid="false"
     fit-margin-left="1.5"
     fit-margin-top="1.5"
     fit-margin-right="1.5"
     fit-margin-bottom="1.5"
     inkscape:window-width="1364"
     inkscape:window-height="720"
     inkscape:window-x="0"
     inkscape:window-y="18"
     inkscape:window-maximized="1" />
  <metadata
     id="metadata3015">
    <rdf:RDF>
      <cc:Work
         rdf:about="">
        <dc:format>image/svg+xml</dc:format>
        <dc:type
           rdf:resource="http://purl.org/dc/dcmitype/StillImage" />
        <dc:title></dc:title>
      </cc:Work>
    </rdf:RDF>
  </metadata>
  <g
     inkscape:label="Calque 1"
     inkscape:groupmode="layer"
     id="layer1"
     transform="translate(-69.928589,-193.71936)">
    <circle
       style="fill:#000000;fill-opacity:1;stroke:none;stroke-width:20;stroke-miterlimit:4;stroke-dasharray:none;stroke-opacity:1"
       id="path3018"
       clip-path="none"
       cx="395.71429"
       cy="519.50507"
       r="324.28571" />
    <g
       transform="matrix(0.96522081,0,0,0.95754987,13.762629,22.053058)"
       id="g3005">
      <ellipse
         clip-path="url(#clipPath4467)"
         transform="matrix(0.99999998,0,0,1.0422078,63.323899,185.46052)"
         id="path4465"
         style="fill:#75b153;fill-opacity:1;stroke:none"
         cx="164.04402"
         cy="386.66641"
         rx="89.083511"
         ry="167.30318" />
      <path
         inkscape:connector-curvature="0"
         d="m 328.93315,726.28366 92.7454,0 0,-155.82545 c 0,-8.33914 0.60461,-16.67675 3.0554,-22.62861 6.70363,-16.66762 21.96884,-33.93225 47.58478,-33.93225 33.56986,0 46.99043,25.60225 46.99043,63.10706 l 0,149.27925 92.73589,0 0,-159.99654 c 0,-85.70752 -45.75306,-125.59011 -106.7759,-125.59011 -50.03557,0 -72.00175,27.97432 -84.20435,47.0201 l 0.61375,0 0,-40.47123 -92.7454,0 c 1.21798,26.17264 0,279.03778 0,279.03778 l 0,0"
         style="fill:#37b9d9;fill-opacity:1;fill-rule:evenodd;stroke:none"
         id="path3019" />
      <ellipse
         clip-path="url(#clipPath4461)"
         transform="matrix(1.6888889,0,0,1,8.0631509,194.71936)"
         id="path3047"
         style="fill:#ffcc00;fill-opacity:1;stroke:none"
         cx="140.14357"
         cy="160.69849"
         rx="48.887291"
         ry="72.787743" />
    </g>
  </g>
</svg>
