<?xml version="1.0" encoding="UTF-8" standalone="no"?>
<!-- Created with Inkscape (http://www.inkscape.org/) -->

<svg
   xmlns:dc="http://purl.org/dc/elements/1.1/"
   xmlns:cc="http://creativecommons.org/ns#"
   xmlns:rdf="http://www.w3.org/1999/02/22-rdf-syntax-ns#"
   xmlns:svg="http://www.w3.org/2000/svg"
   xmlns="http://www.w3.org/2000/svg"
   xmlns:sodipodi="http://sodipodi.sourceforge.net/DTD/sodipodi-0.dtd"
   xmlns:inkscape="http://www.inkscape.org/namespaces/inkscape"
   width="800mm"
   height="130mm"
   viewBox="0 0 2834.6457 460.6299"
   id="svg2"
   version="1.1"
   inkscape:version="0.91 r13725"
   sodipodi:docname="transition.svg">
  <defs
     id="defs4">
    <clipPath
       id="clipPath3796"
       clipPathUnits="userSpaceOnUse">
      <path
         clip-path="none"
         sodipodi:nodetypes="ccccssccsccscsccscsscc"
         inkscape:connector-curvature="0"
         id="path3798"
         style="fill:#800000;fill-opacity:1;fill-rule:nonzero;stroke:none"
         d="m 576.60442,169.57839 c -17.46443,9.3793 -36.23135,15.72057 -55.93112,18.57196 20.10767,-14.59797 35.54765,-37.70102 42.81687,-65.23972 -18.81676,13.51045 -39.65796,23.32897 -61.83758,28.61219 -17.76223,-22.91782 -43.07064,-37.23514 -71.08139,-37.23514 -53.77573,0 -97.38058,52.79714 -97.38058,117.91619 0,9.24178 0.86447,18.2422 2.5262,26.87637 -80.93128,-4.92258 -152.68734,-51.86538 -200.7141,-123.21204 -8.38364,17.4199 -13.18598,37.67436 -13.18598,59.28716 0,40.90743 17.18747,77.00314 43.31863,98.15006 -15.96481,-0.61322 -30.97951,-5.92029 -44.10674,-14.75092 -0.009,0.49394 -0.009,0.98788 -0.009,1.48603 0,57.13318 33.56933,104.78883 78.11515,115.6261 -8.17055,2.69002 -16.77471,4.13817 -25.65594,4.13817 -6.2738,0 -12.37609,-0.74091 -18.32403,-2.12171 12.39335,46.85004 48.35806,80.945 90.97098,81.89219 -33.32969,31.63338 -75.31801,50.48459 -120.94163,50.48459 -7.8623,0 -15.61272,-0.55863 -23.23054,-1.65596 43.0937,33.46475 94.27961,52.98353 149.27325,52.98353 179.1184,0 277.06448,-179.68124 277.06448,-335.51315 0,-5.10781 -0.095,-10.19458 -0.28043,-15.25469 19.02998,-16.62426 35.53838,-37.39371 48.59354,-61.04121 z" />
    </clipPath>
    <clipPath
       id="clipPath3813"
       clipPathUnits="userSpaceOnUse">
      <path
         clip-path="none"
         sodipodi:nodetypes="ccccssccsccscsccscsscc"
         inkscape:connector-curvature="0"
         id="path3815"
         style="fill:#800000;fill-opacity:1;fill-rule:nonzero;stroke:none"
         d="m 582.11015,156.79888 c -21.64453,6.0984 -44.9033,10.22148 -69.3182,12.07545 24.92043,-9.49157 44.05596,-24.51311 53.06506,-42.41871 -23.32054,8.78446 -49.15006,15.16844 -76.63836,18.60358 -22.01362,-14.90111 -53.37957,-24.2102 -88.09468,-24.2102 -66.64691,0 -120.68856,34.32857 -120.68856,76.66882 0,6.00898 1.07138,11.86103 3.13085,17.47495 C 183.26413,211.79212 94.333305,181.27002 34.811366,134.8806 24.42111,146.20698 18.469334,159.37638 18.469334,173.42897 c 0,26.59791 21.301277,50.06725 53.686917,63.81693 -19.78598,-0.39871 -38.394438,-3.84936 -54.663663,-9.59102 -0.01149,0.32116 -0.01149,0.64232 -0.01149,0.96622 0,37.14785 41.60413,68.13344 96.811962,75.1798 -10.12616,1.74905 -20.789724,2.69063 -31.796671,2.69063 -7.775426,0 -15.338299,-0.48174 -22.709874,-1.37953 15.359692,30.46178 59.932535,52.63024 112.744825,53.2461 -41.30713,20.56795 -93.345324,32.82496 -149.888933,32.82496 -9.744128,0 -19.3496142,-0.36322 -28.7907564,-1.0767 53.4081514,21.7587 116.8453794,34.44976 185.0017094,34.44976 221.99027,0 343.37969,-116.8283 343.37969,-218.14983 0,-3.32109 -0.11777,-6.62849 -0.34756,-9.91856 23.58479,-10.80905 44.04447,-24.31329 60.22437,-39.68885 z" />
    </clipPath>
    <clipPath
       id="clipPath3837"
       clipPathUnits="userSpaceOnUse">
      <path
         clip-path="none"
         sodipodi:nodetypes="ccccssccsccscsccscsscc"
         inkscape:connector-curvature="0"
         id="path3839"
         style="fill:#800000;fill-opacity:1;fill-rule:nonzero;stroke:none"
         d="m 580.78708,165.99394 c -18.83875,8.355 -39.0825,14.00375 -60.3325,16.54375 21.69,-13.00375 38.345,-33.58375 46.18625,-58.115 -20.2975,12.035 -42.77875,20.78125 -66.70375,25.4875 -19.16,-20.415 -46.46,-33.16875 -76.675,-33.16875 -58.00749,0 -105.04374,47.03125 -105.04374,105.03875 0,8.2325 0.9325,16.25 2.725,23.94125 -87.3,-4.385 -164.70275,-46.20125 -216.50889,-109.75625 -9.043369,15.5175 -14.223619,33.56 -14.223619,52.8125 0,36.44 18.539999,68.59375 46.727509,87.43125 -17.22114,-0.54625 -33.41739,-5.27375 -47.577639,-13.14 -0.01,0.44 -0.01,0.88 -0.01,1.32375 0,50.89375 36.210999,93.345 84.262269,102.99875 -8.81351,2.39625 -18.09476,3.68625 -27.67488,3.68625 -6.7675,0 -13.35001,-0.66 -19.76601,-1.89 13.36863,41.73362 52.16351,72.10512 98.12976,72.94887 -35.9525,28.17875 -81.245,44.97125 -130.458889,44.97125 -8.481,0 -16.84133,-0.49762 -25.05862,-1.47512 46.484869,29.81012 101.698759,47.19729 161.020009,47.19729 193.21374,0 298.86749,-160.05854 298.86749,-298.87229 0,-4.55 -0.1025,-9.08125 -0.3025,-13.58875 20.5275,-14.80875 38.335,-33.31 52.4175,-54.375 z" />
    </clipPath>
    <clipPath
       id="clipPath4467"
       clipPathUnits="userSpaceOnUse">
      <path
         inkscape:connector-curvature="0"
         d="m 167.91475,214.64039 c 32.33707,0 52.47153,-20.57345 52.47153,-46.27027 -0.60157,-26.26018 -20.13446,-46.25824 -51.85513,-46.25824 -31.73537,0 -52.47152,19.99806 -52.47152,46.25824 0,25.69682 20.12713,46.27027 51.25354,46.27027 l 0.60158,0 0,0 z m 46.36681,304.28025 0,-267.73718 -92.7408,0 0,267.73718 92.7408,0 0,0"
         style="fill:#100f0d;fill-opacity:1;fill-rule:evenodd;stroke:none"
         id="path4469" />
    </clipPath>
    <clipPath
       id="clipPath4461"
       clipPathUnits="userSpaceOnUse">
      <path
         inkscape:connector-curvature="0"
         d="m 132.14339,214.44105 c 19.14695,0 31.06867,-21.44181 31.06867,-48.22324 -0.3562,-27.36856 -11.92172,-48.2107 -30.70369,-48.2107 -18.79069,0 -31.06867,20.84214 -31.06867,48.2107 0,26.78143 11.91738,48.22324 30.34749,48.22324 l 0.3562,0 0,0 z m 27.45402,317.12325 0,-279.03778 -54.91231,0 0,279.03778 54.91231,0 0,0"
         style="fill:#100f0d;fill-opacity:1;fill-rule:evenodd;stroke:none"
         id="path4463" />
    </clipPath>
  </defs>
  <sodipodi:namedview
     id="base"
     pagecolor="#ffffff"
     bordercolor="#666666"
     borderopacity="1.0"
     inkscape:pageopacity="0.0"
     inkscape:pageshadow="2"
     inkscape:zoom="0.43568056"
     inkscape:cx="2108.7145"
     inkscape:cy="413.93573"
     inkscape:document-units="px"
     inkscape:current-layer="layer3"
     showgrid="false"
     inkscape:window-width="1364"
     inkscape:window-height="720"
     inkscape:window-x="0"
     inkscape:window-y="18"
     inkscape:window-maximized="1"
     fit-margin-top="0"
     fit-margin-left="0"
     fit-margin-right="0"
     fit-margin-bottom="0" />
  <metadata
     id="metadata7">
    <rdf:RDF>
      <cc:Work
         rdf:about="">
        <dc:format>image/svg+xml</dc:format>
        <dc:type
           rdf:resource="http://purl.org/dc/dcmitype/StillImage" />
        <dc:title></dc:title>
      </cc:Work>
    </rdf:RDF>
  </metadata>
  <g
     inkscape:groupmode="layer"
     id="layer3"
     inkscape:label="Calque 3"
     transform="translate(-16.007041,298.01436)">
    <path
       style="fill:#75b153;fill-opacity:1"
       d="m 1364.7716,123.24335 0,-21.01017 19.697,0 19.697,0 0,21.01017 0,21.01015 -19.697,0 -19.697,0 0,-21.01015 z"
       id="path4085"
       inkscape:connector-curvature="0" />
    <path
       style="fill:#37b9d9;fill-opacity:1"
       d="m 697.69916,124.55649 0,-11.81823 11.81822,0 11.81819,0 0,11.81823 0,11.81821 -11.81819,0 -11.81822,0 0,-11.81821 z"
       id="path4083"
       inkscape:connector-curvature="0" />
    <path
       style="fill:#ff0045;fill-opacity:1"
       d="m 1236.0844,114.05138 0,-11.8182 11.8182,0 11.8182,0 0,11.8182 0,11.81824 -11.8182,0 -11.8182,0 0,-11.81824 z"
       id="path4081"
       inkscape:connector-curvature="0" />
    <path
       style="fill:#ffcc00;fill-opacity:1"
       d="m 1480.3275,53.647207 0,-30.202116 28.8888,0 28.8891,0 0,30.202116 0,30.202111 -28.8891,0 -28.8888,0 0,-30.202111 z"
       id="path4077"
       inkscape:connector-curvature="0" />
    <path
       style="fill:#ff0045;fill-opacity:1"
       d="m 2557.0977,52.334067 0,-28.888976 28.8891,0 28.889,0 0,28.888976 0,28.888951 -28.889,0 -28.8891,0 0,-28.888951 z"
       id="path4075"
       inkscape:connector-curvature="0" />
    <path
       style="fill:#ffcc00;fill-opacity:1"
       d="m 815.88129,64.152264 0,-11.818197 11.81822,0 11.8182,0 0,11.818197 0,11.818233 -11.8182,0 -11.81822,0 0,-11.818233 z"
       id="path4073"
       inkscape:connector-curvature="0" />
    <path
       style="fill:#75b153;fill-opacity:1"
       d="m 970.83116,64.152264 0,-11.818197 13.13136,0 13.13135,0 0,11.818197 0,11.818233 -13.13135,0 -13.13136,0 0,-11.818233 z"
       id="path4071"
       inkscape:connector-curvature="0" />
    <path
       style="fill:#75b153;fill-opacity:1"
       d="m 2157.9049,44.455252 0,-28.888955 28.889,0 28.8889,0 0,28.888955 0,28.888967 -28.8889,0 -28.889,0 0,-28.888967 z"
       id="path4069"
       inkscape:connector-curvature="0" />
    <path
       style="fill:#37b9d9;fill-opacity:1"
       d="m 2031.844,48.394651 0,-22.323281 21.0101,0 21.0102,0 0,22.323281 0,22.323308 -21.0102,0 -21.0101,0 0,-22.323308 z"
       id="path4067"
       inkscape:connector-curvature="0" />
    <path
       style="fill:#37b9d9;fill-opacity:1"
       d="m 2769.8257,49.707808 0,-21.010179 21.01,0 21.0103,0 0,21.010179 0,21.010151 -21.0103,0 -21.01,0 0,-21.010151 z"
       id="path4065"
       inkscape:connector-curvature="0" />
    <path
       style="fill:#ff0045;fill-opacity:1"
       d="m 1632.651,41.828992 0,-21.010162 19.6971,0 19.697,0 0,21.010162 0,21.010152 -19.697,0 -19.6971,0 0,-21.010152 z"
       id="path4063"
       inkscape:connector-curvature="0" />
    <path
       style="fill:#ffcc00;fill-opacity:1"
       d="m 2299.7236,22.131971 0,-19.6970303 19.697,0 19.697,0 0,19.6970303 0,19.697021 -19.697,0 -19.697,0 0,-19.697021 z"
       id="path4061"
       inkscape:connector-curvature="0" />
    <path
       style="fill:#ff0045;fill-opacity:1"
       d="m 2757.2647,-189.93924 0.7427,-29.54554 28.889,0 28.8891,0 0.7426,29.54554 0.7423,29.54552 -30.374,0 -30.3742,0 0.7425,-29.54552 z"
       id="path4057"
       inkscape:connector-curvature="0" />
    <path
       style="fill:#ffcc00;fill-opacity:1"
       d="m 2651.6434,-256.25254 0,-11.81822 11.8183,0 11.8184,0 0,11.81822 0,11.81821 -11.8184,0 -11.8183,0 0,-11.81821 z"
       id="path4051"
       inkscape:connector-curvature="0" />
  </g>
</svg>
