<?xml version="1.0" encoding="UTF-8" standalone="no"?>
<!-- Created with Inkscape (http://www.inkscape.org/) -->

<svg
   xmlns:dc="http://purl.org/dc/elements/1.1/"
   xmlns:cc="http://creativecommons.org/ns#"
   xmlns:rdf="http://www.w3.org/1999/02/22-rdf-syntax-ns#"
   xmlns:svg="http://www.w3.org/2000/svg"
   xmlns="http://www.w3.org/2000/svg"
   xmlns:xlink="http://www.w3.org/1999/xlink"
   xmlns:sodipodi="http://sodipodi.sourceforge.net/DTD/sodipodi-0.dtd"
   xmlns:inkscape="http://www.inkscape.org/namespaces/inkscape"
   sodipodi:docname="fond_01.svg"
   inkscape:version="0.91 r13725"
   version="1.1"
   id="svg2"
   viewBox="0 0 2418.3071 1360.6299"
   height="384mm"
   width="682.5mm">
  <defs
     id="defs4">
    <linearGradient
       inkscape:collect="always"
       id="linearGradient4903">
      <stop
         style="stop-color:#212d45;stop-opacity:1;"
         offset="0"
         id="stop4905" />
      <stop
         style="stop-color:#392d39;stop-opacity:0.94509804"
         offset="1"
         id="stop4907" />
    </linearGradient>
    <linearGradient
       inkscape:collect="always"
       id="linearGradient4396">
      <stop
         style="stop-color:#191a3b;stop-opacity:1;"
         offset="0"
         id="stop4398" />
      <stop
         style="stop-color:#351f1f;stop-opacity:1"
         offset="1"
         id="stop4400" />
    </linearGradient>
    <radialGradient
       inkscape:collect="always"
       xlink:href="#linearGradient4396"
       id="radialGradient4416"
       cx="1207.4851"
       cy="701.51648"
       fx="1207.4851"
       fy="701.51648"
       r="1223.8721"
       gradientTransform="matrix(1,0,0,0.58494672,0,291.16671)"
       gradientUnits="userSpaceOnUse" />
    <radialGradient
       inkscape:collect="always"
       xlink:href="#linearGradient4396"
       id="radialGradient4424"
       cx="1207.4851"
       cy="701.51648"
       fx="1207.4851"
       fy="701.51648"
       r="1223.8721"
       gradientTransform="matrix(1,0,0,0.58494672,0,291.16671)"
       gradientUnits="userSpaceOnUse" />
    <linearGradient
       inkscape:collect="always"
       xlink:href="#linearGradient4903"
       id="linearGradient4911"
       x1="36.205528"
       y1="745.46777"
       x2="2427.7795"
       y2="373.5148"
       gradientUnits="userSpaceOnUse"
       gradientTransform="translate(-11.254872,-2.8137179)" />
    <mask
       maskUnits="userSpaceOnUse"
       id="mask6799">
      <path
         inkscape:connector-curvature="0"
         id="path6801"
         d="m 644.15276,898.30647 c 1.21954,-0.7843 0.93165,-1.01 -1.3042,-1.0225 -1.57807,-0.01 -2.86922,0.4515 -2.86922,1.0225 0,1.3129 2.13207,1.3129 4.17342,0 z m 316.13634,-16.5859 c 0,-0.3926 -2.11275,-2.224 -4.6951,-4.0696 -3.70766,-2.6498 -4.69509,-2.994 -4.69509,-1.6363 0,0.9457 -0.92784,1.9607 -2.06175,2.2559 -1.59467,0.415 -1.84081,0.9475 -1.08642,2.3503 0.74804,1.3911 2.32259,1.8138 6.75684,1.8138 3.17981,0 5.78152,-0.3213 5.78152,-0.7141 z m 16.68499,-14.5919 c -2.01602,-1.2683 -4.16474,-1.2808 -4.16474,-0.023 0,0.5427 0.82167,1.4481 1.82587,2.012 2.38377,1.3386 4.61363,-0.5566 2.33887,-1.9878 z M 892.94901,834.0663 c 0.35766,-1.1215 0.18221,-2.3271 -0.38996,-2.679 -48.51966,-26.5781 -134.567,48.60747 -162.77744,64.30717 -2.87613,0.6287 -3.28658,1.0822 -2.69286,2.9749 2.1415,6.827 2.07267,7.255 -1.04174,6.4772 l -2.91806,-0.7291 1.78882,2.7171 c 0.98385,1.4943 1.64238,3.4127 1.46339,4.2631 -0.25753,1.2236 -1.07518,0.9941 -3.91903,-1.0999 -5.55946,-4.0935 -7.25878,-2.8876 -3.18819,2.2624 4.13933,5.237 1.65551,6.0983 -3.81116,1.3217 -1.96071,-1.7133 -4.48761,-3.1151 -5.61534,-3.1151 -2.42416,0 -2.5303,0.8388 -0.4522,3.5731 0.84252,1.1085 1.53186,2.3935 1.53186,2.8554 0,1.4768 -3.42048,0.9002 -5.43774,-0.9166 -1.83182,-1.6498 -2.13184,-1.6498 -4.93823,0 -3.46187,2.0351 -5.44553,2.0726 -10.49112,0.198 l 3.3e-4,-10e-5 c -10.65897,-3.9602 -22.95583,-7.13 -28.22788,-7.2762 -4.34853,-0.1208 -6.72945,-0.7719 -8.82775,-2.4146 -1.58028,-1.237 -4.33582,-2.2518 -6.12344,-2.255 -8.4372,-0.015 -16.71315,-5.0567 -16.06491,-9.7866 1.656,-3.8911 4.27709,-1.6765 7.47267,-2.0636 2.93813,-0.3699 7.74644,-0.9437 10.68513,-1.2749 l 0,-10e-5 c 3.32745,-0.3752 5.60468,-0.1812 6.03654,0.5142 4.6395,2.4444 6.33545,1.4713 8.03156,0.4983 5.76836,0.5002 45.7537,-0.2699 47.00357,-7.6637 22.34829,-32.01397 -25.303,-5.7587 -44.22347,-3.8363 -26.31225,3.3722 -56.86794,-2.8987 -80.41044,-0.01 -38.54084,4.8309 -79.66044,22.938 -111.65692,22.8406 -10.19896,0.062 -33.6586,0.1614 -40.37444,-7.9063 -9.05088,-17.884 14.45531,-25.141 23.08126,-28.2096 24.91573,-19.60397 108.12997,-21.35417 120.27903,-46.80127 12.14906,-25.4473 71.26607,-58.8236 113.00649,-75.1206 72.24471,-23.5387 137.72989,-22.808 200.04247,-24.6008 l 0,0 c 22.66757,-5.1125 44.56135,3.5733 66.94337,2.419 28.7486,-2.8138 49.81772,-22.8 78.15572,-22.4197 5.7385,0.1245 11.266,-0.1329 12.2835,-0.572 2.7013,-1.1662 11.4417,5.8226 11.8315,9.4604 0.1619,1.5113 0.7368,3.1883 1.2776,3.7266 1.6036,1.5959 19.5207,-3.2035 30.537,-8.1796 7.6321,-4.3637 32.5504,-12.1846 31.3343,-19.2204 -1.6183,-2.5787 -1.5103,-2.9587 0.8401,-2.9587 1.1151,0 2.7584,1.0385 3.6517,2.3078 7.1207,20.804 -34.5232,34.1861 -46.1093,42.4517 -4.9935,3.7469 -5.4776,4.4742 -5.4776,8.2299 0,4.3496 -0.9554,5.6335 -7.1727,9.639 -2.3977,1.5446 -4.2285,4.0279 -5.7385,7.7828 -4.5922,11.4204 -16.1572,21.5897 -38.6993,34.029 -6.9057,3.8108 -15.4394,9.2052 -18.9638,11.9876 -6.9675,5.5006 -7.67723,5.8267 -7.67723,3.5281 3.74773,-5.9606 12.80103,-8.2834 15.57343,-14.0967 1.2468,-2.8842 3.0652,-5.4878 4.041,-5.7858 3.3478,-1.0222 4.906,-2.1564 6.0532,-4.4061 1.6905,-3.3152 2.2962,-3.6794 3.9069,-2.3491 2.2979,1.8979 11.5776,-2.9498 16.9651,-8.8626 14.9653,-12.7341 6.1896,-16.5107 -1.8031,-9.3419 -7.2415,6.495 -21.9524,8.3906 -26.4944,9.9787 -3.8933,8.5663 -40.11828,12.5417 -41.19593,24.4252 0,1.6487 -4.85427,5.739 -6.81085,5.739 -3.50013,2.0958 -2.35499,5.1524 1.134,5.1917 2.95645,0 3.16846,0.7105 0.94253,3.1583 -3.45493,3.7993 1.46762,8.3466 9.40997,8.6927 3.14965,8.9098 -28.315,27.9106 -36.40322,25.9414 -0.91289,-0.3488 -1.65976,-0.2264 -1.65976,0.2717 0,0.9689 7.67324,3.8548 13.36962,5.0284 2.22827,0.4592 3.86851,1.6097 4.61312,3.2361 0.63545,1.388 2.366,2.79 3.84572,3.1155 1.47973,0.3254 4.16983,1.24857 5.97809,2.05177 1.80826,0.8029 3.9635,1.4599 4.78933,1.4599 0.82584,0 4.39353,1.4383 7.92833,3.1962 4.76771,2.3709 6.42672,3.7506 6.42672,5.3442 0,3.5224 -6.59232,10.435 -13.4167,14.0685 -7.45764,3.9707 -14.51147,5.512 -24.66573,5.3895 -6.47389,-0.078 -8.87877,-0.2239 -13.82444,-0.839 -1.58264,-0.1969 -1.76327,-3.2774 -0.19222,-3.2774 0.61157,0 2.06033,0.5052 3.21937,1.1225 3.194,1.7012 3.33071,0.6071 0.54171,-4.3346 -2.69178,-4.7693 -5.06995,-6.5875 -4.17834,-3.1944 0.67192,2.5572 -1.34593,3.8697 -3.37404,2.1946 -2.2312,-1.8429 -3.07824,-0.3911 -1.62447,2.7843 1.60309,3.5015 0.84562,4.2096 -2.30514,2.155 -1.68072,-1.0959 -3.47103,-4.4047 -5.46,-10.0907 -2.69436,-7.7029 -3.33364,-8.6503 -7.14205,-10.5839 -18.69212,-6.2927 -32.66488,3.8078 -49.65039,3.0672 -53.05402,-23.62467 20.68184,-8.5893 27.60548,-29.70837 z M 1067.5017,733.5239 c -1.5477,-1.5402 -3.1803,-2.4345 -3.6281,-1.9873 -0.8916,0.8905 3.4038,4.7877 5.2771,4.7877 0.6407,0 -0.1014,-1.2602 -1.649,-2.8004 z m -29.4827,-8.6214 c 0.3547,-0.5711 1.5285,-1.0383 2.6084,-1.0383 1.08,0 2.273,-0.4984 2.6513,-1.1075 1.226,-1.9742 -0.318,-2.2163 -2.9962,-0.4699 -1.8563,1.2105 -3.6925,1.5021 -6.3428,1.0072 -2.0515,-0.383 -4.5553,-0.3471 -5.5639,0.08 -1.5868,0.6717 -1.4826,0.883 0.7747,1.5682 3.8398,1.1658 8.1319,1.1467 8.8685,-0.039 z m 33.909,-3.2238 2.6084,-2.1392 -3.3688,0.5744 c -5.0322,0.8581 -14.7815,-1.3763 -16.0152,-3.6706 -0.5692,-1.0583 -1.5044,-1.9243 -2.0782,-1.9243 -2.2046,0 1.2257,4.0614 5.5438,6.5636 5.5032,3.189 9.9079,3.3863 13.31,0.5961 z m -20.9108,-11.0536 c -0.024,-0.4283 -0.9434,-2.4141 -2.043,-4.4129 -2.1883,-3.9778 -2.9067,-1.8887 -0.8758,2.547 1.1202,2.4469 3.0196,3.6611 2.9188,1.8659 z m 60.0366,-5.4512 c 0.8161,-1.3141 -0.5651,-1.3141 -2.6084,0 -1.3488,0.8675 -1.3212,1.0087 0.1993,1.0225 0.9704,0.01 2.0544,-0.4514 2.4091,-1.0225 z m 5.7384,-4.19 c 0,-1.3751 -1.4128,-1.2571 -2.9213,0.2442 -1.9695,1.96 -1.4635,3.0931 0.8346,1.8691 1.1477,-0.6113 2.0867,-1.5622 2.0867,-2.1133 z m -52.7176,8.2978 c -1.0969,-1.7662 1.3949,-3.8399 5.543,-4.6127 3.471,-0.6468 17.511,-5.7405 25.7859,-9.355 4.7896,-2.0921 8.6686,-2.724 9.4085,-1.5324 -0.2776,2.3138 -22.4748,12.5794 -27.362,13.1858 -1.871,0.3021 -3.9363,1.1904 -4.5897,1.9737 -1.3914,1.6686 -7.8066,1.9173 -8.7857,0.3406 z m 46.9792,-21.7598 c 0.3547,-0.5711 1.3491,-1.0384 2.2098,-1.0384 0.8608,0 1.2749,0.4673 0.9203,1.0384 -0.3547,0.571 -1.3491,1.0383 -2.2099,1.0383 -0.8608,0 -1.2749,-0.4673 -0.9202,-1.0383 z"
         style="fill:#ffffff;fill-opacity:1"
         sodipodi:nodetypes="ccscssccsssscccscccsccccsssscsssccscccccccccccccczccscccscccsccscsscccccscsccccsccsscccssssscscsccscccccccccccsccsccccccsscccsccsccscsscssccccsscsssc" />
    </mask>
  </defs>
  <sodipodi:namedview
     width="1365mm"
     borderlayer="true"
     inkscape:window-maximized="1"
     inkscape:window-y="18"
     inkscape:window-x="0"
     inkscape:window-height="720"
     inkscape:window-width="1364"
     showgrid="false"
     inkscape:current-layer="layer4"
     inkscape:document-units="px"
     inkscape:cy="681.66116"
     inkscape:cx="1191.1505"
     inkscape:zoom="0.35540166"
     inkscape:pageshadow="2"
     inkscape:pageopacity="0.0"
     borderopacity="1.0"
     bordercolor="#666666"
     pagecolor="#ffffff"
     id="base"
     showguides="true"
     inkscape:guide-bbox="true">
    <sodipodi:guide
       position="2254,1363"
       orientation="0,1"
       id="guide6379" />
  </sodipodi:namedview>
  <metadata
     id="metadata7">
    <rdf:RDF>
      <cc:Work
         rdf:about="">
        <dc:format>image/svg+xml</dc:format>
        <dc:type
           rdf:resource="http://purl.org/dc/dcmitype/StillImage" />
        <dc:title></dc:title>
      </cc:Work>
    </rdf:RDF>
  </metadata>
  <g
     inkscape:label="modèle"
     inkscape:groupmode="layer"
     id="layer1"
     transform="translate(0,308.26768)">
    <rect
       style="opacity:1;fill:url(#linearGradient4911);fill-opacity:1;stroke:#370900;stroke-width:1.90648878;stroke-linecap:round;stroke-linejoin:round;stroke-miterlimit:4;stroke-dasharray:none;stroke-opacity:1"
       id="rect4143"
       width="2448.8418"
       height="1385.453"
       x="-33.270435"
       y="-322.02542" />
  </g>
  <g
     inkscape:groupmode="layer"
     id="layer4"
     inkscape:label="modèle 1">
    <path
       style="fill:none;fill-rule:evenodd;stroke:#000000;stroke-width:1px;stroke-linecap:butt;stroke-linejoin:miter;stroke-opacity:1"
       d="m 494.90507,1161.6766 c 2.7251,-7.5804 7.69264,-2.2798 9.20424,-1.416"
       id="path6183"
       inkscape:connector-curvature="0" />
    <path
       inkscape:connector-curvature="0"
       id="path6333"
       d="m 178.30228,1338.1611 c 0.94171,-0.6057 0.7194,-0.7799 -1.00709,-0.7896 -1.21856,-0.01 -2.21557,0.3487 -2.21557,0.7896 0,1.0138 1.64635,1.0138 3.22266,0 z m 244.1163,-12.8074 c 0,-0.3032 -1.63144,-1.7174 -3.6255,-3.1425 -2.863,-2.0462 -3.62548,-2.312 -3.62548,-1.2636 0,0.7303 -0.71647,1.5141 -1.59206,1.742 -1.23138,0.3205 -1.42145,0.7317 -0.83892,1.8149 0.57763,1.0742 1.79347,1.4006 5.21754,1.4006 2.45541,0 4.46442,-0.2481 4.46442,-0.5514 z m 12.88393,-11.2677 c -1.55675,-0.9794 -3.21596,-0.989 -3.21596,-0.018 0,0.4191 0.63448,1.1182 1.40991,1.5537 1.84072,1.0336 3.56258,-0.4298 1.80605,-1.535 z m -64.88306,-25.5304 c 0.27618,-0.866 0.1407,-1.7969 -0.30112,-2.0686 -37.46624,-20.5233 -103.91086,37.534 -125.69459,49.6571 -2.22091,0.4855 -2.53785,0.8357 -2.07939,2.2972 1.65364,5.2717 1.60049,5.6022 -0.80442,5.0016 l -2.25328,-0.563 1.3813,2.0981 c 0.75971,1.1539 1.26822,2.6353 1.13001,3.2919 -0.19886,0.9449 -0.83024,0.7677 -3.02622,-0.8493 -4.29295,-3.1609 -5.60514,-2.2298 -2.46188,1.747 3.19633,4.0439 1.27836,4.709 -2.94293,1.0206 -1.51403,-1.323 -3.46527,-2.4054 -4.33609,-2.4054 -1.87191,0 -1.95387,0.6477 -0.34918,2.7591 0.65058,0.8559 1.18288,1.8482 1.18288,2.2049 0,1.1403 -2.64125,0.6951 -4.19895,-0.7078 -1.41451,-1.274 -1.64618,-1.274 -3.81324,0 -2.67321,1.5714 -4.20497,1.6004 -8.1011,0.1529 l 2.5e-4,-10e-5 c -8.23071,-3.058 -17.72619,-5.5057 -21.79719,-5.6186 -3.35788,-0.093 -5.1964,-0.5961 -6.81668,-1.8645 -1.22027,-0.9552 -3.34806,-1.7388 -4.72843,-1.7413 -6.5151,-0.012 -12.90568,-3.9047 -12.40512,-7.5571 1.27875,-3.0046 3.30272,-1.2946 5.7703,-1.5935 2.26879,-0.2856 5.9817,-0.7287 8.25092,-0.9844 l 0,-10e-5 c 2.56941,-0.2897 4.32786,-0.1399 4.66133,0.397 3.58256,1.8876 4.89215,1.1362 6.20187,0.3848 4.45425,0.3863 35.3304,-0.2084 36.29553,-5.9178 17.25706,-24.7208 -19.53864,-4.4468 -34.14878,-2.9623 -20.31797,2.6039 -43.91267,-2.2384 -62.09187,-0.01 -29.76073,3.7303 -61.512738,17.7124 -86.219992,17.6372 -7.875508,0.048 -25.990728,0.1246 -31.17661,-6.1052 -6.9889718,-13.8098 11.162198,-19.4135 17.823046,-21.7831 19.239596,-15.1379 83.496526,-16.4894 92.877866,-36.1393 9.38134,-19.6501 55.03072,-45.4228 87.26212,-58.0071 55.78641,-18.1763 106.3532,-17.6121 154.47015,-18.9964 l 0,0 c 17.50359,-3.9478 34.40968,2.7592 51.69278,1.8679 22.19929,-2.1728 38.46855,-17.6059 60.35084,-17.3122 4.43115,0.096 8.69943,-0.1026 9.48512,-0.4417 2.0859,-0.9005 8.83517,4.4961 9.1361,7.3052 0.12504,1.167 0.56899,2.4619 0.98659,2.8776 1.23827,1.2324 15.07359,-2.4737 23.58025,-6.3162 5.89341,-3.3696 25.13499,-9.4087 24.19591,-14.8417 -1.24956,-1.9912 -1.16622,-2.2847 0.64871,-2.2847 0.8611,0 2.13005,0.8019 2.81983,1.7821 5.49853,16.0646 -26.65837,26.398 -35.60496,32.7806 -3.85597,2.8933 -4.22973,3.4549 -4.22973,6.355 0,3.3587 -0.73779,4.3502 -5.53872,7.4432 -1.85141,1.1927 -3.2652,3.1102 -4.43115,6.0097 -3.54602,8.8187 -12.47639,16.6713 -29.88312,26.2768 -5.33247,2.9426 -11.9221,7.1081 -14.64357,9.2566 -5.38022,4.2475 -5.92827,4.4993 -5.92827,2.7244 2.89398,-4.6027 9.88477,-6.3963 12.0256,-10.8853 0.96274,-2.2271 2.36692,-4.2376 3.12044,-4.4677 2.58509,-0.7893 3.7883,-1.6652 4.67415,-3.4023 1.30542,-2.56 1.7731,-2.8412 3.01685,-1.814 1.7744,1.4655 8.9401,-2.2778 13.10023,-6.8436 11.55606,-9.8331 4.77952,-12.7493 -1.39231,-7.2137 -5.59178,5.0154 -16.95133,6.4791 -20.45859,7.7055 -3.00642,6.6147 -30.97884,9.6845 -31.81099,18.8608 0,1.2731 -3.7484,4.4316 -5.25924,4.4316 -2.70276,1.6183 -1.8185,3.9786 0.87566,4.0089 2.28293,0 2.44664,0.5487 0.7278,2.4388 -2.66785,2.9338 1.13328,6.4451 7.26626,6.7124 2.43212,6.88 -21.86447,21.5522 -28.11009,20.0316 -0.70492,-0.2693 -1.28164,-0.1748 -1.28164,0.2098 0,0.7482 5.92517,2.9766 10.32384,3.8829 1.72064,0.3546 2.98722,1.243 3.56219,2.4988 0.49069,1.0718 1.827,2.1544 2.96962,2.4058 1.14263,0.2513 3.21989,0.9641 4.6162,1.5844 1.39631,0.62 3.06056,1.1273 3.69826,1.1273 0.6377,0 3.39262,1.1106 6.12215,2.468 3.68156,1.8308 4.96263,2.8962 4.96263,4.1268 0,2.7199 -5.09051,8.0577 -10.3602,10.8635 -5.75869,3.0661 -11.20557,4.2563 -19.04655,4.1617 -4.99905,-0.06 -6.85607,-0.1729 -10.67505,-0.6479 -1.2221,-0.152 -1.36158,-2.5308 -0.14843,-2.5308 0.47224,0 1.59096,0.3902 2.48595,0.8668 2.46637,1.3137 2.57193,0.4688 0.4183,-3.3471 -2.07855,-3.6828 -3.91494,-5.0868 -3.22645,-2.4667 0.51884,1.9747 -1.03931,2.9882 -2.60539,1.6947 -1.72291,-1.4231 -2.37698,-0.302 -1.2544,2.15 1.23789,2.7038 0.65298,3.2506 -1.78,1.664 -1.29783,-0.8462 -2.68028,-3.4012 -4.21614,-7.7919 -2.08055,-5.948 -2.57419,-6.6796 -5.51499,-8.1727 -14.43381,-4.8592 -25.22339,2.9403 -38.33938,2.3684 -40.96761,-18.2426 15.97025,-6.6325 21.31659,-22.9404 z m 134.78726,-77.6375 c -1.19509,-1.1893 -2.45579,-1.8799 -2.80152,-1.5345 -0.68855,0.6876 2.62834,3.697 4.07487,3.697 0.49473,0 -0.0783,-0.9731 -1.27335,-2.1625 z m -22.76614,-6.6573 c 0.27386,-0.441 1.18026,-0.8018 2.01416,-0.8018 0.83396,0 1.75519,-0.3848 2.04729,-0.8552 0.94669,-1.5244 -0.24557,-1.7114 -2.31361,-0.3628 -1.43338,0.9347 -2.85128,1.1599 -4.8978,0.7777 -1.58419,-0.2957 -3.51759,-0.268 -4.29638,0.062 -1.22532,0.5187 -1.14482,0.6819 0.59819,1.211 2.96505,0.9002 6.27935,0.8854 6.84815,-0.03 z m 26.1841,-2.4894 2.01415,-1.6518 -2.60132,0.4435 c -3.88583,0.6626 -11.41408,-1.0628 -12.36676,-2.8344 -0.4395,-0.8172 -1.16163,-1.4859 -1.60475,-1.4859 -1.70234,0 0.94649,3.1362 4.28084,5.0683 4.24953,2.4625 7.65079,2.6149 10.27784,0.4603 z m -16.14706,-8.5354 c -0.0187,-0.3307 -0.72845,-1.8642 -1.57756,-3.4076 -1.68977,-3.0716 -2.24452,-1.4584 -0.67631,1.9668 0.86503,1.8894 2.33172,2.827 2.25387,1.4408 z m 46.35947,-4.2094 c 0.63015,-1.0147 -0.43635,-1.0147 -2.01417,0 -1.04149,0.6699 -1.02022,0.7789 0.15386,0.7896 0.74933,0.01 1.58644,-0.3486 1.86031,-0.7896 z m 4.43115,-3.2354 c 0,-1.0619 -1.091,-0.9707 -2.25586,0.1885 -1.52077,1.5135 -1.13006,2.3885 0.64453,1.4433 0.88623,-0.472 1.61133,-1.2063 1.61133,-1.6318 z m -40.70783,6.4074 c -0.84705,-1.3638 1.07707,-2.9651 4.2802,-3.5618 2.68022,-0.4995 13.52175,-4.4328 19.91151,-7.2238 3.69845,-1.6155 6.69379,-2.1035 7.26516,-1.1833 -0.21439,1.7866 -17.3548,9.7136 -21.12858,10.1819 -1.44478,0.2332 -3.03961,0.9192 -3.54409,1.524 -1.07443,1.2885 -6.02816,1.4805 -6.7842,0.263 z m 36.27668,-16.8026 c 0.27386,-0.441 1.04175,-0.8018 1.7064,-0.8018 0.6647,0 0.98445,0.3608 0.71059,0.8018 -0.27386,0.4409 -1.04175,0.8018 -1.7064,0.8018 -0.6647,0 -0.98446,-0.3609 -0.71059,-0.8018 z"
       style="fill:#070606;fill-opacity:1"
       sodipodi:nodetypes="ccscssccsssscccscccsccccsssscsssccscccccccccccccczccscccscccsccscsscccccscsccccsccsscccssssscscsccscccccccccccsccsccccccsscccsccsccscsscssccccsscsssc" />
    <path
       inkscape:connector-curvature="0"
       id="path6364"
       d="m 2372.5826,215.91109 c 0.033,1.90079 -6.8287,4.7028 -13.4174,5.47898 -7.4598,0.87879 -8.4511,1.15194 -9.2806,2.55738 -0.5098,0.86398 -2.0302,1.42789 -5.8764,2.17951 -20.439,3.99419 -20.0799,3.96742 -34.2657,2.55508 -7.814,-0.77797 -9.401,-1.40109 -8.9097,-0.51338 3.9069,13.53676 -2.0012,11.36974 -6.7861,10.99959 -1.6929,-4.12483 -3.2409,-7.54432 -3.4402,-7.59884 -0.1993,-0.0545 -0.7257,0.5166 -1.1699,1.26923 -1.0661,1.80646 -1.4428,1.62712 -4.0193,-1.91375 -3.7342,-5.1319 -5.7303,-6.73717 -10.5601,-8.49217 -2.5603,-0.93031 -7.0391,-2.72159 -9.953,-3.98064 -3.6757,-1.58826 -6.2928,-2.23124 -8.5474,-2.09995 -1.7873,0.10407 -4.0909,-0.26447 -5.1191,-0.81898 l -1.8697,-1.00818 1.366,1.62414 c 2.1182,2.51879 0.5207,2.83386 -6.7875,1.33866 -5.7834,-2.92559 -33.1655,6.94993 -32.9458,7.38331 0.2292,0.40884 0.1171,1.66422 -0.2492,2.78973 -0.3663,1.12551 -0.385,2.54765 -0.042,3.16034 0.4542,0.81025 -0.016,2.07529 -1.7245,4.64032 -1.4461,2.17113 -2.1573,3.88572 -1.8504,4.46141 1.1437,2.14668 0.085,4.4407 -2.9832,6.46428 -2.4848,1.63875 -3.3885,1.89023 -5.718,1.59095 -2.9336,-0.37688 -4.432,-1.68207 -6.8175,-5.93806 -1.2517,-2.23318 -1.6969,-2.4848 -5.7435,-3.24579 -6.3937,-1.20238 -13.4569,-4.90359 -15.7865,-8.2722 -1.603,-2.31799 -1.969,-2.55455 -2.7294,-1.76463 -1.163,1.20799 -9.4342,1.98808 -16.1726,1.52538 -7.4224,-0.50964 -19.4527,-2.8512 -25.9127,-5.04347 -2.9553,-1.00293 -6.2748,-1.8817 -7.3768,-1.95284 -1.102,-0.0711 -4.5103,-1.10846 -7.5741,-2.30517 -3.4616,-1.35217 -6.9556,-2.16226 -9.2295,-2.13996 -4.5227,0.0443 -7.2592,-1.65481 -11.4526,-7.11119 -4.1831,-5.443 -5.1972,-7.50089 -5.9537,-12.08106 -2.0137,-20.63915 9.1401,-44.49478 17.5017,-55.54889 l 11.0003,-9.79681 c 1.1436,-0.044 1.9182,-0.64136 3.5007,-2.69995 2.9053,-3.77927 7.2223,-7.49253 12.1862,-10.48204 4.8494,-2.92054 5.936,-3.00382 8.89,-0.68146 2.3585,1.85435 2.0571,1.99022 10.411,-4.69417 8.9884,-7.19215 12.9458,-11.65881 13.5123,-15.25103 -4.4689,-13.107524 -10.9368,-27.800168 -12.4395,-40.737622 -0.5695,-5.704842 1.2743,-12.850068 5.1992,-20.150314 6.1748,-11.484386 10.8608,-16.302851 23.3127,-23.971422 8.4148,-5.182292 14.6546,-7.9205408 19.9873,-8.7711858 1.6631,-0.265255 1.7205,-0.214553 0.9474,0.836841 -0.4528,0.615578 -1.5438,1.580085 -2.4247,2.143371 -2.5726,1.6450938 -8.3138,8.3097528 -8.4586,9.8192058 -0.1639,1.707184 -1.9447,3.777672 -6.554,7.619753 -3.0468,2.539668 -8.9959,9.801061 -8.2069,10.017096 0.2518,0.06893 0.9565,-0.687272 6.5091,-6.983538 2.9961,-3.397498 4.6266,-4.389654 4.8522,-2.95234 0.094,0.599841 0.2774,1.28058 0.4079,1.512658 0.1301,0.232187 -1.4944,2.719294 -3.6102,5.526934 -2.1158,2.807642 -4.5586,6.746151 -5.4284,8.752258 -1.6632,3.835598 -2.3049,10.766852 -1.1824,12.769594 0.364,0.649481 0.5419,1.655887 0.3954,2.236453 -0.1466,0.580618 -0.042,1.117329 0.2341,1.192687 0.2753,0.07539 0.7017,-2.145436 0.9473,-4.935146 0.7778,-8.831194 3.2644,-15.059949 7.6657,-19.201878 2.5665,-2.415236 2.3484,-0.651433 -0.5392,4.359236 -3.5435,6.14869 -4.6013,11.616656 -3.5176,18.183275 0.4605,2.790877 1.0192,5.388633 1.2414,5.772763 0.8981,1.553176 1.2265,-0.0647 0.9611,-4.737796 -0.4191,-7.386164 2.8284,-18.522119 5.956,-20.423175 1.3787,-0.838022 1.3391,1.5618 -0.069,4.1685 -1.4837,2.746966 -3.2501,10.569973 -2.6345,11.66818 0.1624,0.289898 0.1744,1.433186 0.027,2.540641 -0.3735,2.79753 1.2136,10.485861 2.2217,10.761815 0.9144,0.250288 1.3898,-3.332024 0.7871,-5.929871 -0.2114,-0.909975 -0.2901,-2.221425 -0.1754,-2.914186 0.1148,-0.692754 0.1509,-2.258347 0.081,-3.47906 -0.1797,-3.111012 0.9985,-10.133069 1.9924,-11.877328 1.1312,-1.984772 3.1376,-3.168091 3.6926,-2.177821 0.247,0.440618 -0.1261,2.520142 -0.8288,4.62117 -0.7029,2.101034 -1.0069,3.894202 -0.6758,3.984879 0.3312,0.09067 1.7927,-1.498324 3.2479,-3.531102 1.4552,-2.032745 3.0946,-3.772285 3.6434,-3.865645 1.7087,-0.290683 2.0172,1.455952 0.602,3.408093 -1.7461,2.408307 -2.6776,7.844404 -2.3139,13.501385 0.3367,5.234364 0.6549,6.116418 1.3649,3.783217 0.5782,-1.899771 0.8652,-9.195709 0.3495,-8.882232 -0.7296,0.443345 0.1844,-2.757739 1.6095,-5.638482 1.6711,-3.378021 4.7588,-5.81218 5.5597,-4.383132 0.2604,0.464714 0.2971,0.966409 0.082,1.114961 -0.7459,0.513174 -2.4441,6.742101 -1.8801,6.896526 0.3112,0.08519 0.7769,-0.490845 1.035,-1.280056 0.2582,-0.789192 1.4258,-2.566796 2.5948,-3.950213 3.2309,-3.82346 4.5395,-3.259118 3.2279,1.392128 -0.854,3.028667 -0.8727,3.036421 3.2148,-1.338911 1.1761,-1.258933 2.4345,-2.207894 2.7964,-2.108818 0.362,0.09906 0.082,2.201077 -0.6219,4.671073 -0.7039,2.470032 -1.2048,4.624892 -1.1132,4.788625 0.092,0.163758 1.1922,-1.349905 2.4453,-3.363598 2.2352,-3.591898 3.7259,-5.040713 4.8655,-4.728709 0.3152,0.08625 0.4295,0.868435 0.2537,1.738445 -0.4149,2.054773 0.2843,2.200974 1.7128,0.35813 1.5861,-2.046091 3.8825,-2.148188 3.9524,-0.175736 0.073,2.035479 0.2456,2.134232 1.9394,1.104659 2.0516,-1.246998 2.6029,-0.990605 2.496,1.160812 -0.087,1.752702 -0.035,1.778132 1.8068,0.892033 1.5755,-0.757819 2.0678,-0.674224 2.909,0.493952 0.5567,0.773375 1.533,1.496041 2.1692,1.60594 0.6362,0.109912 1.4603,0.741521 1.8314,1.403588 0.3711,0.662047 1.339,1.224437 2.1509,1.249743 0.8118,0.02531 1.6777,0.405667 1.9241,0.845263 0.6598,1.177209 -0.8802,4.731497 -2.4932,5.753673 -1.01,0.640166 -2.0387,3.165278 -3.6982,9.076951 l -2.2988,8.190063 3.1126,0.640714 c 1.7119,0.352393 4.541,0.742166 6.287,0.866154 1.746,0.12398 5.7095,0.460342 8.8081,0.747416 9.448,0.875395 20.7304,-2.726894 37.2976,-11.908494 9.5387,-5.286398 18.7501,-8.993317 24.3199,-9.787028 4.581,-0.652747 14.3687,-0.24151 18.0162,0.757036 4.4233,1.210826 9.1172,4.019978 12.7557,7.633343 3.2382,3.216058 6.8975,10.315072 8.4569,16.406907 54.3851,39.691419 45.2059,74.588739 47.5437,100.759839 -24.5965,-24.1933 -10.6936,-18.21833 -16.0404,-27.32749 3.6452,2.60466 -10.1916,18.05773 -13.0773,13.17768 -0.3872,-1.27394 -2.8626,-4.9674 -6.3936,-9.53914 l -5.762,-7.46024 -4.6002,-1.82049 c -5.1588,-2.04148 -5.7192,-1.56797 -3.9251,3.31626 0.5187,1.41173 1.0905,4.30015 1.2761,6.41721 0.2711,3.13358 0.6977,4.36976 2.2913,6.64018 3.0762,4.37559 17.542,10.4165 18.7121,17.64066 -1.9197,4.32152 0.1878,8.20553 -9.0796,6.49516 13.6018,8.2528 6.1438,15.15798 5.8601,22.33339 z m -13.0546,-25.62612 c -0.7561,-0.4189 -7.6354,1.33263 -7.8003,1.98602 -0.066,0.2628 0.291,0.4015 0.7946,0.30801 6.6792,-1.23934 8.081,-1.69839 7.0057,-2.29403 z m -2.531,-4.36387 c -4.2525,-5.21015 -16.2582,-13.72294 -24.4275,-17.32038 -1.9202,-0.84558 -8.1619,-2.42253 -13.8703,-3.50437 -10.931,-2.07149 -16.712,-4.21721 -22.6054,-8.39052 -2.0927,-1.4818 -5.2257,-2.92146 -7.5661,-3.47657 -2.1968,-0.52113 -6.3743,-1.77482 -9.2832,-2.786 -2.9089,-1.01117 -5.7045,-1.58596 -6.2122,-1.2773 -0.5881,0.35743 -0.7939,1.92232 -0.5668,4.30927 0.6039,6.35023 0.2558,11.9744 -0.9923,16.03237 -1.2127,3.94298 -0.7901,5.40414 0.7832,2.70763 0.8156,-1.39794 2.6445,-3.18798 7.1816,-7.02899 1.6225,-1.37358 1.9222,-1.4625 1.7099,-0.50742 -0.4054,1.82401 0.1208,2.13657 1.8386,1.0924 0.8749,-0.53181 1.8834,-0.80491 2.2409,-0.60686 0.3575,0.19807 1.1224,0.0729 1.6998,-0.27805 1.1967,-0.72736 1.6789,-0.22701 1.2848,1.33358 -0.2101,0.83258 0.1744,0.80022 1.7312,-0.14601 1.6408,-0.99729 2.1152,-1.0135 2.6329,-0.0899 0.4883,0.87119 0.992,0.90738 2.2223,0.15963 1.8925,-1.15032 2.9027,-0.78265 2.3313,0.84851 -0.6707,1.91501 0.5514,1.9304 3.6518,0.046 1.6012,-0.97322 3.1555,-1.63416 3.454,-1.46872 0.2987,0.16539 -0.093,1.32488 -0.8698,2.57657 l -1.4129,2.27588 1.5997,-0.70445 c 0.8798,-0.38745 2.1264,-0.36742 2.77,0.0445 0.6436,0.41193 1.5268,0.53222 1.9625,0.26732 1.1104,-0.67494 1.2654,-0.1071 0.5401,1.97988 -0.6225,1.79156 -0.6127,1.78995 3.2475,-0.53135 3.2888,-1.97756 3.9406,-2.17885 4.3276,-1.33597 0.2739,0.59606 1.081,0.81693 2.0222,0.5529 l 1.5666,-0.43947 -1.1627,1.56789 c -0.6395,0.86234 -1.4371,1.76808 -1.7727,2.01276 -0.3354,0.24469 0.6654,0.0999 2.2238,-0.32169 2.1611,-0.58457 2.6647,-0.5306 2.1218,0.2274 -1.1669,1.62916 -0.2789,2.07948 1.7132,0.86864 1.7187,-1.04464 3.4064,-0.99156 3.1312,0.0985 -0.064,0.25391 -1.0379,1.20896 -2.164,2.12227 -1.1262,0.91329 -2.0547,1.94882 -2.0632,2.30116 -0.018,0.7357 1.428,0.29331 6.0013,-1.83628 2.5063,-1.16708 3.3374,-1.29135 3.6801,-0.55028 0.2616,0.56512 1.0746,0.76276 1.9857,0.48238 0.8487,-0.26122 1.8655,-0.091 2.2594,0.37813 0.6069,0.72253 0.2504,1.13632 -2.3302,2.70486 -3.4845,2.11792 -3.1001,2.99858 0.6613,1.51491 1.3865,-0.54694 3.2684,-1.11644 4.1818,-1.26559 l 1.6611,-0.27122 -1.0453,1.36967 c -1.0282,1.34724 -0.9942,1.36548 2.0754,1.1151 1.7164,-0.13999 3.1411,0.0729 3.166,0.47314 0.026,0.41754 -1.559,1.58797 -3.7185,2.74613 -2.0701,1.11016 -3.6892,2.15138 -3.5982,2.31383 0.091,0.16239 2.5597,-0.23667 5.4857,-0.88697 6.7325,-1.49623 7.171,-1.47175 5.0535,0.28254 l -1.7333,1.43601 4.2188,-0.67638 c 2.3205,-0.37199 4.6976,-0.37259 5.2826,-0.002 0.585,0.37132 1.5528,0.37775 2.1509,0.0142 0.9599,-0.58353 0.9064,-0.88251 -0.4578,-2.55378 z m -183.4327,27.88533 c 1.1498,-1.88775 1.1768,-4.09062 0.043,-3.53263 -2.1979,1.08197 -3.8766,2.72193 -4.2596,4.16132 -0.8549,3.2123 2.1498,2.76432 4.2163,-0.62869 z m 14.5873,-10.29452 c -0.5302,-0.94609 0.3718,-5.35341 1.442,-7.04472 0.4995,-0.7897 0.4873,-1.95248 -0.033,-3.13114 -0.7457,-1.6887 -0.6268,-2.05463 1.198,-3.68474 1.1143,-0.99543 2.3211,-1.86561 2.6817,-1.93378 0.622,-0.11753 1.7548,-0.67802 5.7531,-2.84674 1.1053,-0.59952 2.0666,-0.65891 2.629,-0.16236 0.4874,0.43055 1.2057,1.01346 1.5963,1.29533 0.4483,0.32376 0.2884,0.76863 -0.434,1.20779 -1.5963,0.97022 -1.1846,2.40773 1.1348,3.96197 1.0857,0.72748 2.0725,1.35914 2.1928,1.40362 0.4675,0.17255 1.8337,-6.44044 1.4661,-7.09624 -0.7328,-1.30747 -0.1035,-1.82567 1.87,-1.53985 3.5459,0.51353 5.8861,-2.17693 3.7937,-4.36149 -1.1384,-1.18871 -0.6012,-2.60051 0.892,-2.34267 0.8042,0.13897 1.4806,-0.66997 2.7775,-3.32239 1.6303,-3.33418 1.6472,-3.63181 0.3424,-6.07049 -1.3812,-2.58204 -1.565,-5.09027 -0.4234,-5.78416 0.7665,-0.46596 1.1965,0.23006 0.8907,1.44186 -0.2799,1.10869 3.183,8.34638 4.2856,8.95722 1.0863,0.60174 5.2508,-0.82784 5.2746,-1.81063 0.011,-0.42483 -0.3705,-0.78268 -0.8464,-0.79516 -0.6323,-0.0166 -0.7496,-0.35276 -0.4358,-1.24864 0.3289,-0.93913 -0.093,-2.03619 -1.8035,-4.68987 -1.8527,-2.87417 -2.0886,-3.55159 -1.3863,-3.97854 0.4656,-0.28301 1.299,-1.65793 1.852,-3.05546 0.5529,-1.39753 1.2904,-2.53344 1.6387,-2.52425 0.3484,0.009 0.7861,-0.73985 0.9727,-1.66444 0.4446,-2.20177 1.3593,-2.10331 2.7012,0.29074 1.2091,2.15714 1.8527,2.1231 2.3011,-0.12164 0.3951,-1.9769 -0.4148,-4.75696 -1.822,-6.25559 -0.8247,-0.87801 -1.4905,-0.98208 -2.4709,-0.38624 -0.738,0.44865 -1.1999,1.06919 -1.0261,1.379 0.5456,0.97342 -0.6747,1.23191 -1.953,0.4137 -1.5907,-2.74349 1.2003,-9.5688 -2.364,-11.88376 -1.8143,-1.20219 -2.3906,-3.59654 -4.2484,-4.46555 -0.6651,-0.11489 -1.3933,-0.53696 -1.618,-0.93791 -0.2248,-0.40096 -0.7509,-0.65432 -1.1692,-0.56301 -1.4698,0.32076 -0.7479,-1.77354 0.7694,-2.23207 1.3809,-0.41726 1.3948,-0.60501 0.204,-2.72962 -1.4786,-2.63792 -2.8044,-2.75252 -4.6363,-0.40075 -0.8452,1.08493 -1.5534,1.49701 -2.5169,1.46456 -0.7375,-0.0249 -2.071,0.39866 -2.9635,0.94116 -1.5146,0.92058 -1.5497,1.16845 -0.5265,3.71834 1.0513,2.61962 1.0456,2.64963 -0.1351,0.72932 -1.252,-2.03596 -2.2882,-2.27717 -4.3635,-1.01569 -0.5706,0.34685 -1.2507,0.25042 -1.5112,-0.21427 -0.2605,-0.46471 -0.5754,-0.78306 -0.6998,-0.70744 -0.1244,0.0757 -0.6975,0.21763 -1.2734,0.31562 -0.6375,0.10846 -0.8806,0.47789 -0.6212,0.94396 0.2927,0.52232 -0.4209,1.34989 -2.2487,2.61037 -2.6129,1.80188 -2.6852,1.80759 -3.1208,0.24402 -0.5218,-1.87276 -1.8138,-2.13859 -2.3905,-0.49194 -0.5352,1.52786 -3.8134,2.59882 -3.441,1.12419 0.1417,-0.56159 0.073,-1.35062 -0.1527,-1.75338 -2.3346,0.17676 -7.0365,5.66641 -8.5409,1.8291 -1.4642,-3.33259 -5.9559,1.73644 -6.2935,2.94857 -0.8691,3.44292 0.4236,5.13439 4.6528,6.08795 2.6497,0.59748 1.1549,4.43856 4.7659,4.05504 6.7428,4.52187 4.2721,10.13204 4.7482,14.80335 0.3273,3.04071 -0.6484,7.85261 -1.726,8.51307 -0.4888,0.2994 -1.9385,4.49409 -3.2214,9.32118 -1.66,6.24527 -2.1168,9.16176 -1.5841,10.11225 0.5853,1.04416 0.3163,2.03191 -1.2325,4.52514 -1.9056,3.0677 -1.9774,5.83022 -0.122,4.70252 0.4462,-0.27125 0.6693,-0.74664 0.4956,-1.05646 -0.1736,-0.3098 0.6202,-1.13216 1.764,-1.82743 1.3526,-0.82212 2.1947,-1.8331 2.4083,-2.89121 0.1807,-0.89487 1.0112,-2.9967 1.8456,-4.67076 0.8345,-1.67406 1.2834,-3.46087 0.9976,-3.97068 -0.2858,-0.50982 -0.31,-1.61499 -0.055,-2.45596 0.2559,-0.84094 0.3263,-3.48112 0.1562,-5.8671 -0.2709,-3.80193 0.1826,-6.04255 1.1685,-5.77264 0.1698,0.0464 0.823,1.38027 1.452,2.9639 0.8244,2.07614 1.0037,4.30717 0.6423,7.99702 -0.63,6.43468 -2.3308,11.16428 -5.6709,15.77031 -2.5412,3.50439 -3.2156,5.85811 -1.3543,4.72674 0.6591,-0.40058 1.0202,-0.18392 1.2749,0.76481 0.2262,0.84378 0.9926,1.47333 2.113,1.73633 2.0191,0.47393 3.9204,-0.41668 3.2901,-1.54121 z m -17.199,3.50747 c 1.5857,-0.58953 1.83,-0.96302 1.6748,-2.56072 -0.1613,-1.66253 -0.4176,-1.92524 -2.3037,-2.36252 -1.7805,-0.4128 -2.3019,-0.25995 -3.2396,0.94984 -1.2482,1.6101 -2.1495,1.53419 -4.6122,-0.38852 -1.2164,-0.94978 -1.3657,-1.38197 -0.9496,-2.74939 0.4764,-1.5655 0.5232,-1.56996 1.332,-0.12691 0.8454,1.50825 2.3776,1.34995 2.4164,-0.24967 0.011,-0.43872 0.56,-0.92416 1.2206,-1.07873 0.8001,-0.18717 1.2164,-0.80828 1.2466,-1.85978 0.064,-2.21305 1.4526,-2.81462 4.0492,-1.75365 2.4983,1.02073 3.6572,0.59846 4.4694,-1.62837 0.5311,-1.45645 0.4992,-1.46871 -0.7472,-0.28662 -2.1232,2.01352 -2.502,-0.0839 -0.6424,-3.55587 2.5185,-4.70184 3.1396,-6.63589 2.4199,-7.53484 -0.3901,-0.48712 -0.2666,-1.18159 0.3012,-1.69695 0.5287,-0.47985 1.3008,-2.0136 1.7156,-3.40837 0.4148,-1.39477 1.2731,-3.79352 1.9073,-5.33056 1.2863,-3.11764 1.1319,-4.11297 -0.4852,-3.12995 -0.5951,0.36165 -1.227,0.39866 -1.4043,0.0822 -0.5593,-0.99782 -3.7453,-0.36206 -4.0402,0.80622 -0.1923,0.76136 0.021,0.96986 0.8469,0.82928 0.6072,-0.10328 1.2973,0.15737 1.5337,0.57921 0.2684,0.47878 0.6881,0.43186 1.1168,-0.12473 1.379,-1.79006 1.0487,0.94521 -0.54,4.47302 -1.2897,2.86381 -1.7239,3.38849 -2.2731,2.74639 -1.069,-1.24993 -2.2708,1.35345 -1.3681,2.96382 0.9382,1.67394 -0.2193,3.27823 -2.0111,2.78741 -1.1709,-0.32068 -1.2812,-0.49838 -0.8425,-1.3576 0.4353,-0.85222 0.2951,-1.05796 -1.0168,-1.49083 -1.886,-0.62242 -2.135,-1.049 -1.7438,-2.98695 0.2926,-1.449 -0.3451,-3.18829 -3.7069,-10.11204 -2.2326,-4.59816 -2.0222,-5.94511 1.2379,-7.92671 2.4123,-1.46627 2.7883,-1.52307 3.0723,-0.46435 0.3757,1.3989 2.0862,2.61523 2.9445,2.0935 1.0466,-0.63614 0.8772,-2.8932 -0.3358,-4.47435 -1.0278,-1.33979 -1.3424,-1.39325 -2.4232,-0.41167 -1.3345,1.2121 -3.2135,0.83024 -4.1982,-0.85313 -0.7253,-1.23982 1.1737,-6.00686 2.4814,-6.22931 0.557,-0.0948 1.0215,-0.52755 1.032,-0.96176 0.012,-0.53126 0.5817,-0.88701 1.7397,-1.08781 0.9463,-0.16412 1.779,-0.52958 1.8504,-0.8122 0.2537,-1.00479 -2.1492,-1.69825 -3.2809,-0.94683 -0.8357,0.55493 -1.4545,0.4071 -2.2622,-0.54097 -1.562,-1.83316 -5.4928,-1.98432 -8.2364,-0.31671 -1.2283,0.74667 -2.526,1.19554 -2.8834,0.99748 -0.6789,-0.37607 -5.1811,2.08215 -5.3998,2.94823 -0.2941,1.16505 1.6287,2.12752 4.0641,2.03433 2.0757,-0.0794 3.1365,0.37194 5.0934,2.1676 1.6782,1.53988 2.4864,2.68505 2.5178,3.56718 0.074,2.1124 -1.4514,2.40803 -3.6218,0.7015 -2.0937,-1.64615 -7.4433,-3.13442 -8.7063,-2.42214 -1.4008,0.78993 -2.9303,4.07279 -2.8318,6.0781 0.056,1.12006 0.9818,4.03435 2.0591,6.47634 1.0776,2.44195 2.2824,6.28247 2.6774,8.53448 0.8568,4.88429 0.5831,14.37178 -0.4323,14.98898 -0.3958,0.24067 -0.9443,1.59351 -1.2186,3.0063 -0.5804,2.98921 -1.4469,3.75552 -2.7308,2.41502 -0.9582,-1.00041 -2.5613,-0.49289 -2.5932,0.82099 -0.01,0.42156 -0.491,1.05366 -1.0684,1.40463 -0.5775,0.35101 -0.9118,0.88459 -0.743,1.18578 0.1688,0.3012 -0.6045,1.83262 -1.7185,3.40314 -1.1141,1.57052 -1.9178,3.04769 -1.7861,3.28256 0.1316,0.23489 1.5845,0.0614 3.2284,-0.38573 l 2.9892,-0.81279 -1.9693,1.46537 c -1.3323,0.99135 -2.4671,1.35638 -3.5082,1.12844 -1.8518,-0.40546 -4.1412,1.59368 -3.38,2.9516 0.3927,0.70058 0.1266,1.01382 -1.2015,1.41445 -4.2122,1.27062 -8.6187,3.07741 -8.7473,3.58655 -0.077,0.3064 0.4822,1.13439 1.2433,1.83996 0.9303,0.86247 2.7527,1.29594 5.5612,1.32272 2.594,0.0248 4.024,0.34013 3.7727,0.83198 -0.6138,1.20162 0.7229,1.6294 4.3362,1.38763 5.5454,-0.37099 9.3795,-1.62605 14.6162,-4.78459 3.8066,-2.29588 4.9359,-3.22826 4.8184,-3.97781 -0.2148,-1.36953 1.2536,-2.09728 3.5583,-1.7635 1.5801,0.22881 2.1711,0.005 3.079,-1.16642 0.6181,-0.79727 1.9592,-1.76019 2.9803,-2.1398 z m 62.629,-46.66339 c -1.0871,-1.93935 -3.1624,-3.27141 -4.58,-2.93971 -1.5285,0.35764 -2.5257,2.58384 -1.033,2.30596 0.4516,-0.0841 1.3063,0.71325 1.8996,1.77175 0.9881,1.7629 1.215,1.84173 2.7015,0.93823 1.2439,-0.75609 1.4801,-1.24076 1.0119,-2.07623 z m -114.9548,53.67435 c -0.2402,-0.42867 -1.9239,-1.10361 -3.7414,-1.49985 -1.8175,-0.39626 -3.5567,-1.17034 -3.865,-1.72015 -0.3082,-0.54985 -1.7614,-1.46065 -3.2294,-2.02404 -2.7464,-1.05401 -10.0265,-6.1001 -10.8052,-7.48953 -0.2408,-0.42951 -1.2226,-0.64483 -2.182,-0.47846 -0.9594,0.16635 -2.809,0.11084 -4.1103,-0.12343 -1.8784,-0.33815 -2.5138,-0.17558 -3.083,0.78892 -0.931,1.57749 -0.7583,1.79974 1.6709,2.15155 1.1149,0.16146 3.3145,1.2523 4.8877,2.42409 3.9063,2.90929 10.6311,5.77764 13.5796,5.7921 1.3387,0.006 3.0833,0.56016 3.877,1.23021 2.8111,2.37332 8.2097,3.10475 7.0011,0.94859 z m 18.4213,-16.30005 c -0.1286,-0.22954 -0.5603,-0.42591 -0.9592,-0.43641 -1.2315,-0.0324 -7.2681,2.56826 -7.917,3.41061 -0.7504,0.97429 -0.09,2.32926 1.0329,2.11653 1.3426,-0.25453 8.0968,-4.63841 7.8433,-5.09073 z m -10.5819,2.32961 c -0.7376,-2.64769 -2.0937,-2.56945 -3.9127,0.22565 -2.3164,3.55894 -1.2182,4.83632 2.3126,2.69021 1.7653,-1.07298 1.9964,-1.49406 1.6001,-2.91586 z m -6.3953,-2.87285 c -0.1529,-0.95572 -0.8136,-2.848 -1.4683,-4.20501 -1.0811,-2.24043 -1.2907,-2.38547 -2.2783,-1.57791 -0.5983,0.4892 -2.3944,0.96653 -3.9913,1.06073 -5.5034,0.32464 -8.3232,4.48114 -3.9552,5.83001 1.6082,0.49658 2.4774,0.37287 3.4056,-0.48475 1.2933,-1.19495 2.9119,-1.14494 3.6163,0.11172 0.5607,1.00053 3.3858,1.95309 4.2446,1.43114 0.3875,-0.23555 0.5795,-1.21018 0.4266,-2.16595 z m 60.361,-41.59426 c -0.4949,-3.46401 -1.0521,-4.47727 -3.5345,-6.42884 -3.1259,-2.45776 -3.2479,-1.31915 -0.3354,3.13245 2.2477,3.43568 2.5226,4.13064 1.8057,4.56644 -0.8511,0.51729 -0.4948,1.88168 0.567,2.1725 1.3467,0.36867 1.8696,-0.83401 1.4969,-3.44246 z m 86.2286,-51.08658 c -1.217,-2.65081 -0.1927,-5.204536 -1.0613,-7.982676 -0.6342,-1.93841 -0.7531,-1.98263 -3.3629,-1.25174 -2.8277,0.86121 -15.3213,1.66092 -15.7761,3.97606 -0.119,1.730746 -2.9811,2.339936 -2.2966,3.651486 2.7491,0.85503 6.6743,1.93933 9.3501,1.87107 2.7131,0.88174 3.787,2.69163 5.6766,4.8544 2.8537,-1.90965 6.7898,-2.18577 7.4702,-5.1186 z m -130.3093,76.35312 c 0.5783,-0.9798 0.4882,-1.3781 -0.4472,-1.97654 -0.9729,-0.62266 -1.0282,-1.3209 -0.3274,-4.12576 1.0862,-4.34672 -0.2484,-9.55959 -2.8948,-11.30773 -2.5433,-1.67971 -2.7274,-2.56171 -0.4196,-2.00948 1.211,0.28975 2.3238,0.13681 2.7168,-0.37339 0.603,-0.78276 0.4984,-0.97467 -1.1094,-2.03656 -1.2938,-0.85442 -2.4943,-0.96639 -4.4268,-0.41279 -1.4583,0.41778 -3.6745,0.73735 -4.9247,0.71012 -1.2504,-0.0271 -2.3452,0.23456 -2.4327,0.58166 -0.088,0.34712 -2.1805,1.9425 -4.6508,3.54527 -2.4701,1.60275 -4.8402,3.50555 -5.2669,4.22839 -0.4265,0.72283 -0.6424,2.6502 -0.4796,4.28299 0.2754,2.76089 0.3869,2.97978 1.5949,3.12675 0.7143,0.087 1.6562,-0.25363 2.0931,-0.75678 0.6214,-0.7155 0.967,-0.60694 1.5864,0.49806 0.4355,0.77712 0.6364,1.71754 0.4462,2.08985 -0.6032,1.18074 0.964,3.12304 3.5627,4.41577 3.3354,1.65906 3.4045,1.98711 0.4156,1.97246 l -2.51,-0.0123 1.4003,1.17722 c 1.9093,1.60493 4.0195,2.24578 6.4515,1.95926 2.4495,-0.28856 8.608,-3.8576 9.6223,-5.57637 z m -11.3005,-2.4639 c -2.4709,-0.6764 -3.1336,-1.1916 -4.3696,-3.39672 -1.2092,-2.15735 -1.3464,-3.13077 -0.8064,-5.72407 0.5409,-2.59877 1.0805,-3.44721 3.2058,-5.04104 2.1772,-1.63285 2.8961,-1.85097 4.8602,-1.47454 1.9034,0.36488 2.6642,0.97581 4.367,3.50724 1.8053,2.68376 2.002,3.34127 1.5795,5.28115 -1.2015,5.51747 -4.4633,8.04517 -8.8365,6.84798 z m 76.7158,-53.98261 c 0.1905,-1.29228 0.8664,-2.13995 2.4956,-3.13029 2.0387,-1.23912 2.1833,-1.52386 1.6489,-3.24825 -0.7913,-2.55357 -3.0399,-3.28545 -4.036,-1.31355 -0.5827,1.1537 -0.9033,1.21764 -2.3474,0.4681 -0.9199,-0.47752 -2.0097,-0.66327 -2.4217,-0.41284 -0.9215,0.56008 -0.585,1.26333 0.784,1.63802 0.7968,0.21819 0.9674,0.52094 0.7614,1.3455 -0.2086,0.82605 -0.6734,0.9388 -2.0677,0.50165 -0.9896,-0.31004 -1.9237,-0.48806 -2.076,-0.39544 -0.1524,0.0926 -0.1357,1.27187 0.037,2.62068 0.385,3.00756 -0.3668,3.60292 -2.0522,1.62488 -1.1035,-1.89547 -6.6314,-1.31736 -5.6968,0.63974 0.182,0.32468 -0.413,0.42744 -1.3224,0.22834 -1.4687,-0.64588 -5.4274,-2.30215 -4.8401,-3.51166 0.7382,-1.48246 1.7796,-1.94869 2.2957,-1.02787 0.7123,1.27074 1.9761,0.99142 2.4605,-0.54379 0.2423,-0.76814 0.857,-1.76978 1.3661,-2.22589 0.5089,-0.45614 0.8492,-1.20757 0.7559,-1.66989 -0.2728,-1.35303 -2.2734,-0.6121 -2.7722,1.02667 -0.6327,2.07879 -2.1249,2.85163 -2.8856,1.49445 -0.3411,-0.60872 -1.2622,-1.08204 -2.0469,-1.05185 -1.2016,0.0462 -1.3859,0.30776 -1.1697,1.65954 0.1411,0.88253 0.055,2.17941 -0.1909,2.88196 -0.5538,1.58131 -0.1607,2.33498 1.5046,2.88455 0.8157,0.26918 1.2801,0.81942 1.2637,1.49721 -0.022,0.90063 -0.3399,1.05471 -1.9933,0.96557 -1.8515,-0.0998 -3.9963,1.33145 -3.4516,2.30325 0.3501,0.62481 6.3865,0.84861 7.8627,0.29153 1.9123,-0.7217 5.977,-1.19245 6.7238,-0.77873 0.363,0.20105 1.5687,-0.16203 2.6795,-0.80679 1.1107,-0.6448 3.0132,-1.14632 4.2277,-1.11449 2.9476,0.0773 4.1909,-0.70683 4.5056,-2.84161 z m -46.6404,11.36279 c 3.4689,0.37107 5.2561,-0.46021 2.2377,-4.97414 -2.127,-3.24639 -11.4833,4.59798 -9.1104,9.01894 -0.2125,2.68476 -7.2757,0.96337 -7.8678,3.49037 -1.388,1.46639 12.3916,0.1452 14.05,-1.00666 1.0376,-2.16434 0.2149,-4.95472 0.6905,-6.52851 z m 21.6305,-20.23291 c 0.3988,-2.28505 0.185,-2.48392 -1.1782,-1.09571 -0.8728,0.88883 -1.278,0.95451 -1.662,0.26939 -0.6535,-1.16578 -3.0071,0.20008 -3.2783,1.90241 -0.109,0.68474 -0.5238,1.23646 -0.9216,1.22599 -0.4049,-0.0106 -0.3728,0.38924 0.072,0.90797 0.5842,0.67995 1.1656,0.64412 2.182,-0.13454 0.762,-0.58381 1.9508,-1.06192 2.6421,-1.06246 1.7211,-0.002 1.806,-0.0811 2.1431,-2.01305 z m -11.6897,-28.568886 c -1.2288,-2.842672 -4.3243,-8.608476 -4.3797,-7.030641 -0.049,1.387859 4.3774,10.241601 4.9972,9.864816 0.2664,-0.161815 -0.011,-1.438018 -0.6146,-2.835949 z m 27.7863,-27.120356 c 0.01,-3.184106 -0.3377,-6.404196 -0.759,-7.155755 -0.7593,-1.354952 -0.7705,-1.351508 -1.3209,0.409483 -0.3052,0.976802 -0.4815,2.750793 -0.3914,3.942194 0.09,1.191402 0.1955,3.336191 0.2344,4.766207 0.075,2.764216 1.2863,5.674156 1.8785,4.514719 0.1933,-0.378241 0.3545,-3.292838 0.3584,-6.47688 z m -33.926,-13.715811 -0.029,-2.425102 -0.7412,2.668647 c -0.7656,2.756044 0.092,10.404667 1.0074,9.208308 0.2877,-0.376066 -0.2216,-8.118062 -0.2374,-9.451853 z m 19.7332,-23.8768 c -0.3769,-0.67264 -6.728,3.149541 -7.8542,4.735832 -0.6502,0.915836 4.4743,-2.021924 6.1195,-2.979215 1.1277,-0.6563 1.9084,-1.446813 1.7347,-1.756617 z"
       style="fill:#241c1c"
       sodipodi:nodetypes="cssssccccssssccsccssscssssccsssssscccssssccssssssscscssssccssssccssscssssssscscsscssscccsssccssccscscsccssssscsssssssccccscssscccccccccsscssssssscssscssscscscscssscscssssscscscccssscssssssscsssccsccsscsscccsccssccscsccccsssscssccssccccccsccssssssscscscscccccsccsssssssscccsssscsssssccsccssscsssssccscscsccccsscssccccscscsscssccscssscscssssscssssccssssssscccsccccsssscssscscsssssccsscsssssssscsccscssssccsscsccccccccsssscscssscccsccsssscssscssssccccscsscssscsccccsscssscssccssssscscccccccccsccsccsccsccccscscscccccccccccc" />
  </g>
</svg>
