<?xml version="1.0" encoding="UTF-8" standalone="no"?>
<!-- Created with Inkscape (http://www.inkscape.org/) -->

<svg
   xmlns:dc="http://purl.org/dc/elements/1.1/"
   xmlns:cc="http://creativecommons.org/ns#"
   xmlns:rdf="http://www.w3.org/1999/02/22-rdf-syntax-ns#"
   xmlns:svg="http://www.w3.org/2000/svg"
   xmlns="http://www.w3.org/2000/svg"
   xmlns:xlink="http://www.w3.org/1999/xlink"
   xmlns:sodipodi="http://sodipodi.sourceforge.net/DTD/sodipodi-0.dtd"
   xmlns:inkscape="http://www.inkscape.org/namespaces/inkscape"
   width="79.824509mm"
   height="101.83784mm"
   viewBox="0 0 282.84275 360.84274"
   id="svg2"
   version="1.1"
   inkscape:version="0.91 r13725"
   sodipodi:docname="Art_Icon_BW.svg"
   inkscape:export-filename="/home/berengere/Documents/Projets/Loxodonta/WebSite/aboutMeWebPage/assets/Art_Icon_BW.svg.png"
   inkscape:export-xdpi="6"
   inkscape:export-ydpi="6">
  <sodipodi:namedview
     id="base"
     pagecolor="#ffffff"
     bordercolor="#666666"
     borderopacity="1.0"
     inkscape:pageopacity="0.0"
     inkscape:pageshadow="2"
     inkscape:zoom="1.2881102"
     inkscape:cx="-32.545258"
     inkscape:cy="165.83159"
     inkscape:document-units="px"
     inkscape:current-layer="layer1"
     showgrid="false"
     inkscape:window-width="1364"
     inkscape:window-height="720"
     inkscape:window-x="0"
     inkscape:window-y="18"
     inkscape:window-maximized="1"
     fit-margin-top="0"
     fit-margin-left="0"
     fit-margin-right="0"
     fit-margin-bottom="0" />
  <defs
     id="defs4">
    <linearGradient
       id="linearGradient4779"
       inkscape:collect="always">
      <stop
         id="stop4781"
         offset="0"
         style="stop-color:#888888;stop-opacity:1" />
      <stop
         id="stop4783"
         offset="1"
         style="stop-color:#828282;stop-opacity:1" />
    </linearGradient>
    <linearGradient
       gradientUnits="userSpaceOnUse"
       y2="-388.88203"
       x2="-237.74272"
       y1="-388.88203"
       x1="-416.1362"
       id="linearGradient4785"
       xlink:href="#linearGradient4779"
       inkscape:collect="always" />
    <linearGradient
       gradientUnits="userSpaceOnUse"
       y2="-388.88203"
       x2="-237.74272"
       y1="-388.88203"
       x1="-416.1362"
       id="linearGradient4785-218"
       xlink:href="#linearGradient4779-397"
       inkscape:collect="always" />
    <linearGradient
       id="linearGradient4779-397"
       inkscape:collect="always">
      <stop
         id="stop4153"
         offset="0"
         style="stop-color:#888888;stop-opacity:1" />
      <stop
         id="stop4155"
         offset="1"
         style="stop-color:#828282;stop-opacity:1" />
    </linearGradient>
  </defs>
  <metadata
     id="metadata7">
    <rdf:RDF>
      <cc:Work
         rdf:about="">
        <dc:format>image/svg+xml</dc:format>
        <dc:type
           rdf:resource="http://purl.org/dc/dcmitype/StillImage" />
        <dc:title></dc:title>
      </cc:Work>
    </rdf:RDF>
  </metadata>
  <g
     transform="translate(-364.74086,97.621348)"
     id="layer1"
     inkscape:groupmode="layer"
     inkscape:label="Calque 1">
    <flowRoot
       style="font-style:normal;font-weight:normal;font-size:40px;line-height:125%;font-family:sans-serif;text-align:center;letter-spacing:0px;word-spacing:0px;writing-mode:tb-rl;text-anchor:middle;fill:#000000;fill-opacity:1;stroke:none;stroke-width:1px;stroke-linecap:butt;stroke-linejoin:miter;stroke-opacity:1"
       id="flowRoot4178"
       xml:space="preserve"><flowRegion
         id="flowRegion4180"><rect
           y="225.83891"
           x="247.31183"
           height="76.702507"
           width="147.67026"
           id="rect4182" /></flowRegion><flowPara
         id="flowPara4184" /></flowRoot>    <rect
       style="opacity:1;fill:#000000;fill-opacity:1;stroke:none;stroke-width:3;stroke-linecap:round;stroke-linejoin:round;stroke-miterlimit:4;stroke-dasharray:none;stroke-dashoffset:0;stroke-opacity:1"
       id="rect4259"
       width="200"
       height="200"
       x="-426.93945"
       y="-488.88202"
       transform="matrix(-0.70710678,0.70710678,-0.70710678,-0.70710678,0,0)" />
    <g
       id="text4186"
       style="font-style:normal;font-weight:normal;font-size:77.76915741px;line-height:125%;font-family:sans-serif;text-align:center;letter-spacing:0px;word-spacing:0px;writing-mode:lr-tb;text-anchor:middle;fill:#7f7f7f;fill-opacity:1;stroke:none;stroke-width:1px;stroke-linecap:butt;stroke-linejoin:miter;stroke-opacity:1">
      <path
         d="m 448.72461,14.830078 -0.31055,0.234375 c -0.85546,0.466615 -3.26563,2.177205 -4.12109,2.488281 l -1.47852,0 -18.66406,43.939454 c -1.71092,4.121764 -2.72216,4.12216 -6.45508,4.355468 l -0.15625,0 -0.0762,0.07813 c -1.71092,1.710922 -2.33471,4.044234 0.0762,6.455078 l 0.0781,0.07617 0.15625,0 c 3.11076,-0.07777 5.21026,-0.464843 8.47656,-0.464843 3.11077,0 5.67653,0.387074 9.25391,0.464843 l 0.15625,0 0.0781,-0.07617 c 1.63315,-1.633152 2.56671,-3.966465 0.0781,-6.455078 l -0.0781,-0.07813 -0.0781,0 c -2.79969,-0.155538 -3.8102,-0.0776 -3.73243,-1.24414 0,-0.233307 0.0776,-0.623055 0.38868,-1.478516 l 3.88867,-10.03125 c 0.0778,-0.07777 0.0762,-0.15625 0.0762,-0.15625 0.0778,-0.07777 -0.30929,-0.07813 0.39063,-0.07813 l 14.54101,0 3.0332,9.333984 c 0.69992,2.177536 0.77751,3.031077 -0.46679,3.419922 -0.54439,0.233308 -1.24273,0.312856 -2.64258,0.390625 l -0.0781,0 -0.0781,0.07617 c -1.78869,1.788691 -2.25499,3.967706 0.0781,6.300781 l 0.0781,0.07617 0.1543,0 c 3.033,-0.07777 7.46718,-0.464843 10.96679,-0.464843 3.11077,0 5.59876,0.309305 9.25391,0.464843 l 0.15625,0 0.0762,-0.07617 c 1.63315,-1.633152 2.48894,-3.966109 0.0781,-6.376953 l -0.0781,-0.07813 -0.0762,-0.07813 c -3.2663,-0.233308 -4.58897,0.155688 -5.67774,-2.955078 l -17.26562,-48.0625 z m -0.31055,0.933594 16.95313,47.361328 c 1.16654,3.344074 3.11154,3.110443 6.14453,3.34375 2.022,2.177537 1.24398,3.967343 -0.0781,5.367188 -3.57738,-0.155539 -6.06501,-0.466797 -9.17578,-0.466797 -3.49961,0 -8.01121,0.389027 -10.88867,0.466797 -1.94423,-2.099767 -1.47793,-3.733325 -0.0781,-5.210938 1.47762,-0.07777 2.10015,-0.155365 2.64453,-0.388672 1.86646,-0.622154 1.55539,-2.099452 0.85547,-4.199219 l -3.11133,-9.798828 -15.00977,0 c -0.93323,0 -0.93199,0.387786 -1.00976,0.621094 l -3.88868,10.033203 c -0.31107,0.855461 -0.38902,1.322093 -0.46679,1.710938 -0.15554,1.86646 1.86615,1.709696 4.19922,1.865234 2.022,2.177537 1.24398,3.889574 -0.0781,5.367188 -3.57738,-0.155539 -6.06501,-0.466797 -9.17578,-0.466797 -3.34407,0 -5.44322,0.389027 -8.39844,0.466797 -2.022,-2.099767 -1.40017,-3.889574 -0.0781,-5.367188 3.81068,-0.233307 5.13318,-0.542654 6.92187,-4.742188 l 18.50781,-43.550781 1.24415,0 c 0.85546,-0.311076 3.03356,-1.789956 3.96679,-2.412109 z m 101.92188,0.388672 c -2.48862,0 -2.64329,2.177734 -2.79883,2.177734 l 0,0.3125 c -0.31108,3.032998 -1.01208,7.231039 -1.94531,11.197266 l -0.38868,1.945312 0.23438,0.154297 c 1.63315,0.622154 2.95565,1.167969 6.06641,1.167969 l 0.23242,0 0.46679,-1.789063 c 1.2443,-5.210534 3.65435,-7.232421 7.93165,-7.232421 l 3.0332,0 c 0.93323,0 2.64524,0.07798 2.80078,3.888671 0.15554,6.143764 0.23242,9.95443 0.23242,16.642579 0,6.299301 8.8e-4,9.564873 -0.23242,16.486328 -0.15554,4.121766 -1.01141,4.510832 -6.06641,4.74414 l -0.15625,0 -0.0781,0.07813 c -1.71093,1.710922 -2.25499,4.044234 0.0781,6.455078 l 0.0781,0.07617 0.15625,0 c 4.12177,-0.07777 6.99828,-0.464843 11.74219,-0.464843 3.81069,0 6.45512,0.310902 10.73242,0.388671 l 1.01172,0.07617 0.0781,-0.07617 c 1.71092,-1.710921 2.48698,-4.044234 0.0762,-6.455078 l -0.0762,-0.07813 -0.15625,0 c -5.2883,-0.233308 -5.83274,-0.466836 -5.98828,-4.74414 -0.2333,-6.221532 -0.23242,-9.642286 -0.23242,-16.408204 0,-6.143762 -8.8e-4,-9.877017 0.23242,-16.720703 0.0778,-3.344073 -0.0787,-3.888672 3.6543,-3.888671 4.58838,0 7.31162,1.711341 8.40039,6.921874 l 0.4668,1.865235 0.23242,0 c 2.48861,0 4.04405,-0.310911 5.98828,-1.244141 l 0.23437,-0.07813 -0.0781,-0.232422 c -0.54439,-3.65515 -1.0902,-8.32195 -1.16797,-12.521484 0,-1.244307 -1.00978,-2.644531 -2.7207,-2.644531 l -0.0781,0 c -2.48861,0.233308 -12.05509,0.855468 -17.26562,0.855468 l -6.6875,0 c -4.74392,0 -14.6989,-0.544391 -18.04297,-0.855468 z m -42.71485,0.07813 c -2.17754,0 -7.4654,0.777343 -10.57617,0.777343 -3.73292,0 -6.37806,-0.310902 -10.88867,-0.388671 l -0.15625,0 -0.1543,0.15625 c -1.55538,1.633152 -2.41084,3.887984 0,6.298828 l 0.0781,0.15625 0.15429,0 c 3.73292,0.233307 5.2113,0.933104 5.28907,5.521484 0.0778,6.221532 0.15625,9.177086 0.15625,15.865235 0,6.377071 -0.0785,8.787885 -0.15625,15.787109 -0.0778,4.977226 -0.46737,4.976744 -5.28907,5.443359 l -0.15429,0 -0.0781,0.07813 c -1.71092,1.710922 -2.33274,4.044234 0.0781,6.455078 l 0.0762,0.07617 0.15625,0 c 3.96623,-0.07777 6.60977,-0.464843 10.96484,-0.464843 4.19954,0 7.23424,0.387074 11.90039,0.464843 l 0.1543,0 0.0781,-0.07617 c 1.71092,-1.710921 2.48893,-4.044234 0.0781,-6.455078 l -0.0781,-0.07813 -0.0781,0 c -5.36607,-0.233308 -6.37695,-0.699069 -6.37695,-3.654297 -0.0778,-4.510612 -0.15625,-7.856046 -0.15625,-12.677734 0.85546,0.07777 2.1781,0.15625 3.9668,0.15625 l 1.55664,0 c 0.23331,0.466615 0.5428,1.010303 0.93164,1.554687 l 8.32226,13.533204 c 2.17754,3.577381 5.83316,8.009765 12.05469,8.009765 1.32208,0 4.04299,-0.234384 5.75391,-1.089843 l 0.0781,0 0.0781,-0.154297 c 0.93323,-1.866459 0.70009,-2.878748 -0.38868,-4.978516 l -0.0781,-0.232422 -0.15625,0 c -3.42184,0 -5.13284,-0.466836 -7.69922,-4.744141 l -8.47656,-14.853515 c 5.91045,-3.577381 8.63281,-9.643338 8.63281,-14.931641 0,-5.366072 -3.57722,-15.554687 -19.59766,-15.554687 z m 42.63868,0.544922 c 3.42184,0.311076 13.37522,0.855468 18.11914,0.855468 l 6.6875,0 c 5.21053,0 14.85514,-0.622161 17.34375,-0.855468 1.32208,-0.07777 2.09961,1.166023 2.09961,2.021484 0.0778,4.199534 0.62162,8.787852 1.16601,12.365234 -1.86646,0.85546 -3.18734,1.089844 -5.28711,1.089844 l -0.3125,-1.400391 c -1.16654,-5.44384 -4.19979,-7.388671 -9.02148,-7.388671 -3.96622,0 -4.19958,1.012106 -4.27735,4.511718 -0.23331,6.843686 -0.23242,10.57694 -0.23242,16.720703 0,6.688148 -8.9e-4,10.264441 0.23242,16.408204 0.15554,4.510611 1.24491,5.131927 6.53321,5.365234 2.022,2.099767 1.32175,3.889574 -0.0781,5.367188 l -0.77734,-0.07813 c -4.19954,-0.07777 -6.84396,-0.388671 -10.73242,-0.388671 -4.74391,0 -7.69784,0.389027 -11.66407,0.466797 -1.94423,-2.099767 -1.39984,-3.889574 0,-5.367188 5.13277,-0.233307 6.29794,-1.010161 6.53125,-5.365234 0.23331,-6.921455 0.23438,-10.187026 0.23438,-16.486328 0,-6.688148 -0.0789,-10.498815 -0.23438,-16.642579 -0.15554,-4.121765 -2.25533,-4.511718 -3.42187,-4.511718 l -3.0332,0 c -4.51061,0 -7.23261,2.333146 -8.55469,7.699218 l -0.31055,1.322266 c -2.79969,0 -3.88761,-0.465738 -5.36523,-1.087891 l 0.31054,-1.478515 c 0.93323,-3.888458 1.63228,-8.166222 1.94336,-11.199219 0.15554,-0.466615 0.39065,-1.86559 2.10157,-1.943359 z m -42.63868,0.07813 c 15.70937,0 18.97461,9.876645 18.97461,14.93164 0,5.288303 -2.6437,11.353192 -8.86523,14.697266 l 0.31055,0.544922 8.47851,14.853515 c 2.56638,4.277304 4.58792,5.054688 8.00977,5.054688 1.01099,2.021998 1.08823,2.644191 0.31054,4.277344 -1.63315,0.777691 -4.12092,0.933593 -5.36523,0.933593 -5.83269,0 -9.33259,-4.199962 -11.58789,-7.777343 l -8.32227,-13.53125 c -0.23331,-0.466615 -1.08789,-1.867188 -1.08789,-1.867188 -0.69992,0.07777 -1.0895,0.07813 -1.86718,0.07813 -1.94424,0 -3.26635,-0.07688 -4.27735,-0.232422 l -0.31055,0 0,0.310547 c 0,4.899457 0.0785,8.400256 0.15625,13.066406 0,3.421842 1.78876,4.042084 6.84375,4.275391 2.022,2.099767 1.32176,3.889573 -0.0781,5.367188 -4.51061,-0.155539 -7.62273,-0.466797 -11.82227,-0.466797 -4.35507,0 -6.99825,0.389028 -10.88671,0.466797 -1.94424,-2.099767 -1.47763,-3.889574 0,-5.367188 4.89945,-0.466615 5.59836,-0.931689 5.7539,-6.064453 0.0778,-6.999224 0.15625,-9.410039 0.15625,-15.787109 0,-6.688148 -0.0785,-9.643703 -0.15625,-15.865235 -0.0778,-4.899457 -1.94322,-5.833454 -5.7539,-6.144531 -2.09977,-2.099767 -1.32208,-3.887621 0,-5.365234 4.5106,0.155537 7.07762,0.388671 10.81054,0.388671 3.18854,0 8.4764,-0.777343 10.57617,-0.777343 z m -60.21875,1.554687 c -1.16654,0.699922 -2.0222,1.554688 -3.0332,1.554688 l -18.04102,42.46289 c -1.94423,4.743919 -4.3555,5.520598 -7.77734,5.753907 -0.46662,0.466615 -0.46662,1.322447 0,1.789062 2.87746,-0.07777 4.66623,-0.388672 7.69922,-0.388672 3.18854,0 5.52098,0.310903 8.39844,0.388672 0.46662,-0.466615 0.46662,-1.322447 0,-1.789062 -2.87746,-0.15554 -6.60955,-0.69854 -5.36524,-3.964844 l 4.66602,-12.054688 c 0.38885,-1.010999 0.85619,-1.710937 2.72266,-1.710937 l 16.25195,0 4.90039,14.310547 c 1.16654,3.188535 -2.02294,3.186614 -5.75586,3.419922 -0.46661,0.466615 -0.46661,1.322447 0,1.789062 2.87746,-0.07777 7.15646,-0.388672 10.18945,-0.388672 3.18854,0 5.52098,0.310903 8.39844,0.388672 0.46662,-0.466615 0.46662,-1.322447 0,-1.789062 -2.95522,-0.233308 -5.60016,-0.543539 -7,-4.509766 L 447.40234,18.408203 Z m 102.85743,0.15625 c -0.15554,0 -0.3125,0.154653 -0.3125,0.232422 -0.31108,3.499612 -1.0879,7.776846 -1.94336,11.509766 0.77769,0.311077 0.932,0.388672 1.86523,0.388671 1.55538,-6.221533 5.13287,-9.021484 10.26563,-9.021484 l 4.58984,0 c 2.87746,0 3.49876,1.478738 3.6543,6.222656 0.15554,6.45484 0.23437,10.265863 0.23437,16.720704 0,6.454839 -0.0789,10.031488 -0.23437,16.486328 -0.15554,6.45484 -2.09913,6.842863 -7.54297,7.076172 -0.46661,0.466615 -0.46661,1.322447 0,1.789062 3.81069,-0.07777 6.60942,-0.388672 10.88672,-0.388672 4.19954,0 6.92208,0.310903 10.81054,0.388672 0.46661,-0.466615 0.46661,-1.322448 0,-1.789062 -5.44384,-0.233308 -7.38743,-0.621332 -7.54297,-7.076172 -0.15554,-6.377071 -0.23437,-9.953364 -0.23437,-16.408204 0,-6.454839 0.001,-10.18845 0.23437,-16.798828 0.15554,-4.977226 0.77649,-6.222656 3.57618,-6.222656 l 2.48828,0 c 5.83269,0 9.48846,2.800838 10.81054,8.789063 0.85546,0 1.16726,-0.0776 1.86719,-0.388672 -0.54439,-3.577382 -0.93395,-7.777732 -1.01172,-11.277344 0,-0.07777 -0.15465,-0.232422 -0.23242,-0.232422 -2.64415,0.233308 -11.27811,0.855469 -17.42187,0.855469 l -6.6875,0 c -5.98822,0 -15.16391,-0.622161 -18.11914,-0.855469 z m -42.63868,0.07813 c -2.022,0 -7.4654,0.777344 -10.57617,0.777344 -3.96623,0 -6.14474,-0.310903 -10.0332,-0.388672 -0.46661,0.466615 -0.46661,1.320494 0,1.787109 5.44384,0.233307 6.61008,0.701054 6.76562,7.078125 0.0778,6.45484 0.15625,10.265863 0.15625,16.720704 0,6.454839 -0.0785,10.031488 -0.15625,16.486328 -0.15554,6.53261 -1.32178,6.842863 -6.76562,7.076172 -0.46661,0.466615 -0.46661,1.322447 0,1.789062 3.81069,-0.07777 6.14314,-0.388672 10.10937,-0.388672 4.2773,0 7.23264,0.310903 11.1211,0.388672 0.46662,-0.466615 0.46662,-1.322448 0,-1.789062 -5.36607,-0.233308 -7.77576,-0.698374 -7.85352,-5.208985 -0.15554,-5.754918 -0.15625,-10.733008 -0.15625,-16.410156 1.63315,0.544384 3.7328,0.699219 6.37696,0.699219 2.56637,0 3.42294,0.933609 4.51171,2.644531 l 8.32032,13.533203 c 2.2553,3.65515 5.36705,6.919922 10.0332,6.919922 1.16654,0 3.26528,-0.154123 4.04297,-0.542969 0.31107,-0.466615 0.23297,-0.467691 -0.0781,-1.089844 -3.49961,0 -6.45456,-2.566438 -8.47656,-5.988281 l -9.7207,-16.875 c 7.23254,-2.799689 9.5664,-9.021177 9.5664,-14.076172 0,-4.58838 -2.80021,-13.142578 -17.1875,-13.142578 z m -0.54492,1.865234 c 5.36608,0 10.96485,2.799099 10.96485,12.675782 0,8.399069 -4.27671,12.210937 -11.82032,12.210937 -1.86646,0 -4.97728,-0.07724 -5.98828,-0.310547 l 0,-0.466796 c 0,-6.45484 7.1e-4,-13.922114 0.15625,-20.376954 0.0778,-2.177537 1.08812,-3.732421 6.6875,-3.732422 z m 0,1.789063 c -4.43284,0 -4.89844,1.010485 -4.89844,2.021484 -0.15554,6.377071 -0.15625,13.065751 -0.15625,18.898438 l 0,0.232422 0.23243,0.07813 c 1.63315,0.07777 3.11133,0.07813 3.96679,0.07813 6.92146,0 10.03321,-3.111574 10.03321,-10.421875 0,-9.176761 -4.90043,-10.886719 -9.17774,-10.886719 z m 0,0.623047 c 4.12177,0 8.55469,1.397988 8.55469,10.263672 0,7.076993 -2.79978,9.800781 -9.41016,9.800781 -0.85546,0 -2.02274,-3.55e-4 -3.57812,-0.07813 0,-5.599379 7.1e-4,-12.366359 0.15625,-18.587891 0,-0.466615 -0.1555,-1.398437 4.27734,-1.398437 z m -62.7832,3.498047 0.23242,0 7.4668,21.542969 -13.92188,0 c -1.71093,0 -2.25444,-0.6227 -1.94336,-1.400391 l 8.16602,-20.142578 z m 0,4.822265 -6.06641,14.931641 11.27539,0 -5.20898,-14.931641 z m 0,1.710938 4.35351,12.599609 -9.48632,0 5.13281,-12.599609 z"
         id="path5373"
         style="font-style:normal;font-variant:normal;font-weight:normal;font-stretch:normal;font-family:'Linux Libertine Initials O';-inkscape-font-specification:'Linux Libertine Initials O';fill:#7f7f7f;fill-opacity:1"
         inkscape:original="M 448.72461 14.830078 L 448.41406 15.064453 C 447.5586 15.531068 445.14843 17.241658 444.29297 17.552734 L 442.81445 17.552734 L 424.15039 61.492188 C 422.43947 65.613952 421.42823 65.614348 417.69531 65.847656 L 417.53906 65.847656 L 417.46289 65.925781 C 415.75197 67.636703 415.12818 69.970015 417.53906 72.380859 L 417.61719 72.457031 L 417.77344 72.457031 C 420.8842 72.379261 422.9837 71.992188 426.25 71.992188 C 429.36077 71.992188 431.92653 72.379262 435.50391 72.457031 L 435.66016 72.457031 L 435.73828 72.380859 C 437.37143 70.747707 438.30499 68.414394 435.81641 65.925781 L 435.73828 65.847656 L 435.66016 65.847656 C 432.86047 65.692118 431.84996 65.770053 431.92773 64.603516 C 431.92773 64.370209 432.00536 63.980461 432.31641 63.125 L 436.20508 53.09375 C 436.28288 53.01598 436.28125 52.9375 436.28125 52.9375 C 436.35905 52.85973 435.97196 52.859375 436.67188 52.859375 L 451.21289 52.859375 L 454.24609 62.193359 C 454.94601 64.370895 455.0236 65.224436 453.7793 65.613281 C 453.23491 65.846589 452.53657 65.926137 451.13672 66.003906 L 451.05859 66.003906 L 450.98047 66.080078 C 449.19178 67.868769 448.72548 70.047784 451.05859 72.380859 L 451.13672 72.457031 L 451.29102 72.457031 C 454.32402 72.379261 458.7582 71.992188 462.25781 71.992188 C 465.36858 71.992188 467.85657 72.301493 471.51172 72.457031 L 471.66797 72.457031 L 471.74414 72.380859 C 473.37729 70.747707 474.23308 68.41475 471.82227 66.003906 L 471.74414 65.925781 L 471.66797 65.847656 C 468.40167 65.614348 467.079 66.003344 465.99023 62.892578 L 448.72461 14.830078 z M 448.41406 15.763672 L 465.36719 63.125 C 466.53373 66.469074 468.47873 66.235443 471.51172 66.46875 C 473.53372 68.646287 472.7557 70.436093 471.43359 71.835938 C 467.85621 71.680399 465.36858 71.369141 462.25781 71.369141 C 458.7582 71.369141 454.2466 71.758168 451.36914 71.835938 C 449.42491 69.736171 449.89121 68.102613 451.29102 66.625 C 452.76864 66.54723 453.39117 66.469635 453.93555 66.236328 C 455.80201 65.614174 455.49094 64.136876 454.79102 62.037109 L 451.67969 52.238281 L 436.66992 52.238281 C 435.73669 52.238281 435.73793 52.626067 435.66016 52.859375 L 431.77148 62.892578 C 431.46041 63.748039 431.38246 64.214671 431.30469 64.603516 C 431.14915 66.469976 433.17084 66.313212 435.50391 66.46875 C 437.52591 68.646287 436.74789 70.358324 435.42578 71.835938 C 431.8484 71.680399 429.36077 71.369141 426.25 71.369141 C 422.90593 71.369141 420.80678 71.758168 417.85156 71.835938 C 415.82956 69.736171 416.45139 67.946364 417.77344 66.46875 C 421.58412 66.235443 422.90662 65.926096 424.69531 61.726562 L 443.20312 18.175781 L 444.44727 18.175781 C 445.30273 17.864705 447.48083 16.385825 448.41406 15.763672 z M 550.33594 16.152344 C 547.84732 16.152344 547.69265 18.330078 547.53711 18.330078 L 547.53711 18.642578 C 547.22603 21.675576 546.52503 25.873617 545.5918 29.839844 L 545.20312 31.785156 L 545.4375 31.939453 C 547.07065 32.561607 548.39315 33.107422 551.50391 33.107422 L 551.73633 33.107422 L 552.20312 31.318359 C 553.44742 26.107825 555.85747 24.085938 560.13477 24.085938 L 563.16797 24.085938 C 564.1012 24.085938 565.81321 24.163921 565.96875 27.974609 C 566.12429 34.118373 566.20117 37.929039 566.20117 44.617188 C 566.20117 50.916489 566.20205 54.182061 565.96875 61.103516 C 565.81321 65.225282 564.95734 65.614348 559.90234 65.847656 L 559.74609 65.847656 L 559.66797 65.925781 C 557.95704 67.636703 557.41298 69.970015 559.74609 72.380859 L 559.82422 72.457031 L 559.98047 72.457031 C 564.10224 72.379261 566.97875 71.992188 571.72266 71.992188 C 575.53335 71.992188 578.17778 72.30309 582.45508 72.380859 L 583.4668 72.457031 L 583.54492 72.380859 C 585.25584 70.669938 586.0319 68.336625 583.62109 65.925781 L 583.54492 65.847656 L 583.38867 65.847656 C 578.10037 65.614348 577.55593 65.38082 577.40039 61.103516 C 577.16709 54.881984 577.16797 51.46123 577.16797 44.695312 C 577.16797 38.55155 577.16709 34.818295 577.40039 27.974609 C 577.47819 24.630536 577.32174 24.085937 581.05469 24.085938 C 585.64307 24.085938 588.36631 25.797279 589.45508 31.007812 L 589.92188 32.873047 L 590.1543 32.873047 C 592.64291 32.873047 594.19835 32.562136 596.14258 31.628906 L 596.37695 31.550781 L 596.29883 31.318359 C 595.75444 27.663209 595.20863 22.996409 595.13086 18.796875 C 595.13086 17.552568 594.12108 16.152344 592.41016 16.152344 L 592.33203 16.152344 C 589.84342 16.385652 580.27694 17.007812 575.06641 17.007812 L 568.37891 17.007812 C 563.63499 17.007812 553.68001 16.463421 550.33594 16.152344 z M 507.62109 16.230469 C 505.44355 16.230469 500.15569 17.007812 497.04492 17.007812 C 493.312 17.007812 490.66686 16.69691 486.15625 16.619141 L 486 16.619141 L 485.8457 16.775391 C 484.29032 18.408543 483.43486 20.663375 485.8457 23.074219 L 485.92383 23.230469 L 486.07812 23.230469 C 489.81104 23.463776 491.28942 24.163573 491.36719 28.751953 C 491.44499 34.973485 491.52344 37.929039 491.52344 44.617188 C 491.52344 50.994259 491.44493 53.405073 491.36719 60.404297 C 491.28939 65.381523 490.89982 65.381041 486.07812 65.847656 L 485.92383 65.847656 L 485.8457 65.925781 C 484.13478 67.636703 483.51296 69.970015 485.92383 72.380859 L 486 72.457031 L 486.15625 72.457031 C 490.12248 72.379261 492.76602 71.992188 497.12109 71.992188 C 501.32063 71.992188 504.35533 72.379262 509.02148 72.457031 L 509.17578 72.457031 L 509.25391 72.380859 C 510.96483 70.669938 511.74284 68.336625 509.33203 65.925781 L 509.25391 65.847656 L 509.17578 65.847656 C 503.80971 65.614348 502.79883 65.148587 502.79883 62.193359 C 502.72103 57.682747 502.64258 54.337313 502.64258 49.515625 C 503.49804 49.593395 504.82068 49.671875 506.60938 49.671875 L 508.16602 49.671875 C 508.39933 50.13849 508.70882 50.682178 509.09766 51.226562 L 517.41992 64.759766 C 519.59746 68.337147 523.25308 72.769531 529.47461 72.769531 C 530.79669 72.769531 533.5176 72.535147 535.22852 71.679688 L 535.30664 71.679688 L 535.38477 71.525391 C 536.318 69.658932 536.08486 68.646643 534.99609 66.546875 L 534.91797 66.314453 L 534.76172 66.314453 C 531.33988 66.314453 529.62888 65.847617 527.0625 61.570312 L 518.58594 46.716797 C 524.49639 43.139416 527.21875 37.073459 527.21875 31.785156 C 527.21875 26.419084 523.64153 16.230469 507.62109 16.230469 z M 550.25977 16.775391 C 553.68161 17.086467 563.63499 17.630859 568.37891 17.630859 L 575.06641 17.630859 C 580.27694 17.630859 589.92155 17.008698 592.41016 16.775391 C 593.73224 16.697621 594.50977 17.941414 594.50977 18.796875 C 594.58757 22.996409 595.13139 27.584727 595.67578 31.162109 C 593.80932 32.017569 592.48844 32.251953 590.38867 32.251953 L 590.07617 30.851562 C 588.90963 25.407722 585.87638 23.462891 581.05469 23.462891 C 577.08847 23.462891 576.85511 24.474997 576.77734 27.974609 C 576.54403 34.818295 576.54492 38.551549 576.54492 44.695312 C 576.54492 51.38346 576.54403 54.959753 576.77734 61.103516 C 576.93288 65.614127 578.02225 66.235443 583.31055 66.46875 C 585.33255 68.568517 584.6323 70.358324 583.23242 71.835938 L 582.45508 71.757812 C 578.25554 71.680042 575.61112 71.369141 571.72266 71.369141 C 566.97875 71.369141 564.02482 71.758168 560.05859 71.835938 C 558.11436 69.736171 558.65875 67.946364 560.05859 66.46875 C 565.19136 66.235443 566.35653 65.458589 566.58984 61.103516 C 566.82315 54.182061 566.82422 50.91649 566.82422 44.617188 C 566.82422 37.92904 566.74535 34.118373 566.58984 27.974609 C 566.4343 23.852844 564.33451 23.462891 563.16797 23.462891 L 560.13477 23.462891 C 555.62416 23.462891 552.90216 25.796037 551.58008 31.162109 L 551.26953 32.484375 C 548.46984 32.484375 547.38192 32.018637 545.9043 31.396484 L 546.21484 29.917969 C 547.14807 26.029511 547.84712 21.751747 548.1582 18.71875 C 548.31374 18.252135 548.54885 16.85316 550.25977 16.775391 z M 507.62109 16.853516 C 523.33046 16.853516 526.5957 26.730161 526.5957 31.785156 C 526.5957 37.073459 523.952 43.138348 517.73047 46.482422 L 518.04102 47.027344 L 526.51953 61.880859 C 529.08591 66.158163 531.10745 66.935547 534.5293 66.935547 C 535.54029 68.957545 535.61753 69.579738 534.83984 71.212891 C 533.20669 71.990582 530.71892 72.146484 529.47461 72.146484 C 523.64192 72.146484 520.14202 67.946522 517.88672 64.369141 L 509.56445 50.837891 C 509.33114 50.371276 508.47656 48.970703 508.47656 48.970703 C 507.77664 49.048473 507.38706 49.048828 506.60938 49.048828 C 504.66514 49.048828 503.34303 48.971944 502.33203 48.816406 L 502.02148 48.816406 L 502.02148 49.126953 C 502.02148 54.02641 502.09999 57.527209 502.17773 62.193359 C 502.17773 65.615201 503.96649 66.235443 509.02148 66.46875 C 511.04348 68.568517 510.34324 70.358323 508.94336 71.835938 C 504.43275 71.680399 501.32063 71.369141 497.12109 71.369141 C 492.76602 71.369141 490.12284 71.758169 486.23438 71.835938 C 484.29014 69.736171 484.75675 67.946364 486.23438 66.46875 C 491.13383 66.002135 491.83274 65.537061 491.98828 60.404297 C 492.06608 53.405073 492.14453 50.994258 492.14453 44.617188 C 492.14453 37.92904 492.06601 34.973485 491.98828 28.751953 C 491.91048 23.852496 490.04506 22.918499 486.23438 22.607422 C 484.13461 20.507655 484.9123 18.719801 486.23438 17.242188 C 490.74498 17.397725 493.312 17.630859 497.04492 17.630859 C 500.23346 17.630859 505.52132 16.853516 507.62109 16.853516 z M 447.40234 18.408203 C 446.2358 19.108125 445.38014 19.962891 444.36914 19.962891 L 426.32812 62.425781 C 424.38389 67.1697 421.97262 67.946379 418.55078 68.179688 C 418.08416 68.646303 418.08416 69.502135 418.55078 69.96875 C 421.42824 69.89098 423.21701 69.580078 426.25 69.580078 C 429.43854 69.580078 431.77098 69.890981 434.64844 69.96875 C 435.11506 69.502135 435.11506 68.646303 434.64844 68.179688 C 431.77098 68.024148 428.03889 67.481148 429.2832 64.214844 L 433.94922 52.160156 C 434.33807 51.149157 434.80541 50.449219 436.67188 50.449219 L 452.92383 50.449219 L 457.82422 64.759766 C 458.99076 67.948301 455.80128 67.94638 452.06836 68.179688 C 451.60175 68.646303 451.60175 69.502135 452.06836 69.96875 C 454.94582 69.89098 459.22482 69.580078 462.25781 69.580078 C 465.44635 69.580078 467.77879 69.890981 470.65625 69.96875 C 471.12287 69.502135 471.12287 68.646303 470.65625 68.179688 C 467.70103 67.94638 465.05609 67.636149 463.65625 63.669922 L 447.40234 18.408203 z M 550.25977 18.564453 C 550.10423 18.564453 549.94727 18.719106 549.94727 18.796875 C 549.63619 22.296487 548.85937 26.573721 548.00391 30.306641 C 548.7816 30.617718 548.93591 30.695313 549.86914 30.695312 C 551.42452 24.473779 555.00201 21.673828 560.13477 21.673828 L 564.72461 21.673828 C 567.60207 21.673828 568.22337 23.152566 568.37891 27.896484 C 568.53445 34.351324 568.61328 38.162347 568.61328 44.617188 C 568.61328 51.072027 568.53442 54.648676 568.37891 61.103516 C 568.22337 67.558356 566.27978 67.946379 560.83594 68.179688 C 560.36933 68.646303 560.36933 69.502135 560.83594 69.96875 C 564.64663 69.89098 567.44536 69.580078 571.72266 69.580078 C 575.9222 69.580078 578.64474 69.890981 582.5332 69.96875 C 582.99981 69.502135 582.99981 68.646302 582.5332 68.179688 C 577.08936 67.94638 575.14577 67.558356 574.99023 61.103516 C 574.83469 54.726445 574.75586 51.150152 574.75586 44.695312 C 574.75586 38.240473 574.75692 34.506862 574.99023 27.896484 C 575.14577 22.919258 575.76672 21.673828 578.56641 21.673828 L 581.05469 21.673828 C 586.88738 21.673828 590.54315 24.474666 591.86523 30.462891 C 592.72069 30.462891 593.03249 30.385294 593.73242 30.074219 C 593.18803 26.496837 592.79847 22.296487 592.7207 18.796875 C 592.7207 18.719105 592.56605 18.564453 592.48828 18.564453 C 589.84413 18.797761 581.21017 19.419922 575.06641 19.419922 L 568.37891 19.419922 C 562.39069 19.419922 553.215 18.797761 550.25977 18.564453 z M 507.62109 18.642578 C 505.59909 18.642578 500.15569 19.419922 497.04492 19.419922 C 493.07869 19.419922 490.90018 19.109019 487.01172 19.03125 C 486.54511 19.497865 486.54511 20.351744 487.01172 20.818359 C 492.45556 21.051666 493.6218 21.519413 493.77734 27.896484 C 493.85514 34.351324 493.93359 38.162347 493.93359 44.617188 C 493.93359 51.072027 493.85508 54.648676 493.77734 61.103516 C 493.6218 67.636126 492.45556 67.946379 487.01172 68.179688 C 486.54511 68.646303 486.54511 69.502135 487.01172 69.96875 C 490.82241 69.89098 493.15486 69.580078 497.12109 69.580078 C 501.39839 69.580078 504.35373 69.890981 508.24219 69.96875 C 508.70881 69.502135 508.70881 68.646302 508.24219 68.179688 C 502.87612 67.94638 500.46643 67.481314 500.38867 62.970703 C 500.23313 57.215785 500.23242 52.237695 500.23242 46.560547 C 501.86557 47.104931 503.96522 47.259766 506.60938 47.259766 C 509.17575 47.259766 510.03232 48.193375 511.12109 49.904297 L 519.44141 63.4375 C 521.69671 67.09265 524.80846 70.357422 529.47461 70.357422 C 530.64115 70.357422 532.73989 70.203299 533.51758 69.814453 C 533.82865 69.347838 533.75055 69.346762 533.43945 68.724609 C 529.93984 68.724609 526.98489 66.158171 524.96289 62.736328 L 515.24219 45.861328 C 522.47473 43.061639 524.80859 36.840151 524.80859 31.785156 C 524.80859 27.196776 522.00838 18.642578 507.62109 18.642578 z M 507.07617 20.507812 C 512.44225 20.507812 518.04102 23.306911 518.04102 33.183594 C 518.04102 41.582663 513.76431 45.394531 506.2207 45.394531 C 504.35424 45.394531 501.24342 45.317291 500.23242 45.083984 L 500.23242 44.617188 C 500.23242 38.162348 500.23313 30.695074 500.38867 24.240234 C 500.46647 22.062697 501.47679 20.507813 507.07617 20.507812 z M 507.07617 22.296875 C 502.64333 22.296875 502.17773 23.30736 502.17773 24.318359 C 502.02219 30.69543 502.02148 37.38411 502.02148 43.216797 L 502.02148 43.449219 L 502.25391 43.527344 C 503.88706 43.605114 505.36524 43.605469 506.2207 43.605469 C 513.14216 43.605469 516.25391 40.493895 516.25391 33.183594 C 516.25391 24.006833 511.35348 22.296875 507.07617 22.296875 z M 507.07617 22.919922 C 511.19794 22.919922 515.63086 24.31791 515.63086 33.183594 C 515.63086 40.260587 512.83108 42.984375 506.2207 42.984375 C 505.36524 42.984375 504.19796 42.98402 502.64258 42.90625 C 502.64258 37.306871 502.64329 30.539891 502.79883 24.318359 C 502.79883 23.851744 502.64333 22.919922 507.07617 22.919922 z M 444.29297 26.417969 L 444.52539 26.417969 L 451.99219 47.960938 L 438.07031 47.960938 C 436.35938 47.960938 435.81587 47.338238 436.12695 46.560547 L 444.29297 26.417969 z M 444.29297 31.240234 L 438.22656 46.171875 L 449.50195 46.171875 L 444.29297 31.240234 z M 444.29297 32.951172 L 448.64648 45.550781 L 439.16016 45.550781 L 444.29297 32.951172 z "
         inkscape:radius="0"
         sodipodi:type="inkscape:offset" />
    </g>
    <rect
       style="opacity:1;fill:none;fill-opacity:1;stroke:url(#linearGradient4785-218);stroke-width:2.63635683;stroke-linecap:round;stroke-linejoin:round;stroke-miterlimit:4;stroke-dasharray:none;stroke-dashoffset:0;stroke-opacity:1"
       id="rect4257"
       width="175.75713"
       height="175.75713"
       x="-414.81802"
       y="-476.76059"
       transform="matrix(-0.70710678,0.70710678,-0.70710678,-0.70710678,0,0)" />
  </g>
</svg>
