<?xml version="1.0" encoding="UTF-8" standalone="no"?>
<!-- Created with Inkscape (http://www.inkscape.org/) -->

<svg
   xmlns:dc="http://purl.org/dc/elements/1.1/"
   xmlns:cc="http://creativecommons.org/ns#"
   xmlns:rdf="http://www.w3.org/1999/02/22-rdf-syntax-ns#"
   xmlns:svg="http://www.w3.org/2000/svg"
   xmlns="http://www.w3.org/2000/svg"
   xmlns:xlink="http://www.w3.org/1999/xlink"
   xmlns:sodipodi="http://sodipodi.sourceforge.net/DTD/sodipodi-0.dtd"
   xmlns:inkscape="http://www.inkscape.org/namespaces/inkscape"
   width="79.824509mm"
   height="101.83784mm"
   viewBox="0 0 282.84275 360.84274"
   id="svg2"
   version="1.1"
   inkscape:version="0.91 r13725"
   sodipodi:docname="CV_Icon.svg">
  <defs
     id="defs4">
    <linearGradient
       inkscape:collect="always"
       id="linearGradient6048">
      <stop
         style="stop-color:#37b9d9;stop-opacity:1"
         offset="0"
         id="stop6050" />
      <stop
         style="stop-color:#75b153;stop-opacity:1"
         offset="1"
         id="stop6052" />
    </linearGradient>
    <linearGradient
       inkscape:collect="always"
       xlink:href="#linearGradient6048"
       id="linearGradient6054"
       x1="441.59588"
       y1="121.88491"
       x2="569.40607"
       y2="121.88491"
       gradientUnits="userSpaceOnUse" />
    <linearGradient
       inkscape:collect="always"
       xlink:href="#linearGradient6048"
       id="linearGradient4151"
       gradientUnits="userSpaceOnUse"
       x1="441.59588"
       y1="121.88491"
       x2="569.40607"
       y2="121.88491" />
  </defs>
  <sodipodi:namedview
     id="base"
     pagecolor="#ffffff"
     bordercolor="#666666"
     borderopacity="1.0"
     inkscape:pageopacity="0.0"
     inkscape:pageshadow="2"
     inkscape:zoom="3.9073726"
     inkscape:cx="84.989598"
     inkscape:cy="141.42135"
     inkscape:document-units="px"
     inkscape:current-layer="layer1"
     showgrid="false"
     inkscape:window-width="1364"
     inkscape:window-height="720"
     inkscape:window-x="0"
     inkscape:window-y="18"
     inkscape:window-maximized="1"
     fit-margin-top="0"
     fit-margin-left="0"
     fit-margin-right="0"
     fit-margin-bottom="0" />
  <metadata
     id="metadata7">
    <rdf:RDF>
      <cc:Work
         rdf:about="">
        <dc:format>image/svg+xml</dc:format>
        <dc:type
           rdf:resource="http://purl.org/dc/dcmitype/StillImage" />
        <dc:title />
      </cc:Work>
    </rdf:RDF>
  </metadata>
  <g
     inkscape:label="Calque 1"
     inkscape:groupmode="layer"
     id="layer1"
     transform="translate(-364.74086,97.621348)">
    <flowRoot
       xml:space="preserve"
       id="flowRoot4178"
       style="font-style:normal;font-weight:normal;font-size:40px;line-height:125%;font-family:sans-serif;text-align:center;letter-spacing:0px;word-spacing:0px;writing-mode:tb-rl;text-anchor:middle;fill:#000000;fill-opacity:1;stroke:none;stroke-width:1px;stroke-linecap:butt;stroke-linejoin:miter;stroke-opacity:1"><flowRegion
         id="flowRegion4180"><rect
           id="rect4182"
           width="147.67026"
           height="76.702507"
           x="247.31183"
           y="225.83891" /></flowRegion><flowPara
         id="flowPara4184" /></flowRoot>    <rect
       style="opacity:1;fill:#000000;fill-opacity:1;stroke:none;stroke-width:3;stroke-linecap:round;stroke-linejoin:round;stroke-miterlimit:4;stroke-dasharray:none;stroke-dashoffset:0;stroke-opacity:1"
       id="rect4255"
       width="200"
       height="200"
       x="-371.78513"
       y="-544.03638"
       transform="matrix(-0.70710678,0.70710678,-0.70710678,-0.70710678,0,0)" />
    <g
       style="font-style:normal;font-weight:normal;font-size:84.88420105px;line-height:125%;font-family:sans-serif;text-align:center;letter-spacing:0px;word-spacing:0px;writing-mode:lr-tb;text-anchor:middle;fill:url(#linearGradient6054);fill-opacity:1;stroke:none;stroke-width:1px;stroke-linecap:butt;stroke-linejoin:miter;stroke-opacity:1"
       id="text4186">
      <path
         sodipodi:type="inkscape:offset"
         inkscape:radius="0"
         inkscape:original="M 471.13477 90.816406 C 462.56147 90.816406 456.53611 93.788707 451.10352 98.796875 C 444.99186 104.31435 441.5957 112.80277 441.5957 122.56445 C 441.5957 136.99477 450.76345 152.7832 471.05078 152.7832 C 480.64269 152.7832 488.87708 147.85935 495.49805 139.20117 L 495.66797 139.03125 L 495.49805 138.86133 C 494.47944 136.90899 493.71507 134.78711 489.64062 134.78711 L 489.4707 134.78711 L 489.38477 134.95703 C 483.69752 141.15357 478.51954 144.88867 470.96484 144.88867 C 460.35432 144.88867 453.98828 133.25938 453.98828 120.95117 C 453.98828 114.41509 455.51613 108.38771 458.23242 105.16211 C 461.45802 101.17255 465.78766 98.371094 470.71094 98.371094 C 480.64239 98.371094 484.97165 104.56789 487.09375 111.61328 L 487.51758 112.97266 L 487.60352 112.97266 C 490.31981 113.90638 492.3561 112.97279 494.13867 112.03906 L 494.30859 111.95312 L 494.30859 111.69922 C 493.79928 106.26664 492.9513 101.08838 492.01758 95.146484 L 491.93164 94.892578 L 489.98047 94.722656 C 487.00953 94.383119 482.50926 90.816406 471.13477 90.816406 z M 471.13477 91.496094 C 482.42437 91.496094 486.58405 95.060854 489.89453 95.400391 L 491.33789 95.486328 C 492.27162 101.25846 493.12155 106.43534 493.63086 111.61328 C 491.84829 112.46212 490.23433 113.05602 488.02734 112.37695 L 487.77344 111.44336 C 485.56645 104.2282 480.98193 97.693359 470.71094 97.693359 C 465.533 97.693359 461.03404 100.66384 457.63867 104.73828 C 454.8375 108.21853 453.31055 114.3302 453.31055 120.95117 C 453.31055 133.42915 459.76013 145.56836 470.96484 145.56836 C 478.77419 145.56836 484.12226 141.66335 489.72461 135.4668 C 493.37463 135.5517 493.88464 137.24959 494.81836 138.94727 C 488.28228 147.43569 480.30316 152.10352 471.05078 152.10352 C 451.18788 152.10352 442.27539 136.74011 442.27539 122.56445 C 442.27539 112.97254 445.58545 104.6533 451.52734 99.220703 C 456.87505 94.297419 462.73124 91.496094 471.13477 91.496094 z M 509.47461 91.496094 L 509.30469 91.582031 C 507.52212 93.449483 506.75816 95.99449 509.30469 98.541016 L 509.39062 98.626953 L 509.56055 98.626953 C 513.80476 99.051374 514.05895 99.389697 516.60547 105.92578 L 533.32812 149.38672 C 533.75255 150.40533 534.77124 152.95312 537.74219 152.95312 C 540.03406 152.95312 541.47627 151.25417 542.24023 149.38672 L 559.72656 106.0957 C 561.50912 101.85149 562.6978 99.221143 567.62109 98.626953 L 567.70508 98.626953 L 567.79102 98.541016 C 569.74336 96.58868 570.16674 94.128557 567.70508 91.582031 L 567.62109 91.496094 L 567.45117 91.496094 C 564.31045 91.580974 560.91433 91.919922 559.04688 91.919922 C 557.51896 91.919922 553.19042 91.580978 548.86133 91.496094 L 548.77734 91.496094 L 548.60742 91.582031 C 546.82485 93.449483 545.89008 95.995543 548.52148 98.626953 L 548.60742 98.710938 L 548.77734 98.710938 C 551.83317 98.880706 552.68059 99.560871 552.5957 101.00391 C 552.5108 101.59809 552.34134 102.3624 551.83203 103.55078 L 540.0332 133.59961 L 528.49023 104.05859 C 527.13208 100.57833 527.21594 99.391218 528.4043 98.966797 C 528.82872 98.797029 529.50889 98.711838 530.69727 98.626953 L 530.78125 98.626953 L 530.86523 98.541016 C 532.81756 96.673564 533.2429 94.128557 530.78125 91.582031 L 530.69727 91.496094 L 530.52734 91.496094 C 526.53778 91.580974 522.8874 91.919922 519.32227 91.919922 C 516.35132 91.919922 514.22827 91.580978 509.64453 91.496094 L 509.47461 91.496094 z M 509.73047 92.175781 C 514.22933 92.34555 516.26643 92.599609 519.32227 92.599609 C 522.8874 92.599609 526.53763 92.260665 530.35742 92.175781 C 532.56441 94.467655 532.05526 96.41935 530.52734 97.947266 C 529.42385 98.032146 528.74458 98.116441 528.15039 98.371094 C 526.36782 99.050167 526.53638 101.00397 527.89453 104.31445 L 540.0332 135.4668 L 552.51172 103.80469 C 552.93614 102.61631 553.1905 101.76696 553.27539 101.08789 C 553.44515 99.050669 551.91822 98.287856 548.94727 98.033203 C 546.74028 95.656445 547.50332 93.703697 549.03125 92.175781 C 553.44522 92.260661 557.43408 92.599609 559.04688 92.599609 C 560.91432 92.599609 564.39519 92.260665 567.28125 92.175781 C 569.48824 94.467655 568.97908 96.334466 567.45117 97.947266 C 562.18835 98.711224 560.83049 101.59759 559.13281 105.8418 L 541.5625 149.13281 C 540.88342 150.83049 539.60964 152.27344 537.74219 152.27344 C 535.28055 152.27344 534.43223 150.15142 534.00781 149.13281 L 517.19922 105.67188 C 514.73758 99.220672 514.05957 98.37274 509.73047 98.033203 C 507.52348 95.656445 508.20256 93.788581 509.73047 92.175781 z M 471.13477 93.449219 C 463.91962 93.449219 457.89294 96.080313 452.88477 100.66406 C 447.19753 105.84199 444.22656 113.7365 444.22656 122.56445 C 444.22656 136.23081 452.80067 150.15039 471.05078 150.15039 C 479.28455 150.15039 486.8392 146.2461 492.61133 138.69141 C 492.1869 137.92745 491.59192 137.41797 490.6582 137.41797 C 484.63142 144.03894 478.85907 147.51953 470.96484 147.51953 C 457.80779 147.51953 451.35742 133.34427 451.35742 120.95117 C 451.35742 113.65113 453.0546 107.28463 456.19531 103.46484 C 460.35464 98.286905 466.29696 95.740234 470.71094 95.740234 C 482.42496 95.740234 487.43364 103.54957 489.64062 110.84961 C 490.40458 110.93451 490.91273 110.8502 491.5918 110.42578 C 491.16738 106.0118 490.48857 101.93621 489.72461 97.267578 C 485.39552 96.843157 481.57553 93.449219 471.13477 93.449219 z M 510.49414 94.126953 C 509.98483 94.636258 510.0688 95.570773 510.57812 96.080078 C 515.41652 96.504499 516.60477 98.711655 519.06641 104.9082 L 535.78906 148.36914 C 536.29837 149.72729 536.89335 150.32031 537.74219 150.32031 C 538.67591 150.32031 539.26999 149.6424 539.7793 148.36914 L 557.34961 105.07812 C 558.96241 101.08857 560.91522 96.759152 566.51758 96.080078 C 567.02689 95.570773 567.02689 94.636258 566.51758 94.126953 C 563.12221 94.211833 560.99922 94.552734 559.04688 94.552734 C 557.09455 94.552734 553.78448 94.211837 549.79492 94.126953 C 549.28562 94.636258 549.28562 95.570773 549.79492 96.080078 C 556.07635 96.504499 556.07748 99.900625 554.29492 104.48438 L 540.88281 138.52148 L 539.94922 140.55859 L 539.18555 138.52148 L 525.6875 103.97461 C 523.65028 98.966443 523.82163 96.674268 529.59375 96.080078 C 530.10306 95.570773 530.10306 94.636258 529.59375 94.126953 C 525.6042 94.211833 522.63275 94.552734 519.32227 94.552734 C 515.9269 94.552734 514.4837 94.211837 510.49414 94.126953 z "
         id="path4153"
         d="m 471.13477,90.816406 c -8.5733,0 -14.59866,2.972301 -20.03125,7.980469 -6.11166,5.517475 -9.50782,14.005895 -9.50782,23.767575 0,14.43032 9.16775,30.21875 29.45508,30.21875 9.59191,0 17.8263,-4.92385 24.44727,-13.58203 l 0.16992,-0.16992 -0.16992,-0.16992 c -1.01861,-1.95234 -1.78298,-4.07422 -5.85743,-4.07422 l -0.16992,0 -0.0859,0.16992 c -5.68725,6.19654 -10.86523,9.93164 -18.41993,9.93164 -10.61052,0 -16.97656,-11.62929 -16.97656,-23.9375 0,-6.53608 1.52785,-12.56346 4.24414,-15.78906 3.2256,-3.98956 7.55524,-6.791016 12.47852,-6.791016 9.93145,0 14.26071,6.196796 16.38281,13.242186 l 0.42383,1.35938 0.0859,0 c 2.71629,0.93372 4.75258,1.3e-4 6.53515,-0.9336 l 0.16992,-0.0859 0,-0.2539 c -0.50931,-5.43258 -1.35729,-10.61084 -2.29101,-16.552736 l -0.0859,-0.253906 -1.95117,-0.169922 c -2.97094,-0.339537 -7.47121,-3.90625 -18.8457,-3.90625 z m 0,0.679688 c 11.2896,0 15.44928,3.56476 18.75976,3.904297 l 1.44336,0.08594 c 0.93373,5.772132 1.78366,10.949012 2.29297,16.126952 -1.78257,0.84884 -3.39653,1.44274 -5.60352,0.76367 l -0.2539,-0.93359 c -2.20699,-7.21516 -6.79151,-13.750001 -17.0625,-13.750001 -5.17794,0 -9.6769,2.970481 -13.07227,7.044921 -2.80117,3.48025 -4.32812,9.59192 -4.32812,16.21289 0,12.47798 6.44958,24.61719 17.65429,24.61719 7.80935,0 13.15742,-3.90501 18.75977,-10.10156 3.65002,0.0849 4.16003,1.78279 5.09375,3.48047 -6.53608,8.48842 -14.5152,13.15625 -23.76758,13.15625 -19.8629,0 -28.77539,-15.36341 -28.77539,-29.53907 0,-9.59191 3.31006,-17.91115 9.25195,-23.343747 5.34771,-4.923284 11.2039,-7.724609 19.60743,-7.724609 z m 38.33984,0 -0.16992,0.08594 c -1.78257,1.867452 -2.54653,4.412459 0,6.958985 l 0.0859,0.08594 0.16993,0 c 4.24421,0.424421 4.4984,0.762744 7.04492,7.298827 l 16.72265,43.46094 c 0.42443,1.01861 1.44312,3.5664 4.41407,3.5664 2.29187,0 3.73408,-1.69895 4.49804,-3.5664 l 17.48633,-43.29102 c 1.78256,-4.24421 2.97124,-6.874557 7.89453,-7.468747 l 0.084,0 0.0859,-0.08594 c 1.95234,-1.952336 2.37572,-4.412459 -0.0859,-6.958985 l -0.084,-0.08594 -0.16992,0 c -3.14072,0.08488 -6.53684,0.423828 -8.40429,0.423828 -1.52792,0 -5.85646,-0.338944 -10.18555,-0.423828 l -0.084,0 -0.16992,0.08594 c -1.78257,1.867452 -2.71734,4.413512 -0.0859,7.044922 l 0.0859,0.08398 0.16992,0 c 3.05583,0.169768 3.90325,0.849933 3.81836,2.292972 -0.0849,0.59418 -0.25436,1.35849 -0.76367,2.54687 l -11.79883,30.04883 -11.54297,-29.54102 c -1.35815,-3.48026 -1.27429,-4.667372 -0.0859,-5.091793 0.42442,-0.169768 1.10459,-0.254959 2.29297,-0.339844 l 0.084,0 0.084,-0.08594 c 1.95233,-1.867452 2.37767,-4.412459 -0.084,-6.958985 l -0.084,-0.08594 -0.16993,0 c -3.98956,0.08488 -7.63994,0.423828 -11.20507,0.423828 -2.97095,0 -5.094,-0.338944 -9.67774,-0.423828 l -0.16992,0 z m 0.25586,0.679687 c 4.49886,0.169769 6.53596,0.423828 9.5918,0.423828 3.56513,0 7.21536,-0.338944 11.03515,-0.423828 2.20699,2.291874 1.69784,4.243569 0.16992,5.771485 -1.10349,0.08488 -1.78276,0.169175 -2.37695,0.423828 -1.78257,0.679073 -1.61401,2.632876 -0.25586,5.943356 l 12.13867,31.15235 12.47852,-31.66211 c 0.42442,-1.18838 0.67878,-2.03773 0.76367,-2.7168 0.16976,-2.037221 -1.35717,-2.800034 -4.32812,-3.054687 -2.20699,-2.376758 -1.44395,-4.329506 0.084,-5.857422 4.41397,0.08488 8.40283,0.423828 10.01563,0.423828 1.86744,0 5.34831,-0.338944 8.23437,-0.423828 2.20699,2.291874 1.69783,4.158685 0.16992,5.771485 -5.26282,0.763958 -6.62068,3.650324 -8.31836,7.894534 l -17.57031,43.29101 c -0.67908,1.69768 -1.95286,3.14063 -3.82031,3.14063 -2.46164,0 -3.30996,-2.12202 -3.73438,-3.14063 l -16.80859,-43.46093 c -2.46164,-6.451208 -3.13965,-7.29914 -7.46875,-7.638677 -2.20699,-2.376758 -1.52791,-4.244622 0,-5.857422 z m -38.5957,1.273438 c -7.21515,0 -13.24183,2.631094 -18.25,7.214841 -5.68724,5.17793 -8.65821,13.07244 -8.65821,21.90039 0,13.66636 8.57411,27.58594 26.82422,27.58594 8.23377,0 15.78842,-3.90429 21.56055,-11.45898 -0.42443,-0.76396 -1.01941,-1.27344 -1.95313,-1.27344 -6.02678,6.62097 -11.79913,10.10156 -19.69336,10.10156 -13.15705,0 -19.60742,-14.17526 -19.60742,-26.56836 0,-7.30004 1.69718,-13.66654 4.83789,-17.48633 4.15933,-5.177935 10.10165,-7.724606 14.51563,-7.724606 11.71402,0 16.7227,7.809336 18.92968,15.109376 0.76396,0.0849 1.27211,5.9e-4 1.95118,-0.42383 -0.42442,-4.41398 -1.10323,-8.48957 -1.86719,-13.158202 -4.32909,-0.424421 -8.14908,-3.818359 -18.58984,-3.818359 z m 39.35937,0.677734 c -0.50931,0.509305 -0.42534,1.44382 0.084,1.953125 4.8384,0.424421 6.02665,2.631577 8.48829,8.828122 l 16.72265,43.46094 c 0.50931,1.35815 1.10429,1.95117 1.95313,1.95117 0.93372,0 1.5278,-0.67791 2.03711,-1.95117 l 17.57031,-43.29102 c 1.6128,-3.98955 3.56561,-8.318968 9.16797,-8.998042 0.50931,-0.509305 0.50931,-1.44382 0,-1.953125 -3.39537,0.08488 -5.51836,0.425781 -7.4707,0.425781 -1.95233,0 -5.2624,-0.340897 -9.25196,-0.425781 -0.5093,0.509305 -0.5093,1.44382 0,1.953125 6.28143,0.424421 6.28256,3.820547 4.5,8.404302 l -13.41211,34.0371 -0.93359,2.03711 -0.76367,-2.03711 -13.49805,-34.54687 c -2.03722,-5.008167 -1.86587,-7.300342 3.90625,-7.894532 0.50931,-0.509305 0.50931,-1.44382 0,-1.953125 -3.98955,0.08488 -6.961,0.425781 -10.27148,0.425781 -3.39537,0 -4.83857,-0.340897 -8.82813,-0.425781 z" />
    </g>
    <rect
       transform="matrix(-0.70710678,0.70710678,-0.70710678,-0.70710678,0,0)"
       y="-531.91492"
       x="-359.6637"
       height="175.75713"
       width="175.75713"
       id="rect4257"
       style="opacity:1;fill:none;fill-opacity:1;stroke:#ffcc00;stroke-width:2.63635683;stroke-linecap:round;stroke-linejoin:round;stroke-miterlimit:4;stroke-dasharray:none;stroke-dashoffset:0;stroke-opacity:1" />
  </g>
</svg>
