<?xml version="1.0" encoding="UTF-8" standalone="no"?>
<!-- Created with Inkscape (http://www.inkscape.org/) -->

<svg
   xmlns:dc="http://purl.org/dc/elements/1.1/"
   xmlns:cc="http://creativecommons.org/ns#"
   xmlns:rdf="http://www.w3.org/1999/02/22-rdf-syntax-ns#"
   xmlns:svg="http://www.w3.org/2000/svg"
   xmlns="http://www.w3.org/2000/svg"
   xmlns:xlink="http://www.w3.org/1999/xlink"
   xmlns:sodipodi="http://sodipodi.sourceforge.net/DTD/sodipodi-0.dtd"
   xmlns:inkscape="http://www.inkscape.org/namespaces/inkscape"
   width="282.84274"
   height="360.84274"
   viewBox="0 0 282.84275 360.84274"
   id="svg2"
   version="1.1"
   inkscape:version="0.91 r13725"
   sodipodi:docname="Git_Icon_BW.svg">
  <sodipodi:namedview
     id="base"
     pagecolor="#ffffff"
     bordercolor="#666666"
     borderopacity="1.0"
     inkscape:pageopacity="0.0"
     inkscape:pageshadow="2"
     inkscape:zoom="1.2392531"
     inkscape:cx="-28.018195"
     inkscape:cy="285.2637"
     inkscape:document-units="px"
     inkscape:current-layer="layer1"
     showgrid="false"
     inkscape:window-width="1364"
     inkscape:window-height="720"
     inkscape:window-x="0"
     inkscape:window-y="18"
     inkscape:window-maximized="1"
     fit-margin-top="0"
     fit-margin-left="0"
     fit-margin-right="0"
     fit-margin-bottom="0"
     units="px" />
  <defs
     id="defs4">
    <linearGradient
       id="linearGradient5414"
       inkscape:collect="always">
      <stop
         id="stop5416"
         offset="0"
         style="stop-color:#888888;stop-opacity:1" />
      <stop
         id="stop5418"
         offset="1"
         style="stop-color:#828282;stop-opacity:1" />
    </linearGradient>
    <linearGradient
       gradientUnits="userSpaceOnUse"
       y2="-388.88203"
       x2="-237.74272"
       y1="-388.88203"
       x1="-416.1362"
       id="linearGradient5420"
       xlink:href="#linearGradient5414"
       inkscape:collect="always" />
    <linearGradient
       gradientUnits="userSpaceOnUse"
       y2="-388.88203"
       x2="-237.74272"
       y1="-388.88203"
       x1="-416.1362"
       id="linearGradient5420-306"
       xlink:href="#linearGradient5414-419"
       inkscape:collect="always" />
    <linearGradient
       id="linearGradient5414-419"
       inkscape:collect="always">
      <stop
         id="stop4153"
         offset="0"
         style="stop-color:#888888;stop-opacity:1" />
      <stop
         id="stop4155"
         offset="1"
         style="stop-color:#828282;stop-opacity:1" />
    </linearGradient>
  </defs>
  <metadata
     id="metadata7">
    <rdf:RDF>
      <cc:Work
         rdf:about="">
        <dc:format>image/svg+xml</dc:format>
        <dc:type
           rdf:resource="http://purl.org/dc/dcmitype/StillImage" />
        <dc:title></dc:title>
      </cc:Work>
    </rdf:RDF>
  </metadata>
  <g
     transform="translate(-364.74086,97.621322)"
     id="layer1"
     inkscape:groupmode="layer"
     inkscape:label="Calque 1">
    <flowRoot
       style="font-style:normal;font-weight:normal;font-size:40px;line-height:125%;font-family:sans-serif;text-align:center;letter-spacing:0px;word-spacing:0px;writing-mode:tb-rl;text-anchor:middle;fill:#000000;fill-opacity:1;stroke:none;stroke-width:1px;stroke-linecap:butt;stroke-linejoin:miter;stroke-opacity:1"
       id="flowRoot4178"
       xml:space="preserve"><flowRegion
         id="flowRegion4180"><rect
           y="225.83891"
           x="247.31183"
           height="76.702507"
           width="147.67026"
           id="rect4182" /></flowRegion><flowPara
         id="flowPara4184" /></flowRoot>    <rect
       style="opacity:1;fill:#000000;fill-opacity:1;stroke:none;stroke-width:3;stroke-linecap:round;stroke-linejoin:round;stroke-miterlimit:4;stroke-dasharray:none;stroke-dashoffset:0;stroke-opacity:1"
       id="rect4259"
       width="200"
       height="200"
       x="-426.93945"
       y="-488.88202"
       transform="matrix(-0.70710678,0.70710678,-0.70710678,-0.70710678,0,0)" />
    <g
       id="text4186"
       style="font-style:normal;font-weight:normal;font-size:77.76915741px;line-height:125%;font-family:sans-serif;text-align:center;letter-spacing:0px;word-spacing:0px;writing-mode:lr-tb;text-anchor:middle;fill:#7f7f7f;fill-opacity:1;stroke:none;stroke-width:1px;stroke-linecap:butt;stroke-linejoin:miter;stroke-opacity:1">
      <path
         d="m 456.875,15.998047 c -14.30953,0 -29.00781,10.886895 -29.00781,29.707031 0,14.542833 11.35439,27.064453 28.61914,27.064453 10.88768,0 17.65258,-3.888546 24.10742,-9.410156 L 480.9043,63.125 480.59375,62.892578 c -0.46661,-0.388846 -2.25586,-1.167272 -2.25586,-2.722656 l 0,-4.976563 c 0.0778,-5.677148 -0.38847,-5.288176 2.64453,-5.521484 l 0.0781,0 0.0781,-0.07813 c 1.63316,-1.555383 1.63284,-4.588262 -0.0781,-6.376953 l -0.15625,-0.15625 -0.0762,0 c -3.2663,0.07777 -4.1229,0.388672 -7.93359,0.388672 -3.49961,0 -7.30898,-0.310903 -10.80859,-0.388672 l -0.15625,0 -0.0781,0.15625 c -1.47761,1.477614 -1.94455,4.588262 -0.0781,6.376953 l 0.0781,0.07813 0.0781,0 c 4.74392,0.233308 5.28783,-0.233433 5.44336,5.521484 l -0.0781,7.542969 c -2.09976,1.555383 -5.6774,3.189453 -9.02148,3.189453 -11.74314,0 -18.97461,-11.976476 -18.97461,-21.77539 0,-11.587604 7.38734,-21.386719 16.48633,-21.386719 9.64338,0 13.61045,5.910038 15.55468,12.287109 l 0.54493,1.710938 0.23242,0 c 2.33308,0 3.57672,3.39e-4 5.83203,-1.632813 l 0.0781,-0.07813 0,-0.232422 c -0.69992,-6.065994 -1.32227,-10.810231 -2.17773,-15.009765 l -0.0781,-0.310547 -1.94336,0 c -3.18853,0 -6.45429,-3.5 -16.95312,-3.5 z m 83.05664,0.154297 c -2.48861,0 -2.64329,2.177734 -2.79883,2.177734 l 0,0.3125 c -0.31108,3.032998 -1.01208,7.231039 -1.94531,11.197266 l -0.38867,1.945312 0.23437,0.154297 c 1.63316,0.622154 2.95369,1.167969 6.06446,1.167969 l 0.23437,0 0.4668,-1.789063 c 1.24431,-5.210534 3.65434,-7.232421 7.93164,-7.232421 l 3.0332,0 c 0.93323,0 2.64524,0.07798 2.80078,3.888671 0.15554,6.143764 0.23243,9.95443 0.23243,16.642579 0,6.299301 8.8e-4,9.564873 -0.23243,16.486328 -0.15554,4.121766 -1.01141,4.510832 -6.0664,4.74414 l -0.15625,0 -0.0781,0.07813 c -1.71092,1.710922 -2.25498,4.044234 0.0781,6.455078 l 0.0781,0.07617 0.15625,0 c 4.12176,-0.07777 6.99827,-0.464843 11.74219,-0.464843 3.81069,0 6.45512,0.310902 10.73242,0.388671 l 1.01172,0.07617 0.0762,-0.07617 c 1.71092,-1.710921 2.48894,-4.044234 0.0781,-6.455078 l -0.0781,-0.07813 -0.15429,0 c -5.28831,-0.233308 -5.83275,-0.466836 -5.98829,-4.74414 -0.23331,-6.221532 -0.23437,-9.642286 -0.23437,-16.408204 0,-6.143762 0.001,-9.877017 0.23437,-16.720703 0.0778,-3.344073 -0.0786,-3.888672 3.6543,-3.888671 4.58838,0 7.31162,1.711341 8.40039,6.921874 l 0.46484,1.865235 0.23438,0 c 2.48861,0 4.04406,-0.310911 5.98828,-1.244141 l 0.23242,-0.07813 -0.0762,-0.232422 c -0.54438,-3.65515 -1.09021,-8.32195 -1.16797,-12.521484 0,-1.244307 -1.00977,-2.644531 -2.7207,-2.644531 l -0.0781,0 c -2.48862,0.233308 -12.05508,0.855468 -17.26562,0.855468 l -6.6875,0 c -4.74392,0 -14.6989,-0.544391 -18.04297,-0.855468 z M 456.875,16.619141 c 10.42106,0 13.37575,3.5 16.95312,3.5 l 1.4004,0 c 0.85546,4.121766 1.4778,8.866175 2.17773,14.621093 -1.94423,1.399845 -2.95527,1.400391 -5.13281,1.400391 l -0.3125,-1.246094 c -2.02199,-6.532609 -6.14356,-12.753906 -16.17578,-12.753906 -9.56561,0 -17.10938,10.266623 -17.10938,22.009766 0,10.032221 7.3879,22.396484 19.59766,22.396484 3.57738,0 7.31074,-1.710953 9.48828,-3.421875 l 0.15625,-0.07617 0.0781,-7.855469 c -0.15554,-5.988225 -1.244,-5.910868 -5.91015,-6.066406 -1.39984,-1.555383 -1.09002,-4.043514 0.15429,-5.443359 3.42184,0.155538 7.23246,0.388672 10.6543,0.388672 3.81069,0 4.66657,-0.310903 7.77735,-0.388672 1.47761,1.710922 1.32279,4.199053 0.15624,5.443359 -3.2663,0.233308 -3.03355,0.622565 -3.11132,6.066406 l 0,4.976563 c 0,1.710922 1.63334,2.644002 2.17773,2.955078 -6.37707,5.366072 -12.83159,9.021484 -23.4082,9.021484 -16.87591,0 -27.99805,-12.20965 -27.99805,-26.441406 0,-18.43129 14.38827,-29.085937 28.38672,-29.085937 z m 39.21875,0 c -0.85546,0.93323 -1.32227,2.255694 -1.32227,3.5 0,1.166538 0.39064,2.333636 1.2461,3.111328 4.89946,0.233307 5.36594,0.154527 5.52148,5.753906 0.0778,3.188536 0.0762,5.522038 0.0762,7.777344 l 0,7.855469 0,7.77539 c 0,2.177536 0.002,4.434512 -0.0762,7.623047 -0.15554,5.832687 -0.85569,5.598367 -5.59961,5.753906 -0.85546,0.855461 -1.24414,2.02256 -1.24414,3.111328 0,1.322076 0.54458,2.644539 1.32227,3.5 3.49961,-0.07777 7.38746,-0.388671 10.96484,-0.388671 3.73292,0 7.85479,0.310902 11.1211,0.388671 0.85546,-0.93323 1.32226,-2.177568 1.32226,-3.421875 0,-1.244306 -0.38868,-2.411762 -1.24414,-3.189453 -4.89946,-0.155539 -5.36594,-0.154527 -5.52148,-5.753906 -0.0778,-5.443841 -0.0781,-8.01194 -0.0781,-12.755859 l 0,-2.564454 c 0,-6.377071 -0.001,-9.178327 0.1543,-15.710937 0.15554,-5.754917 0.85569,-5.520599 5.59961,-5.753906 0.77769,-0.777692 1.16797,-1.944435 1.16797,-3.033203 0,-1.399845 -0.54458,-2.722664 -1.32227,-3.578125 -3.49961,0.07777 -7.38942,0.388671 -10.9668,0.388671 -3.73292,0 -7.85479,-0.310902 -11.12109,-0.388671 z m 43.75977,0.15625 c 3.42184,0.311076 13.37717,0.855468 18.12109,0.855468 l 6.6875,0 c 5.21054,0 14.85514,-0.622161 17.34375,-0.855468 1.32208,-0.07777 2.09961,1.166023 2.09961,2.021484 0.0778,4.199534 0.62163,8.787852 1.16601,12.365234 -1.86646,0.85546 -3.1893,1.089844 -5.28906,1.089844 l -0.31054,-1.400391 c -1.16655,-5.44384 -4.1998,-7.388671 -9.02149,-7.388671 -3.96623,0 -4.19957,1.012106 -4.27734,4.511718 -0.2333,6.843686 -0.23242,10.57694 -0.23243,16.720703 0,6.688148 -8.7e-4,10.264441 0.23243,16.408204 0.15554,4.510611 1.2449,5.131927 6.5332,5.365234 2.022,2.099767 1.32176,3.889574 -0.0781,5.367188 l -0.77734,-0.07813 c -4.19953,-0.07777 -6.84396,-0.388671 -10.73242,-0.388671 -4.74392,0 -7.6998,0.389027 -11.66602,0.466797 -1.94423,-2.099767 -1.39985,-3.889574 0,-5.367188 5.13276,-0.233307 6.29991,-1.010161 6.53321,-5.365234 0.23331,-6.921455 0.23437,-10.187026 0.23437,-16.486328 0,-6.688148 -0.0789,-10.498815 -0.23437,-16.642579 -0.15553,-4.121765 -2.25534,-4.511718 -3.42188,-4.511718 l -3.0332,0 c -4.51061,0 -7.23262,2.333146 -8.55469,7.699218 l -0.31055,1.322266 c -2.79969,0 -3.88762,-0.465738 -5.36523,-1.087891 l 0.31055,-1.478515 c 0.93323,-3.888458 1.63229,-8.166222 1.94336,-11.199219 0.15554,-0.466615 0.38869,-1.86559 2.09961,-1.943359 z m -43.44727,0.466797 c 3.033,0.07777 7.07567,0.388671 10.80859,0.388671 3.49961,0 7.23246,-0.233133 10.6543,-0.388671 0.69992,0.777691 1.08984,1.866309 1.08984,2.955078 0,0.85546 -0.31144,1.788003 -0.93359,2.410156 -4.66615,0.233308 -5.75462,0.156306 -5.91016,6.144531 -0.15553,6.532609 -0.15625,9.566289 -0.15625,15.943359 l 0,2.564454 c 0,4.743919 3.3e-4,7.544796 0.0781,13.066406 0.15554,5.677148 0.93293,5.833099 5.91016,6.066406 0.54438,0.622153 0.93359,1.555407 0.93359,2.566406 0,0.93323 -0.3102,2.021136 -1.08789,2.798828 -3.03299,-0.07777 -7.07763,-0.388671 -10.81055,-0.388671 -3.49961,0 -7.23244,0.310903 -10.6543,0.388671 -0.62214,-0.699922 -1.08984,-1.788185 -1.08984,-2.876953 0,-0.855461 0.31144,-1.788359 0.9336,-2.488281 4.66615,-0.155538 5.83274,-0.07818 5.98828,-6.066406 0.0778,-3.266305 0.0781,-5.522394 0.0781,-7.855469 l 0,-7.853515 0,-7.933594 c 0,-2.333075 -3.2e-4,-4.743106 -0.0781,-7.931641 -0.15554,-5.677149 -0.85517,-5.911223 -5.91016,-6.144531 -0.54439,-0.622153 -0.93359,-1.555407 -0.93359,-2.566406 0,-0.93323 0.38992,-1.943368 1.08984,-2.798828 z M 456.875,18.408203 c -13.3763,0 -26.59766,10.187661 -26.59766,27.296875 0,13.454064 10.57739,24.652344 26.20899,24.652344 9.17676,0 15.39724,-2.72181 20.68555,-7.232422 -0.85546,-0.699922 -1.24415,-1.322273 -1.24415,-2.177734 l 0,-9.720704 c 0,-2.721919 1.32283,-3.499114 3.57813,-3.732421 0.46662,-0.466615 0.46662,-1.55487 0,-2.021485 -2.33307,0.07777 -3.34431,0.388672 -6.45508,0.388672 -3.03299,0 -5.98938,-0.310903 -9.64453,-0.388672 -0.46662,0.466615 -0.46662,1.55487 0,2.021485 4.19953,0.388846 6.37891,0.621655 6.37891,3.732421 l 0,12.59961 c -2.64415,2.488613 -7.31218,4.509766 -11.51172,4.509766 -13.84291,0 -21.38477,-13.920018 -21.38477,-24.185547 0,-13.609603 9.01981,-23.642579 18.89649,-23.642579 11.27653,0 15.86471,7.155604 17.88672,13.84375 0.77769,0 1.24502,-1.81e-4 1.86718,-0.466796 -0.62216,-5.288302 -1.16654,-9.176873 -1.71094,-11.976563 -4.66615,0 -7.46528,-3.5 -16.95312,-3.5 z m 82.97852,0.15625 c -0.15554,0 -0.31055,0.154653 -0.31055,0.232422 -0.31108,3.499612 -1.0879,7.776846 -1.94336,11.509766 0.77769,0.311077 0.932,0.388672 1.86523,0.388671 1.55538,-6.221533 5.13287,-9.021484 10.26563,-9.021484 l 4.58789,0 c 2.87746,0 3.50071,1.478738 3.65625,6.222656 0.15553,6.45484 0.23242,10.265863 0.23242,16.720704 0,6.454839 -0.0769,10.031488 -0.23242,16.486328 -0.15554,6.45484 -2.09913,6.842863 -7.54297,7.076172 -0.46662,0.466615 -0.46662,1.322447 0,1.789062 3.81069,-0.07777 6.60942,-0.388672 10.88672,-0.388672 4.19953,0 6.92209,0.310903 10.81055,0.388672 0.46662,-0.466615 0.46662,-1.322448 0,-1.789062 -5.44384,-0.233308 -7.38939,-0.621332 -7.54493,-7.076172 -0.15553,-6.377071 -0.23242,-9.953364 -0.23242,-16.408204 0,-6.454839 -8.8e-4,-10.18845 0.23242,-16.798828 0.15554,-4.977226 0.77845,-6.222656 3.57813,-6.222656 l 2.48828,0 c 5.83268,0 9.48848,2.800838 10.81055,8.789063 0.85546,0 1.16727,-0.0776 1.86718,-0.388672 -0.54438,-3.577382 -0.93394,-7.777732 -1.01171,-11.277344 0,-0.07777 -0.15661,-0.232422 -0.23438,-0.232422 -2.64415,0.233308 -11.27615,0.855469 -17.41992,0.855469 l -6.6875,0 c -5.98823,0 -15.16586,-0.622161 -18.12109,-0.855469 z m -42.82618,0.466797 c -0.23331,0.233308 -0.38867,0.620564 -0.38867,0.931641 0,0.311077 0.15536,0.62216 0.38867,0.855468 5.44384,0.233307 6.6101,0.623285 6.76563,7.078125 0.15554,6.45484 0.23437,10.265863 0.23437,16.720704 0,6.454839 -0.0789,10.031488 -0.23437,16.486328 -0.15553,6.45484 -1.32179,6.842863 -6.76563,7.076172 -0.23331,0.233306 -0.38867,0.622516 -0.38867,0.933593 0,0.311076 0.15536,0.622162 0.38867,0.855469 3.81069,-0.07777 6.14315,-0.388672 10.10938,-0.388672 3.88846,0 6.14474,0.310903 10.0332,0.388672 0.23331,-0.233307 0.31055,-0.544393 0.31055,-0.855469 0,-0.311077 -0.0773,-0.700287 -0.31055,-0.933593 -5.44384,-0.233308 -6.61008,-0.621332 -6.76562,-7.076172 -0.15554,-6.377071 -0.23438,-9.953364 -0.23438,-16.408204 0,-6.454839 0.001,-10.266219 0.23438,-16.798828 0.15554,-6.45484 1.32178,-6.844818 6.76562,-7.078125 0.23331,-0.233308 0.31055,-0.544391 0.31055,-0.855468 0,-0.311077 -0.0773,-0.698333 -0.31055,-0.931641 -3.81069,0.07777 -6.22091,0.388672 -10.10937,0.388672 -3.96623,0 -6.14475,-0.310903 -10.03321,-0.388672 z"
         id="path4153"
         inkscape:original="M 456.875 15.998047 C 442.56547 15.998047 427.86719 26.884942 427.86719 45.705078 C 427.86719 60.247911 439.22158 72.769531 456.48633 72.769531 C 467.37401 72.769531 474.13891 68.880985 480.59375 63.359375 L 480.9043 63.125 L 480.59375 62.892578 C 480.12714 62.503732 478.33789 61.725306 478.33789 60.169922 L 478.33789 55.193359 C 478.41569 49.516211 477.94942 49.905183 480.98242 49.671875 L 481.06055 49.671875 L 481.13867 49.59375 C 482.77183 48.038367 482.77151 45.005488 481.06055 43.216797 L 480.9043 43.060547 L 480.82812 43.060547 C 477.56182 43.138317 476.70522 43.449219 472.89453 43.449219 C 469.39492 43.449219 465.58555 43.138316 462.08594 43.060547 L 461.92969 43.060547 L 461.85156 43.216797 C 460.37395 44.694411 459.90701 47.805059 461.77344 49.59375 L 461.85156 49.671875 L 461.92969 49.671875 C 466.67361 49.905183 467.21752 49.438442 467.37305 55.193359 L 467.29492 62.736328 C 465.19516 64.291711 461.61752 65.925781 458.27344 65.925781 C 446.5303 65.925781 439.29883 53.949305 439.29883 44.150391 C 439.29883 32.562787 446.68617 22.763672 455.78516 22.763672 C 465.42854 22.763672 469.39561 28.67371 471.33984 35.050781 L 471.88477 36.761719 L 472.11719 36.761719 C 474.45027 36.761719 475.69391 36.762058 477.94922 35.128906 L 478.02734 35.050781 L 478.02734 34.818359 C 477.32742 28.752365 476.70507 24.008128 475.84961 19.808594 L 475.77148 19.498047 L 473.82812 19.498047 C 470.63959 19.498047 467.37383 15.998047 456.875 15.998047 z M 539.93164 16.152344 C 537.44303 16.152344 537.28835 18.330078 537.13281 18.330078 L 537.13281 18.642578 C 536.82173 21.675576 536.12073 25.873617 535.1875 29.839844 L 534.79883 31.785156 L 535.0332 31.939453 C 536.66636 32.561607 537.98689 33.107422 541.09766 33.107422 L 541.33203 33.107422 L 541.79883 31.318359 C 543.04314 26.107825 545.45317 24.085938 549.73047 24.085938 L 552.76367 24.085938 C 553.6969 24.085938 555.40891 24.163921 555.56445 27.974609 C 555.71999 34.118373 555.79688 37.929039 555.79688 44.617188 C 555.79688 50.916489 555.79776 54.182061 555.56445 61.103516 C 555.40891 65.225282 554.55304 65.614348 549.49805 65.847656 L 549.3418 65.847656 L 549.26367 65.925781 C 547.55275 67.636703 547.00869 69.970015 549.3418 72.380859 L 549.41992 72.457031 L 549.57617 72.457031 C 553.69793 72.379261 556.57444 71.992188 561.31836 71.992188 C 565.12905 71.992188 567.77348 72.30309 572.05078 72.380859 L 573.0625 72.457031 L 573.13867 72.380859 C 574.84959 70.669938 575.62761 68.336625 573.2168 65.925781 L 573.13867 65.847656 L 572.98438 65.847656 C 567.69607 65.614348 567.15163 65.38082 566.99609 61.103516 C 566.76278 54.881984 566.76172 51.46123 566.76172 44.695312 C 566.76172 38.55155 566.76278 34.818295 566.99609 27.974609 C 567.07389 24.630536 566.91744 24.085937 570.65039 24.085938 C 575.23877 24.085938 577.96201 25.797279 579.05078 31.007812 L 579.51562 32.873047 L 579.75 32.873047 C 582.23861 32.873047 583.79406 32.562136 585.73828 31.628906 L 585.9707 31.550781 L 585.89453 31.318359 C 585.35015 27.663209 584.80432 22.996409 584.72656 18.796875 C 584.72656 17.552568 583.71679 16.152344 582.00586 16.152344 L 581.92773 16.152344 C 579.43911 16.385652 569.87265 17.007812 564.66211 17.007812 L 557.97461 17.007812 C 553.23069 17.007812 543.27571 16.463421 539.93164 16.152344 z M 456.875 16.619141 C 467.29606 16.619141 470.25075 20.119141 473.82812 20.119141 L 475.22852 20.119141 C 476.08398 24.240907 476.70632 28.985316 477.40625 34.740234 C 475.46202 36.140079 474.45098 36.140625 472.27344 36.140625 L 471.96094 34.894531 C 469.93895 28.361922 465.81738 22.140625 455.78516 22.140625 C 446.21955 22.140625 438.67578 32.407248 438.67578 44.150391 C 438.67578 54.182612 446.06368 66.546875 458.27344 66.546875 C 461.85082 66.546875 465.58418 64.835922 467.76172 63.125 L 467.91797 63.048828 L 467.99609 55.193359 C 467.84055 49.205134 466.75209 49.282491 462.08594 49.126953 C 460.6861 47.57157 460.99592 45.083439 462.24023 43.683594 C 465.66207 43.839132 469.47269 44.072266 472.89453 44.072266 C 476.70522 44.072266 477.5611 43.761363 480.67188 43.683594 C 482.14949 45.394516 481.99467 47.882647 480.82812 49.126953 C 477.56182 49.360261 477.79457 49.749518 477.7168 55.193359 L 477.7168 60.169922 C 477.7168 61.880844 479.35014 62.813924 479.89453 63.125 C 473.51746 68.491072 467.06294 72.146484 456.48633 72.146484 C 439.61042 72.146484 428.48828 59.936834 428.48828 45.705078 C 428.48828 27.273788 442.87655 16.619141 456.875 16.619141 z M 496.09375 16.619141 C 495.23829 17.552371 494.77148 18.874835 494.77148 20.119141 C 494.77148 21.285679 495.16212 22.452777 496.01758 23.230469 C 500.91704 23.463776 501.38352 23.384996 501.53906 28.984375 C 501.61686 32.172911 501.61523 34.506413 501.61523 36.761719 L 501.61523 44.617188 L 501.61523 52.392578 C 501.61523 54.570114 501.61686 56.82709 501.53906 60.015625 C 501.38352 65.848312 500.68337 65.613992 495.93945 65.769531 C 495.08399 66.624992 494.69531 67.792091 494.69531 68.880859 C 494.69531 70.202935 495.23989 71.525398 496.01758 72.380859 C 499.51719 72.303089 503.40504 71.992188 506.98242 71.992188 C 510.71534 71.992188 514.83721 72.30309 518.10352 72.380859 C 518.95898 71.447629 519.42578 70.203291 519.42578 68.958984 C 519.42578 67.714678 519.0371 66.547222 518.18164 65.769531 C 513.28218 65.613992 512.8157 65.615004 512.66016 60.015625 C 512.58236 54.571784 512.58203 52.003685 512.58203 47.259766 L 512.58203 44.695312 C 512.58203 38.318241 512.58079 35.516985 512.73633 28.984375 C 512.89187 23.229458 513.59202 23.463776 518.33594 23.230469 C 519.11363 22.452777 519.50391 21.286034 519.50391 20.197266 C 519.50391 18.797421 518.95933 17.474602 518.18164 16.619141 C 514.68203 16.696911 510.79222 17.007812 507.21484 17.007812 C 503.48192 17.007812 499.36005 16.69691 496.09375 16.619141 z M 539.85352 16.775391 C 543.27536 17.086467 553.23069 17.630859 557.97461 17.630859 L 564.66211 17.630859 C 569.87265 17.630859 579.51725 17.008698 582.00586 16.775391 C 583.32794 16.697621 584.10547 17.941414 584.10547 18.796875 C 584.18327 22.996409 584.7271 27.584727 585.27148 31.162109 C 583.40502 32.017569 582.08218 32.251953 579.98242 32.251953 L 579.67188 30.851562 C 578.50533 25.407722 575.47208 23.462891 570.65039 23.462891 C 566.68416 23.462891 566.45082 24.474997 566.37305 27.974609 C 566.13975 34.818295 566.14063 38.551549 566.14062 44.695312 C 566.14062 51.38346 566.13975 54.959753 566.37305 61.103516 C 566.52859 65.614127 567.61795 66.235443 572.90625 66.46875 C 574.92825 68.568517 574.22801 70.358324 572.82812 71.835938 L 572.05078 71.757812 C 567.85125 71.680042 565.20682 71.369141 561.31836 71.369141 C 556.57444 71.369141 553.61856 71.758168 549.65234 71.835938 C 547.70811 69.736171 548.25249 67.946364 549.65234 66.46875 C 554.7851 66.235443 555.95225 65.458589 556.18555 61.103516 C 556.41886 54.182061 556.41992 50.91649 556.41992 44.617188 C 556.41992 37.92904 556.34106 34.118373 556.18555 27.974609 C 556.03002 23.852844 553.93021 23.462891 552.76367 23.462891 L 549.73047 23.462891 C 545.21986 23.462891 542.49785 25.796037 541.17578 31.162109 L 540.86523 32.484375 C 538.06554 32.484375 536.97761 32.018637 535.5 31.396484 L 535.81055 29.917969 C 536.74378 26.029511 537.44284 21.751747 537.75391 18.71875 C 537.90945 18.252135 538.1426 16.85316 539.85352 16.775391 z M 496.40625 17.242188 C 499.43925 17.319958 503.48192 17.630859 507.21484 17.630859 C 510.71445 17.630859 514.4473 17.397726 517.86914 17.242188 C 518.56906 18.019879 518.95898 19.108497 518.95898 20.197266 C 518.95898 21.052726 518.64754 21.985269 518.02539 22.607422 C 513.35924 22.84073 512.27077 22.763728 512.11523 28.751953 C 511.9597 35.284562 511.95898 38.318242 511.95898 44.695312 L 511.95898 47.259766 C 511.95898 52.003685 511.95931 54.804562 512.03711 60.326172 C 512.19265 66.00332 512.97004 66.159271 517.94727 66.392578 C 518.49165 67.014731 518.88086 67.947985 518.88086 68.958984 C 518.88086 69.892214 518.57066 70.98012 517.79297 71.757812 C 514.75998 71.680042 510.71534 71.369141 506.98242 71.369141 C 503.48281 71.369141 499.74998 71.680044 496.32812 71.757812 C 495.70598 71.05789 495.23828 69.969627 495.23828 68.880859 C 495.23828 68.025398 495.54972 67.0925 496.17188 66.392578 C 500.83803 66.23704 502.00462 66.314396 502.16016 60.326172 C 502.23796 57.059867 502.23828 54.803778 502.23828 52.470703 L 502.23828 44.617188 L 502.23828 36.683594 C 502.23828 34.350519 502.23796 31.940488 502.16016 28.751953 C 502.00462 23.074804 501.30499 22.84073 496.25 22.607422 C 495.70561 21.985269 495.31641 21.052015 495.31641 20.041016 C 495.31641 19.107786 495.70633 18.097648 496.40625 17.242188 z M 456.875 18.408203 C 443.4987 18.408203 430.27734 28.595864 430.27734 45.705078 C 430.27734 59.159142 440.85473 70.357422 456.48633 70.357422 C 465.66309 70.357422 471.88357 67.635612 477.17188 63.125 C 476.31642 62.425078 475.92773 61.802727 475.92773 60.947266 L 475.92773 51.226562 C 475.92773 48.504643 477.25056 47.727448 479.50586 47.494141 C 479.97248 47.027526 479.97248 45.939271 479.50586 45.472656 C 477.17279 45.550426 476.16155 45.861328 473.05078 45.861328 C 470.01779 45.861328 467.0614 45.550425 463.40625 45.472656 C 462.93963 45.939271 462.93963 47.027526 463.40625 47.494141 C 467.60578 47.882987 469.78516 48.115796 469.78516 51.226562 L 469.78516 63.826172 C 467.14101 66.314785 462.47298 68.335938 458.27344 68.335938 C 444.43053 68.335938 436.88867 54.41592 436.88867 44.150391 C 436.88867 30.540788 445.90848 20.507812 455.78516 20.507812 C 467.06169 20.507812 471.64987 27.663416 473.67188 34.351562 C 474.44957 34.351562 474.9169 34.351381 475.53906 33.884766 C 474.9169 28.596464 474.37252 24.707893 473.82812 21.908203 C 469.16197 21.908203 466.36284 18.408203 456.875 18.408203 z M 539.85352 18.564453 C 539.69798 18.564453 539.54297 18.719106 539.54297 18.796875 C 539.23189 22.296487 538.45507 26.573721 537.59961 30.306641 C 538.3773 30.617718 538.53161 30.695313 539.46484 30.695312 C 541.02022 24.473779 544.59771 21.673828 549.73047 21.673828 L 554.31836 21.673828 C 557.19582 21.673828 557.81907 23.152566 557.97461 27.896484 C 558.13014 34.351324 558.20703 38.162347 558.20703 44.617188 C 558.20703 51.072027 558.13011 54.648676 557.97461 61.103516 C 557.81907 67.558356 555.87548 67.946379 550.43164 68.179688 C 549.96502 68.646303 549.96502 69.502135 550.43164 69.96875 C 554.24233 69.89098 557.04106 69.580078 561.31836 69.580078 C 565.51789 69.580078 568.24045 69.890981 572.12891 69.96875 C 572.59553 69.502135 572.59553 68.646302 572.12891 68.179688 C 566.68507 67.94638 564.73952 67.558356 564.58398 61.103516 C 564.42845 54.726445 564.35156 51.150152 564.35156 44.695312 C 564.35156 38.240473 564.35068 34.506862 564.58398 27.896484 C 564.73952 22.919258 565.36243 21.673828 568.16211 21.673828 L 570.65039 21.673828 C 576.48307 21.673828 580.13887 24.474666 581.46094 30.462891 C 582.3164 30.462891 582.62821 30.385294 583.32812 30.074219 C 582.78374 26.496837 582.39418 22.296487 582.31641 18.796875 C 582.31641 18.719105 582.1598 18.564453 582.08203 18.564453 C 579.43788 18.797761 570.80588 19.419922 564.66211 19.419922 L 557.97461 19.419922 C 551.98638 19.419922 542.80875 18.797761 539.85352 18.564453 z M 497.02734 19.03125 C 496.79403 19.264558 496.63867 19.651814 496.63867 19.962891 C 496.63867 20.273968 496.79403 20.585051 497.02734 20.818359 C 502.47118 21.051666 503.63744 21.441644 503.79297 27.896484 C 503.94851 34.351324 504.02734 38.162347 504.02734 44.617188 C 504.02734 51.072027 503.94848 54.648676 503.79297 61.103516 C 503.63744 67.558356 502.47118 67.946379 497.02734 68.179688 C 496.79403 68.412994 496.63867 68.802204 496.63867 69.113281 C 496.63867 69.424357 496.79403 69.735443 497.02734 69.96875 C 500.83803 69.89098 503.17049 69.580078 507.13672 69.580078 C 511.02518 69.580078 513.28146 69.890981 517.16992 69.96875 C 517.40323 69.735443 517.48047 69.424357 517.48047 69.113281 C 517.48047 68.802204 517.4032 68.412994 517.16992 68.179688 C 511.72608 67.94638 510.55984 67.558356 510.4043 61.103516 C 510.24876 54.726445 510.16992 51.150152 510.16992 44.695312 C 510.16992 38.240473 510.171 34.429093 510.4043 27.896484 C 510.55984 21.441644 511.72608 21.051666 517.16992 20.818359 C 517.40323 20.585051 517.48047 20.273968 517.48047 19.962891 C 517.48047 19.651814 517.4032 19.264558 517.16992 19.03125 C 513.35923 19.10902 510.94901 19.419922 507.06055 19.419922 C 503.09432 19.419922 500.9158 19.109019 497.02734 19.03125 z "
         inkscape:radius="0"
         sodipodi:type="inkscape:offset" />
    </g>
    <rect
       style="opacity:1;fill:none;fill-opacity:1;stroke:url(#linearGradient5420-306);stroke-width:2.63635683;stroke-linecap:round;stroke-linejoin:round;stroke-miterlimit:4;stroke-dasharray:none;stroke-dashoffset:0;stroke-opacity:1"
       id="rect4257"
       width="175.75713"
       height="175.75713"
       x="-414.81802"
       y="-476.76059"
       transform="matrix(-0.70710678,0.70710678,-0.70710678,-0.70710678,0,0)" />
  </g>
</svg>
