<?xml version="1.0" encoding="UTF-8" standalone="no"?>
<!-- Created with Inkscape (http://www.inkscape.org/) -->

<svg
   xmlns:dc="http://purl.org/dc/elements/1.1/"
   xmlns:cc="http://creativecommons.org/ns#"
   xmlns:rdf="http://www.w3.org/1999/02/22-rdf-syntax-ns#"
   xmlns:svg="http://www.w3.org/2000/svg"
   xmlns="http://www.w3.org/2000/svg"
   xmlns:sodipodi="http://sodipodi.sourceforge.net/DTD/sodipodi-0.dtd"
   xmlns:inkscape="http://www.inkscape.org/namespaces/inkscape"
   width="300"
   height="100"
   id="svg2"
   version="1.1"
   inkscape:version="0.48.4 r9939"
   sodipodi:docname="VASCO_Logo_001.svg">
  <defs
     id="defs4" />
  <sodipodi:namedview
     id="base"
     pagecolor="#ffffff"
     bordercolor="#666666"
     borderopacity="1.0"
     inkscape:pageopacity="0.0"
     inkscape:pageshadow="2"
     inkscape:zoom="2.0326198"
     inkscape:cx="154.91391"
     inkscape:cy="20.343038"
     inkscape:document-units="px"
     inkscape:current-layer="layer1"
     showgrid="false"
     inkscape:window-width="1301"
     inkscape:window-height="744"
     inkscape:window-x="65"
     inkscape:window-y="24"
     inkscape:window-maximized="1" />
  <metadata
     id="metadata7">
    <rdf:RDF>
      <cc:Work
         rdf:about="">
        <dc:format>image/svg+xml</dc:format>
        <dc:type
           rdf:resource="http://purl.org/dc/dcmitype/StillImage" />
        <dc:title></dc:title>
      </cc:Work>
    </rdf:RDF>
  </metadata>
  <g
     inkscape:label="Calque 1"
     inkscape:groupmode="layer"
     id="layer1"
     transform="translate(0,-952.36218)">
    <path
       inkscape:connector-curvature="0"
       id="path3048"
       style="font-size:24px;font-style:normal;font-variant:normal;font-weight:normal;font-stretch:normal;text-align:start;line-height:125%;letter-spacing:0px;word-spacing:0px;writing-mode:lr-tb;text-anchor:start;fill:#d40055;fill-opacity:1;stroke:none;font-family:Linux Libertine O;-inkscape-font-specification:Linux Libertine O"
       d="m 23.604145,970.97839 c 1.916237,0.14655 1.916238,0.93796 1.372441,2.52076 l -8.569152,16.30237 -0.129475,0 -4.117323,-11.92965 c -0.595587,-1.72936 -0.440215,-2.13972 1.320651,-2.3449 0.15537,-0.17587 0.15537,-0.7914 0,-0.96727 -1.035804,0.0293 -2.201085,0.0586 -3.133309,0.0586 -0.958118,0 -1.8385533,-0.0293 -2.6930911,-0.0586 -0.1553705,0.17587 -0.1294754,0.7914 0.025895,0.96727 1.4242296,0.14656 1.6054976,0.64485 2.3046645,2.66732 l 5.1272325,15.00732 c 0.15537,0.46897 0.336637,0.67416 0.595587,0.67416 0.284846,0 0.466113,-0.2345 0.621483,-0.67416 l 9.812117,-19.49728 c 0.492007,-1.37763 0.932226,-2.52076 2.563616,-2.72594 0.155371,-0.17587 0.155371,-0.7914 0,-0.96727 -0.776852,0.0293 -1.683182,0.0586 -2.27877,0.0586 -0.595586,0 -1.760868,-0.0293 -2.822567,-0.0586 -0.155369,0.17587 -0.155369,0.7914 0,0.96727"
       sodipodi:nodetypes="cccccccsccccsccccscc" />
    <path
       inkscape:connector-curvature="0"
       id="path3050"
       style="font-size:40px;font-style:normal;font-variant:normal;font-weight:normal;font-stretch:normal;text-align:center;line-height:125%;letter-spacing:0px;word-spacing:0px;writing-mode:lr-tb;text-anchor:middle;fill:#37abc8;fill-opacity:1;stroke:none;font-family:Linux Libertine O;-inkscape-font-specification:Linux Libertine O"
       d="m 26.360234,978.4815 c 0,0.46799 0.432001,0.936 0.864,0.936 0.504,0 0.936,-0.46801 0.936,-0.864 0,-0.432 -0.378,-0.936 -0.864,-0.936 -0.431999,0 -0.936,0.432 -0.936,0.864 m 1.638,8.586 0,-3.582 c 0,-0.9 0.072,-2.052 0.072,-2.052 0,-0.072 -0.09,-0.126 -0.234,-0.126 -0.521999,0.198 -1.224001,0.36 -2.466,0.522 -0.036,0.108 0,0.396 0.036,0.504 0.971999,0.108 1.17,0.198 1.17,1.224 l 0,3.51 c 0,1.49399 -0.198001,1.548 -1.296,1.638 -0.108,0.108 -0.108,0.486 0,0.594 0.594,-0.018 1.296001,-0.036 2.016,-0.036 0.72,0 1.404001,0.018 1.998,0.036 0.108,-0.108 0.108,-0.486 0,-0.594 -1.097999,-0.072 -1.296,-0.14401 -1.296,-1.638" />
    <path
       inkscape:connector-curvature="0"
       id="path3052"
       style="font-size:40px;font-style:normal;font-variant:normal;font-weight:normal;font-stretch:normal;text-align:center;line-height:125%;letter-spacing:0px;word-spacing:0px;writing-mode:lr-tb;text-anchor:middle;fill:#37abc8;fill-opacity:1;stroke:none;font-family:Linux Libertine O;-inkscape-font-specification:Linux Libertine O"
       d="m 30.490953,986.7795 c 0.072,0.88199 0.126,1.728 0.126,2.484 0.18,-0.036 0.36,-0.054 0.45,-0.054 0.126,0 0.234,0 0.36,0.036 0.486,0.126 0.972001,0.198 1.638,0.198 1.007999,0 2.862,-0.48601 2.862,-2.268 0,-1.224 -0.882001,-1.94401 -2.106,-2.394 -1.097999,-0.396 -1.8,-0.68401 -1.8,-1.674 0,-0.738 0.648001,-1.152 1.26,-1.152 0.396,0 1.44,0.144 1.674,1.674 0.108,0.108 0.468,0.09 0.576,-0.018 0.054,-0.648 0.09,-1.31401 0.108,-1.908 -0.557999,-0.09 -1.422001,-0.342 -2.358,-0.342 -1.331999,0 -2.538,0.864 -2.538,2.016 0,1.31399 0.594002,1.872 1.98,2.448 1.493999,0.612 1.836,0.99 1.836,1.764 0,0.88199 -0.864001,1.26 -1.53,1.26 -0.701999,0 -1.098,-0.234 -1.278,-0.432 -0.395999,-0.414 -0.594,-1.206 -0.702,-1.656 -0.108,-0.108 -0.45,-0.09 -0.558,0.018" />
    <path
       inkscape:connector-curvature="0"
       id="path3054"
       style="font-size:40px;font-style:normal;font-variant:normal;font-weight:normal;font-stretch:normal;text-align:center;line-height:125%;letter-spacing:0px;word-spacing:0px;writing-mode:lr-tb;text-anchor:middle;fill:#37abc8;fill-opacity:1;stroke:none;font-family:Linux Libertine O;-inkscape-font-specification:Linux Libertine O"
       d="m 40.564203,989.4435 c 0.701999,0 1.548001,-0.36001 2.43,-1.08 0.09,-0.072 0.252,-0.108 0.27,0.018 0.036,0.46799 0.198,1.062 0.198,1.062 0.144,0.054 0.216,0.054 0.342,0 0.396,-0.324 1.026001,-0.594 2.124,-0.72 0.108,-0.108 0.108,-0.378 0,-0.486 -1.151999,-0.09 -1.314,-0.43201 -1.314,-1.314 l 0,-3.456 c 0,-0.54 0.072,-1.854 0.072,-1.854 0,-0.054 -0.054,-0.108 -0.144,-0.108 -0.09,0.018 -0.36,0.036 -0.63,0.036 -0.575999,0 -1.224,-0.018 -1.836,-0.036 -0.108,0.108 -0.108,0.486 0,0.594 0.881999,0.054 1.116,0.27 1.116,1.458 l 0,3.474 c 0,0.34199 -0.036,0.486 -0.288,0.702 -0.665999,0.57599 -1.35,0.864 -1.8,0.864 -0.539999,0 -1.44,-0.25201 -1.44,-1.854 l 0,-3.276 c 0,-0.54 0.072,-1.854 0.072,-1.854 0,-0.054 -0.054,-0.108 -0.144,-0.108 -0.09,0.018 -0.36,0.036 -0.63,0.036 -0.575999,0 -1.224,-0.018 -1.836,-0.036 -0.108,0.108 -0.108,0.486 0,0.594 0.863999,0.072 1.116,0.27 1.116,1.44 l 0,3.456 c 0,1.24199 0.540002,2.448 2.322,2.448" />
    <path
       inkscape:connector-curvature="0"
       id="path3056"
       style="font-size:40px;font-style:normal;font-variant:normal;font-weight:normal;font-stretch:normal;text-align:center;line-height:125%;letter-spacing:0px;word-spacing:0px;writing-mode:lr-tb;text-anchor:middle;fill:#37abc8;fill-opacity:1;stroke:none;font-family:Linux Libertine O;-inkscape-font-specification:Linux Libertine O"
       d="m 51.494703,985.0695 0,2.376 c 0,0.234 -0.108,0.36 -0.252,0.468 -0.467999,0.37799 -1.08,0.792 -1.584,0.792 -0.899999,0 -1.296,-0.72 -1.296,-1.278 0,-0.81 0.378001,-1.63801 1.71,-1.98 l 1.422,-0.378 m 0,3.33 c 0.108,0.55799 0.288001,1.044 1.206,1.044 0.683999,0 1.332001,-0.30601 1.71,-0.666 -0.036,-0.216 -0.108,-0.36 -0.306,-0.486 -0.144,0.126 -0.45,0.288 -0.666,0.288 -0.521999,0 -0.54,-0.70201 -0.54,-1.53 l 0,-2.646 c 0,-2.556 -1.404001,-3.042 -2.718,-3.042 -1.475998,0 -2.97,0.972 -2.97,1.998 0,0.43199 0.216001,0.648 0.63,0.648 0.522,0 0.846,-0.378 0.846,-0.612 0,-0.126 -0.018,-0.252 -0.054,-0.324 -0.018,-0.054 -0.036,-0.162 -0.036,-0.36 0,-0.558 0.756001,-0.756 1.44,-0.756 0.612,0 1.458,0.306 1.458,2.34 0,0.126 -0.054,0.198 -0.108,0.216 l -1.548,0.378 c -1.727998,0.43199 -2.97,1.386 -2.97,2.61 0,1.47599 1.008001,1.944 2.268,1.944 0.612,0 1.170001,-0.14401 1.962,-0.756 l 0.36,-0.288 0.036,0" />
    <path
       inkscape:connector-curvature="0"
       id="path3058"
       style="font-size:40px;font-style:normal;font-variant:normal;font-weight:normal;font-stretch:normal;text-align:center;line-height:125%;letter-spacing:0px;word-spacing:0px;writing-mode:lr-tb;text-anchor:middle;fill:#37abc8;fill-opacity:1;stroke:none;font-family:Linux Libertine O;-inkscape-font-specification:Linux Libertine O"
       d="m 56.157266,987.0675 c 0,1.49399 -0.198001,1.584 -1.296,1.638 -0.108,0.108 -0.108,0.486 0,0.594 0.629999,-0.018 1.296,-0.036 2.016,-0.036 0.719999,0 1.404,0.018 1.998,0.036 0.108,-0.108 0.108,-0.486 0,-0.594 -1.097999,-0.054 -1.296,-0.14401 -1.296,-1.638 l 0,-8.298 c 0,-1.17 0.072,-1.89 0.072,-1.89 0,-0.126 -0.072,-0.18 -0.234,-0.18 -0.45,0.18 -1.800001,0.432 -2.52,0.486 -0.036,0.144 0,0.432 0.108,0.54 1.043999,0.072 1.152,0.126 1.152,1.476 l 0,7.866" />
    <path
       inkscape:connector-curvature="0"
       id="path3060"
       style="font-size:40px;font-style:normal;font-variant:normal;font-weight:normal;font-stretch:normal;text-align:center;line-height:125%;letter-spacing:0px;word-spacing:0px;writing-mode:lr-tb;text-anchor:middle;fill:#37abc8;fill-opacity:1;stroke:none;font-family:Linux Libertine O;-inkscape-font-specification:Linux Libertine O"
       d="m 60.813359,978.4815 c 0,0.46799 0.432001,0.936 0.864,0.936 0.504,0 0.936,-0.46801 0.936,-0.864 0,-0.432 -0.378,-0.936 -0.864,-0.936 -0.431999,0 -0.936,0.432 -0.936,0.864 m 1.638,8.586 0,-3.582 c 0,-0.9 0.072,-2.052 0.072,-2.052 0,-0.072 -0.09,-0.126 -0.234,-0.126 -0.521999,0.198 -1.224001,0.36 -2.466,0.522 -0.036,0.108 0,0.396 0.036,0.504 0.971999,0.108 1.17,0.198 1.17,1.224 l 0,3.51 c 0,1.49399 -0.198001,1.548 -1.296,1.638 -0.108,0.108 -0.108,0.486 0,0.594 0.594,-0.018 1.296001,-0.036 2.016,-0.036 0.72,0 1.404001,0.018 1.998,0.036 0.108,-0.108 0.108,-0.486 0,-0.594 -1.097999,-0.072 -1.296,-0.14401 -1.296,-1.638" />
    <path
       inkscape:connector-curvature="0"
       id="path3062"
       style="font-size:40px;font-style:normal;font-variant:normal;font-weight:normal;font-stretch:normal;text-align:center;line-height:125%;letter-spacing:0px;word-spacing:0px;writing-mode:lr-tb;text-anchor:middle;fill:#37abc8;fill-opacity:1;stroke:none;font-family:Linux Libertine O;-inkscape-font-specification:Linux Libertine O"
       d="m 65.358078,981.3615 c -0.054,0 -0.108,0.072 -0.108,0.108 -0.018,0.80999 -0.108,1.44 -0.27,2.322 0.144,0.072 0.378,0.108 0.594,0.054 0.36,-1.314 0.918001,-1.62 1.458,-1.638 l 2.304,-0.054 c -1.223999,2.05199 -3.024001,4.644 -4.428,6.534 -0.162,0.216 -0.162,0.27 -0.162,0.36 0,0.126 0.144,0.216 0.414,0.216 l 5.616,0.054 c 0.216,-0.612 0.45,-1.54801 0.576,-2.448 -0.126,-0.054 -0.324,-0.108 -0.54,-0.108 l -0.252,0.522 c -0.467999,0.95399 -0.828001,1.35 -1.764,1.368 l -2.394,0 c 1.331999,-1.692 3.204001,-4.51801 4.32,-6.354 0.27,-0.45 0.324,-0.594 0.324,-0.666 0,-0.072 -0.09,-0.126 -0.216,-0.126 -0.09,0 -0.594,0.036 -1.116,0.036 l -3.294,0 c -0.593999,0 -0.81,-0.072 -1.062,-0.18" />
    <path
       inkscape:connector-curvature="0"
       id="path3064"
       style="font-size:40px;font-style:normal;font-variant:normal;font-weight:normal;font-stretch:normal;text-align:center;line-height:125%;letter-spacing:0px;word-spacing:0px;writing-mode:lr-tb;text-anchor:middle;fill:#37abc8;fill-opacity:1;stroke:none;font-family:Linux Libertine O;-inkscape-font-specification:Linux Libertine O"
       d="m 76.982984,985.0695 0,2.376 c 0,0.234 -0.108,0.36 -0.252,0.468 -0.467999,0.37799 -1.08,0.792 -1.584,0.792 -0.899999,0 -1.296,-0.72 -1.296,-1.278 0,-0.81 0.378002,-1.63801 1.71,-1.98 l 1.422,-0.378 m 0,3.33 c 0.108,0.55799 0.288001,1.044 1.206,1.044 0.684,0 1.332001,-0.30601 1.71,-0.666 -0.036,-0.216 -0.108,-0.36 -0.306,-0.486 -0.143999,0.126 -0.45,0.288 -0.666,0.288 -0.521999,0 -0.54,-0.70201 -0.54,-1.53 l 0,-2.646 c 0,-2.556 -1.404001,-3.042 -2.718,-3.042 -1.475998,0 -2.97,0.972 -2.97,1.998 0,0.43199 0.216001,0.648 0.63,0.648 0.522,0 0.846,-0.378 0.846,-0.612 0,-0.126 -0.018,-0.252 -0.054,-0.324 -0.018,-0.054 -0.036,-0.162 -0.036,-0.36 0,-0.558 0.756001,-0.756 1.44,-0.756 0.612,0 1.458,0.306 1.458,2.34 0,0.126 -0.054,0.198 -0.108,0.216 l -1.548,0.378 c -1.727998,0.43199 -2.97,1.386 -2.97,2.61 0,1.47599 1.008002,1.944 2.268,1.944 0.612,0 1.170001,-0.14401 1.962,-0.756 l 0.36,-0.288 0.036,0" />
    <path
       inkscape:connector-curvature="0"
       id="path3066"
       style="font-size:40px;font-style:normal;font-variant:normal;font-weight:normal;font-stretch:normal;text-align:center;line-height:125%;letter-spacing:0px;word-spacing:0px;writing-mode:lr-tb;text-anchor:middle;fill:#37abc8;fill-opacity:1;stroke:none;font-family:Linux Libertine O;-inkscape-font-specification:Linux Libertine O"
       d="m 80.709547,981.5415 c -0.252,0 -0.324,0.216 -0.324,0.36 l 0,0.234 c 0,0.09 0.018,0.108 0.09,0.108 l 1.062,0 0,5.418 c 0,1.27799 0.558001,1.782 1.386,1.782 0.827999,0 1.728001,-0.396 2.43,-1.188 -0.036,-0.18 -0.144,-0.288 -0.324,-0.306 -0.468,0.35999 -1.008001,0.504 -1.476,0.504 -0.486,0 -0.594,-0.54001 -0.594,-1.656 l 0,-4.554 1.872,0 c 0.18,0 0.432,-0.072 0.432,-0.234 l 0,-0.36 c 0,-0.072 -0.054,-0.108 -0.144,-0.108 l -2.16,0 0,-0.702 c 0,-1.17 0.072,-1.89 0.072,-1.89 0,-0.108 -0.054,-0.144 -0.144,-0.144 -0.09,0 -0.234,0.072 -0.396,0.162 -0.216,0.108 -0.396,0.18 -0.612,0.252 -0.216,0.054 -0.396,0.126 -0.396,0.234 0,0.216 0.054,0.09 0.054,2.088 l -0.828,0" />
    <path
       inkscape:connector-curvature="0"
       id="path3068"
       style="font-size:40px;font-style:normal;font-variant:normal;font-weight:normal;font-stretch:normal;text-align:center;line-height:125%;letter-spacing:0px;word-spacing:0px;writing-mode:lr-tb;text-anchor:middle;fill:#37abc8;fill-opacity:1;stroke:none;font-family:Linux Libertine O;-inkscape-font-specification:Linux Libertine O"
       d="m 87.250859,978.4815 c 0,0.46799 0.432001,0.936 0.864,0.936 0.504,0 0.936,-0.46801 0.936,-0.864 0,-0.432 -0.378,-0.936 -0.864,-0.936 -0.431999,0 -0.936,0.432 -0.936,0.864 m 1.638,8.586 0,-3.582 c 0,-0.9 0.072,-2.052 0.072,-2.052 0,-0.072 -0.09,-0.126 -0.234,-0.126 -0.521999,0.198 -1.224001,0.36 -2.466,0.522 -0.036,0.108 0,0.396 0.036,0.504 0.971999,0.108 1.17,0.198 1.17,1.224 l 0,3.51 c 0,1.49399 -0.198001,1.548 -1.296,1.638 -0.108,0.108 -0.108,0.486 0,0.594 0.594,-0.018 1.296001,-0.036 2.016,-0.036 0.72,0 1.404001,0.018 1.998,0.036 0.108,-0.108 0.108,-0.486 0,-0.594 -1.097999,-0.072 -1.296,-0.14401 -1.296,-1.638" />
    <path
       inkscape:connector-curvature="0"
       id="path3070"
       style="font-size:40px;font-style:normal;font-variant:normal;font-weight:normal;font-stretch:normal;text-align:center;line-height:125%;letter-spacing:0px;word-spacing:0px;writing-mode:lr-tb;text-anchor:middle;fill:#37abc8;fill-opacity:1;stroke:none;font-family:Linux Libertine O;-inkscape-font-specification:Linux Libertine O"
       d="m 91.255578,985.5735 c 0,1.83599 1.224003,3.87 3.78,3.87 1.151999,0 2.016001,-0.39601 2.628,-1.008 0.809999,-0.774 1.188,-1.90801 1.188,-3.024 0,-1.872 -1.026003,-4.05 -3.78,-4.05 -1.187999,0 -2.178001,0.486 -2.826,1.26 -0.647999,0.77399 -0.99,1.818 -0.99,2.952 m 3.546,-3.582 c 1.547999,0 2.502,1.404 2.502,3.996 0,2.26799 -1.170001,2.826 -2.016,2.826 -1.871998,0 -2.484,-2.26801 -2.484,-3.654 0,-1.566 0.378002,-3.168 1.998,-3.168" />
    <path
       inkscape:connector-curvature="0"
       id="path3072"
       style="font-size:40px;font-style:normal;font-variant:normal;font-weight:normal;font-stretch:normal;text-align:center;line-height:125%;letter-spacing:0px;word-spacing:0px;writing-mode:lr-tb;text-anchor:middle;fill:#37abc8;fill-opacity:1;stroke:none;font-family:Linux Libertine O;-inkscape-font-specification:Linux Libertine O"
       d="m 102.89989,982.8195 c -0.126,0.126 -0.216,0.18 -0.216,0 -0.018,-0.486 -0.072,-1.17 -0.144,-1.368 -0.054,-0.072 -0.072,-0.144 -0.216,-0.144 -0.504,0.198 -0.972,0.36 -2.214,0.522 -0.036,0.108 0,0.396 0.036,0.504 0.972,0.09 1.17,0.18 1.17,1.224 l 0,3.51 c 0,1.47599 -0.18,1.548 -1.26,1.638 -0.107999,0.108 -0.107999,0.486 0,0.594 0.54,-0.018 1.26,-0.036 1.98,-0.036 0.72,0 1.26,0.018 1.8,0.036 0.108,-0.108 0.108,-0.486 0,-0.594 -0.918,-0.09 -1.098,-0.16201 -1.098,-1.638 l 0,-2.952 c 0,-0.378 0.162,-0.594 0.306,-0.756 0.684,-0.666 1.494,-1.062 2.196,-1.062 0.36,0 0.738,0.234 0.954,0.648 0.18,0.35999 0.216,0.846 0.216,1.386 l 0,2.736 c 0,1.47599 -0.18,1.548 -1.116,1.638 -0.09,0.108 -0.09,0.486 0,0.594 0.54,-0.018 1.116,-0.036 1.836,-0.036 0.72,0 1.368,0.018 1.908,0.036 0.09,-0.108 0.09,-0.486 0,-0.594 -1.008,-0.09 -1.206,-0.16201 -1.206,-1.638 l 0,-2.682 c 0,-0.99 -0.072,-1.85401 -0.486,-2.412 -0.306,-0.396 -0.864,-0.612 -1.494,-0.612 -0.882,0 -1.89,0.234 -2.952,1.458" />
    <path
       inkscape:connector-curvature="0"
       id="path3074"
       style="font-size:24px;font-style:normal;font-variant:normal;font-weight:normal;font-stretch:normal;text-align:start;line-height:125%;letter-spacing:0px;word-spacing:0px;writing-mode:lr-tb;text-anchor:start;fill:#37abc8;fill-opacity:1;stroke:none;font-family:Linux Libertine O;-inkscape-font-specification:Linux Libertine O"
       d="m 120.17333,982.4715 c -0.528,0 -0.696,-0.072 -0.624,-0.312 l 2.472,-6.216 0.144,0 2.256,6.528 -4.248,0 m -2.592,4.896 1.32,-3.48 c 0.12,-0.312 0.264,-0.408 0.84,-0.408 l 5.064,0 1.392,4.056 c 0.264,0.83999 -0.648,0.912 -1.776,0.984 -0.144,0.144 -0.144,0.648 0,0.792 0.888,-0.024 2.208,-0.048 3.144,-0.048 0.984,0 1.896,0.024 2.736,0.048 0.144,-0.144 0.144,-0.648 0,-0.792 -0.936,-0.072 -1.752,-0.14401 -2.16,-1.32 l -4.944,-13.728 c -0.36,0.216 -1.008,0.48 -1.32,0.48 l -5.448,12.864 c -0.624,1.48799 -1.368,1.632 -2.4,1.704 -0.144,0.144 -0.144,0.648 0,0.792 0.624,-0.024 1.392,-0.048 2.136,-0.048 0.984,0 2.184,0.024 3.072,0.048 0.144,-0.144 0.144,-0.648 0,-0.792 -0.912,-0.048 -2.04,-0.14401 -1.656,-1.152" />
    <path
       inkscape:connector-curvature="0"
       id="path3076"
       style="font-size:40px;font-style:normal;font-variant:normal;font-weight:normal;font-stretch:normal;text-align:center;line-height:125%;letter-spacing:0px;word-spacing:0px;writing-mode:lr-tb;text-anchor:middle;fill:#d40055;fill-opacity:1;stroke:none;font-family:Linux Libertine O;-inkscape-font-specification:Linux Libertine O"
       d="m 131.32283,981.5415 c -0.252,0 -0.324,0.216 -0.324,0.36 l 0,0.234 c 0,0.09 0.018,0.108 0.09,0.108 l 1.062,0 0,5.418 c 0,1.27799 0.558,1.782 1.386,1.782 0.828,0 1.728,-0.396 2.43,-1.188 -0.036,-0.18 -0.144,-0.288 -0.324,-0.306 -0.468,0.35999 -1.008,0.504 -1.476,0.504 -0.486,0 -0.594,-0.54001 -0.594,-1.656 l 0,-4.554 1.872,0 c 0.18,0 0.432,-0.072 0.432,-0.234 l 0,-0.36 c 0,-0.072 -0.054,-0.108 -0.144,-0.108 l -2.16,0 0,-0.702 c 0,-1.17 0.072,-1.89 0.072,-1.89 0,-0.108 -0.054,-0.144 -0.144,-0.144 -0.09,0 -0.234,0.072 -0.396,0.162 -0.216,0.108 -0.396,0.18 -0.612,0.252 -0.216,0.054 -0.396,0.126 -0.396,0.234 0,0.216 0.054,0.09 0.054,2.088 l -0.828,0" />
    <path
       inkscape:connector-curvature="0"
       id="path3078"
       style="font-size:40px;font-style:normal;font-variant:normal;font-weight:normal;font-stretch:normal;text-align:center;line-height:125%;letter-spacing:0px;word-spacing:0px;writing-mode:lr-tb;text-anchor:middle;fill:#d40055;fill-opacity:1;stroke:none;font-family:Linux Libertine O;-inkscape-font-specification:Linux Libertine O"
       d="m 139.91614,992.1435 c 0.27,-0.486 0.504,-1.00801 0.738,-1.548 1.44,-3.474 2.232,-5.31001 3.186,-7.344 0.342,-0.756 0.612,-1.044 1.458,-1.152 0.108,-0.108 0.108,-0.486 0,-0.594 -0.36,0.018 -0.774,0.036 -1.278,0.036 -0.54,0 -1.098,-0.018 -1.638,-0.036 -0.108,0.108 -0.108,0.486 0,0.594 0.558,0.054 1.152,0.162 0.864,0.81 l -1.8,4.122 c -0.126,0.30599 -0.27,0.34199 -0.432,-0.018 l -1.584,-3.744 c -0.324,-0.756 -0.414,-1.08 0.594,-1.17 0.108,-0.108 0.108,-0.486 0,-0.594 -0.666,0.018 -1.386,0.036 -2.034,0.036 -0.612,0 -1.098,-0.018 -1.458,-0.036 -0.108,0.108 -0.108,0.486 0,0.594 0.702,0.09 0.936,0.252 1.404,1.35 l 2.052,4.734 c 0.144,0.37799 0.432,1.188 0.252,1.692 -0.216,0.61199 -0.432,1.098 -0.702,1.656 -0.198,0.35999 -0.45,0.522 -0.9,0.522 -0.252,0 -0.324,-0.054 -0.522,-0.054 -0.522,0 -0.792,0.54 -0.792,0.774 0,0.37799 0.36,0.666 0.846,0.666 0.378,0 1.098,-0.14401 1.746,-1.296" />
    <path
       inkscape:connector-curvature="0"
       id="path3080"
       style="font-size:40px;font-style:normal;font-variant:normal;font-weight:normal;font-stretch:normal;text-align:center;line-height:125%;letter-spacing:0px;word-spacing:0px;writing-mode:lr-tb;text-anchor:middle;fill:#d40055;fill-opacity:1;stroke:none;font-family:Linux Libertine O;-inkscape-font-specification:Linux Libertine O"
       d="m 148.67539,983.3055 c 0.468,-0.576 1.278,-1.116 1.818,-1.116 1.152,0 2.142,1.296 2.142,3.33 0,1.47599 -0.522,3.312 -2.538,3.312 -0.324,0 -0.954,-0.09 -1.278,-0.378 -0.378,-0.324 -0.432,-0.41401 -0.432,-1.08 l 0,-3.276 c 0,-0.378 0.072,-0.522 0.288,-0.792 m -0.342,-0.666 c -0.036,-0.54 -0.072,-0.99 -0.144,-1.188 -0.054,-0.072 -0.072,-0.144 -0.216,-0.144 -0.504,0.198 -0.972,0.36 -2.214,0.522 -0.036,0.108 0,0.396 0.036,0.504 0.972,0.09 1.17,0.18 1.17,1.224 l 0,7.686 c 0,1.49399 -0.198,1.584 -1.296,1.638 -0.108,0.108 -0.108,0.486 0,0.594 0.63,-0.018 1.296,-0.036 2.016,-0.036 0.72,0 1.584,0.018 2.178,0.036 0.108,-0.108 0.108,-0.486 0,-0.594 -1.278,-0.072 -1.476,-0.14401 -1.476,-1.638 l 0,-1.944 c 0,-0.234 0.054,-0.198 0.252,-0.126 0.432,0.18 0.99,0.27 1.566,0.27 1.008,0 1.908,-0.30601 2.646,-1.008 0.846,-0.828 1.332,-1.94401 1.332,-3.402 0,-1.908 -1.35,-3.672 -3.186,-3.672 -0.846,0 -1.764,0.558 -2.466,1.35 -0.108,0.126 -0.198,0.108 -0.198,-0.072" />
    <path
       inkscape:connector-curvature="0"
       id="path3082"
       style="font-size:40px;font-style:normal;font-variant:normal;font-weight:normal;font-stretch:normal;text-align:center;line-height:125%;letter-spacing:0px;word-spacing:0px;writing-mode:lr-tb;text-anchor:middle;fill:#d40055;fill-opacity:1;stroke:none;font-family:Linux Libertine O;-inkscape-font-specification:Linux Libertine O"
       d="m 156.49695,978.4815 c 0,0.46799 0.432,0.936 0.864,0.936 0.504,0 0.936,-0.46801 0.936,-0.864 0,-0.432 -0.378,-0.936 -0.864,-0.936 -0.432,0 -0.936,0.432 -0.936,0.864 m 1.638,8.586 0,-3.582 c 0,-0.9 0.072,-2.052 0.072,-2.052 0,-0.072 -0.09,-0.126 -0.234,-0.126 -0.522,0.198 -1.224,0.36 -2.466,0.522 -0.036,0.108 0,0.396 0.036,0.504 0.972,0.108 1.17,0.198 1.17,1.224 l 0,3.51 c 0,1.49399 -0.198,1.548 -1.296,1.638 -0.108,0.108 -0.108,0.486 0,0.594 0.594,-0.018 1.296,-0.036 2.016,-0.036 0.72,0 1.404,0.018 1.998,0.036 0.108,-0.108 0.108,-0.486 0,-0.594 -1.098,-0.072 -1.296,-0.14401 -1.296,-1.638" />
    <path
       inkscape:connector-curvature="0"
       id="path3084"
       style="font-size:40px;font-style:normal;font-variant:normal;font-weight:normal;font-stretch:normal;text-align:center;line-height:125%;letter-spacing:0px;word-spacing:0px;writing-mode:lr-tb;text-anchor:middle;fill:#d40055;fill-opacity:1;stroke:none;font-family:Linux Libertine O;-inkscape-font-specification:Linux Libertine O"
       d="m 166.92767,987.6255 c -0.072,-0.162 -0.216,-0.234 -0.378,-0.252 -0.612,0.79199 -1.386,1.188 -2.16,1.188 -1.314,0 -2.412,-1.33201 -2.412,-3.438 0,-1.98 0.864,-3.168 2.052,-3.168 1.062,0 1.206,0.63 1.278,1.26 0.054,0.486 0.306,0.648 0.684,0.648 0.378,0 0.882,-0.234 0.882,-0.792 0,-0.99 -1.026,-1.71 -2.754,-1.71 -1.782,0 -3.69,1.602 -3.69,4.158 0,2.32199 1.296,3.924 3.564,3.924 1.08,0 2.034,-0.34201 2.934,-1.818" />
    <path
       inkscape:connector-curvature="0"
       id="path3086"
       style="font-size:40px;font-style:normal;font-variant:normal;font-weight:normal;font-stretch:normal;text-align:center;line-height:125%;letter-spacing:0px;word-spacing:0px;writing-mode:lr-tb;text-anchor:middle;fill:#d40055;fill-opacity:1;stroke:none;font-family:Linux Libertine O;-inkscape-font-specification:Linux Libertine O"
       d="m 172.73689,985.0695 0,2.376 c 0,0.234 -0.108,0.36 -0.252,0.468 -0.468,0.37799 -1.08,0.792 -1.584,0.792 -0.9,0 -1.296,-0.72 -1.296,-1.278 0,-0.81 0.378,-1.63801 1.71,-1.98 l 1.422,-0.378 m 0,3.33 c 0.108,0.55799 0.288,1.044 1.206,1.044 0.684,0 1.332,-0.30601 1.71,-0.666 -0.036,-0.216 -0.108,-0.36 -0.306,-0.486 -0.144,0.126 -0.45,0.288 -0.666,0.288 -0.522,0 -0.54,-0.70201 -0.54,-1.53 l 0,-2.646 c 0,-2.556 -1.404,-3.042 -2.718,-3.042 -1.476,0 -2.97,0.972 -2.97,1.998 0,0.43199 0.216,0.648 0.63,0.648 0.522,0 0.846,-0.378 0.846,-0.612 0,-0.126 -0.018,-0.252 -0.054,-0.324 -0.018,-0.054 -0.036,-0.162 -0.036,-0.36 0,-0.558 0.756,-0.756 1.44,-0.756 0.612,0 1.458,0.306 1.458,2.34 0,0.126 -0.054,0.198 -0.108,0.216 l -1.548,0.378 c -1.728,0.43199 -2.97,1.386 -2.97,2.61 0,1.47599 1.008,1.944 2.268,1.944 0.612,0 1.17,-0.14401 1.962,-0.756 l 0.36,-0.288 0.036,0" />
    <path
       inkscape:connector-curvature="0"
       id="path3088"
       style="font-size:40px;font-style:normal;font-variant:normal;font-weight:normal;font-stretch:normal;text-align:center;line-height:125%;letter-spacing:0px;word-spacing:0px;writing-mode:lr-tb;text-anchor:middle;fill:#d40055;fill-opacity:1;stroke:none;font-family:Linux Libertine O;-inkscape-font-specification:Linux Libertine O"
       d="m 177.39945,987.0675 c 0,1.49399 -0.198,1.584 -1.296,1.638 -0.108,0.108 -0.108,0.486 0,0.594 0.63,-0.018 1.296,-0.036 2.016,-0.036 0.72,0 1.404,0.018 1.998,0.036 0.108,-0.108 0.108,-0.486 0,-0.594 -1.098,-0.054 -1.296,-0.14401 -1.296,-1.638 l 0,-8.298 c 0,-1.17 0.072,-1.89 0.072,-1.89 0,-0.126 -0.072,-0.18 -0.234,-0.18 -0.45,0.18 -1.8,0.432 -2.52,0.486 -0.036,0.144 0,0.432 0.108,0.54 1.044,0.072 1.152,0.126 1.152,1.476 l 0,7.866" />
    <path
       inkscape:connector-curvature="0"
       id="path3090"
       style="font-size:24px;font-style:normal;font-variant:normal;font-weight:normal;font-stretch:normal;text-align:start;line-height:125%;letter-spacing:0px;word-spacing:0px;writing-mode:lr-tb;text-anchor:start;fill:#d40055;fill-opacity:1;stroke:none;font-family:Linux Libertine O;-inkscape-font-specification:Linux Libertine O"
       d="m 194.39155,974.1195 c -1.392,-0.192 -1.32001,-0.648 -3.672,-0.648 -2.424,0 -4.56,1.608 -4.56,4.152 0,2.54399 2.064,3.696 4.176,4.488 1.464,0.576 3.24,1.248 3.24,3.576 0,1.94399 -1.10401,2.952 -3,2.952 -2.256,0 -3.696,-1.00801 -4.224,-3.408 -0.288,-0.096 -0.552,-0.048 -0.768,0.072 0.096,1.84799 0.192,2.472 0.48,3.648 1.512,0 2.16,0.552 4.296,0.552 1.104,0 2.136,-0.26401 2.976,-0.768 1.368,-0.864 2.256,-2.35201 2.256,-3.888 0,-2.544 -1.94401,-3.67201 -3.912,-4.392 -1.416,-0.552 -3.816,-1.44001 -3.816,-3.48 0,-1.344 1.224,-2.688 2.616,-2.688 2.35199,0 3.096,1.488 3.576,3.072 0.24,0.048 0.552,0.024 0.768,-0.144 -0.072,-1.152 -0.168,-1.82401 -0.432,-3.096" />
    <path
       inkscape:connector-curvature="0"
       id="path3092"
       style="font-size:40px;font-style:normal;font-variant:normal;font-weight:normal;font-stretch:normal;text-align:center;line-height:125%;letter-spacing:0px;word-spacing:0px;writing-mode:lr-tb;text-anchor:middle;fill:#37abc8;fill-opacity:1;stroke:none;font-family:Linux Libertine O;-inkscape-font-specification:Linux Libertine O"
       d="m 199.71055,983.3055 c 0.468,-0.576 1.278,-1.116 1.818,-1.116 1.152,0 2.142,1.296 2.142,3.33 0,1.47599 -0.52201,3.312 -2.538,3.312 -0.324,0 -0.954,-0.09 -1.278,-0.378 -0.378,-0.324 -0.432,-0.41401 -0.432,-1.08 l 0,-3.276 c 0,-0.378 0.072,-0.522 0.288,-0.792 m -0.342,-0.666 c -0.036,-0.54 -0.072,-0.99 -0.144,-1.188 -0.054,-0.072 -0.072,-0.144 -0.216,-0.144 -0.504,0.198 -0.972,0.36 -2.214,0.522 -0.036,0.108 0,0.396 0.036,0.504 0.972,0.09 1.17,0.18 1.17,1.224 l 0,7.686 c 0,1.49399 -0.198,1.584 -1.296,1.638 -0.108,0.108 -0.108,0.486 0,0.594 0.63,-0.018 1.296,-0.036 2.016,-0.036 0.72,0 1.584,0.018 2.178,0.036 0.108,-0.108 0.108,-0.486 0,-0.594 -1.278,-0.072 -1.476,-0.14401 -1.476,-1.638 l 0,-1.944 c 0,-0.234 0.054,-0.198 0.252,-0.126 0.432,0.18 0.99,0.27 1.566,0.27 1.008,0 1.908,-0.30601 2.646,-1.008 0.846,-0.828 1.332,-1.94401 1.332,-3.402 0,-1.908 -1.35,-3.672 -3.186,-3.672 -0.846,0 -1.764,0.558 -2.466,1.35 -0.108,0.126 -0.198,0.108 -0.198,-0.072" />
    <path
       inkscape:connector-curvature="0"
       id="path3094"
       style="font-size:40px;font-style:normal;font-variant:normal;font-weight:normal;font-stretch:normal;text-align:center;line-height:125%;letter-spacing:0px;word-spacing:0px;writing-mode:lr-tb;text-anchor:middle;fill:#37abc8;fill-opacity:1;stroke:none;font-family:Linux Libertine O;-inkscape-font-specification:Linux Libertine O"
       d="m 211.18611,985.0695 0,2.376 c 0,0.234 -0.108,0.36 -0.252,0.468 -0.468,0.37799 -1.08,0.792 -1.584,0.792 -0.9,0 -1.296,-0.72 -1.296,-1.278 0,-0.81 0.378,-1.63801 1.71,-1.98 l 1.422,-0.378 m 0,3.33 c 0.108,0.55799 0.288,1.044 1.206,1.044 0.684,0 1.332,-0.30601 1.71,-0.666 -0.036,-0.216 -0.108,-0.36 -0.306,-0.486 -0.144,0.126 -0.45,0.288 -0.666,0.288 -0.522,0 -0.54,-0.70201 -0.54,-1.53 l 0,-2.646 c 0,-2.556 -1.404,-3.042 -2.718,-3.042 -1.476,0 -2.97,0.972 -2.97,1.998 0,0.43199 0.216,0.648 0.63,0.648 0.522,0 0.846,-0.378 0.846,-0.612 0,-0.126 -0.018,-0.252 -0.054,-0.324 -0.018,-0.054 -0.036,-0.162 -0.036,-0.36 0,-0.558 0.756,-0.756 1.44,-0.756 0.612,0 1.458,0.306 1.458,2.34 0,0.126 -0.054,0.198 -0.108,0.216 l -1.548,0.378 c -1.728,0.43199 -2.97,1.386 -2.97,2.61 0,1.47599 1.008,1.944 2.268,1.944 0.612,0 1.17,-0.14401 1.962,-0.756 l 0.36,-0.288 0.036,0" />
    <path
       inkscape:connector-curvature="0"
       id="path3096"
       style="font-size:40px;font-style:normal;font-variant:normal;font-weight:normal;font-stretch:normal;text-align:center;line-height:125%;letter-spacing:0px;word-spacing:0px;writing-mode:lr-tb;text-anchor:middle;fill:#37abc8;fill-opacity:1;stroke:none;font-family:Linux Libertine O;-inkscape-font-specification:Linux Libertine O"
       d="m 221.30267,987.6255 c -0.072,-0.162 -0.216,-0.234 -0.378,-0.252 -0.612,0.79199 -1.386,1.188 -2.16,1.188 -1.314,0 -2.412,-1.33201 -2.412,-3.438 0,-1.98 0.864,-3.168 2.052,-3.168 1.062,0 1.206,0.63 1.278,1.26 0.054,0.486 0.306,0.648 0.684,0.648 0.378,0 0.882,-0.234 0.882,-0.792 0,-0.99 -1.026,-1.71 -2.754,-1.71 -1.782,0 -3.69,1.602 -3.69,4.158 0,2.32199 1.296,3.924 3.564,3.924 1.08,0 2.034,-0.34201 2.934,-1.818" />
    <path
       inkscape:connector-curvature="0"
       id="path3098"
       style="font-size:40px;font-style:normal;font-variant:normal;font-weight:normal;font-stretch:normal;text-align:center;line-height:125%;letter-spacing:0px;word-spacing:0px;writing-mode:lr-tb;text-anchor:middle;fill:#37abc8;fill-opacity:1;stroke:none;font-family:Linux Libertine O;-inkscape-font-specification:Linux Libertine O"
       d="m 224.06989,984.1875 c 0.342,-2.034 1.602,-2.196 2.034,-2.196 0.684,0 1.494,0.378 1.494,1.89 0,0.162 -0.072,0.252 -0.27,0.252 l -3.258,0.054 m 4.716,3.402 c -0.666,0.68399 -1.188,0.972 -2.232,0.972 -0.648,0 -1.404,-0.37801 -1.962,-1.296 -0.36,-0.594 -0.576,-1.42201 -0.576,-2.466 l 4.788,0.036 c 0.216,0 0.342,-0.108 0.342,-0.306 0,-1.512 -0.54,-3.132 -3.042,-3.132 -1.566,0 -3.6,1.494 -3.6,4.23 0,1.00799 0.252,1.98 0.846,2.664 0.612,0.71999 1.458,1.152 2.754,1.152 1.368,0 2.34,-0.63001 3.06,-1.566 -0.054,-0.18 -0.162,-0.27 -0.378,-0.288" />
    <path
       inkscape:connector-curvature="0"
       id="path3100"
       style="font-size:24px;font-style:normal;font-variant:normal;font-weight:normal;font-stretch:normal;text-align:start;line-height:125%;letter-spacing:0px;word-spacing:0px;writing-mode:lr-tb;text-anchor:start;fill:#37abc8;fill-opacity:1;stroke:none;font-family:Linux Libertine O;-inkscape-font-specification:Linux Libertine O"
       d="m 242.95667,989.5035 c 2.328,0 4.464,-1.10401 6.096,-3.24 -0.12,-0.216 -0.288,-0.36 -0.552,-0.36 -1.704,1.87199 -3.336,2.616 -5.568,2.616 -3.23999,0 -5.472,-3.64801 -5.472,-7.152 0,-2.064 0.528,-3.79201 1.416,-4.872 1.2,-1.464 2.592,-2.136 3.84,-2.136 3.312,0 4.632,1.968 5.256,4.032 0.288,0.096 0.504,0.024 0.792,-0.12 -0.12,-1.248 -0.288,-2.40001 -0.528,-3.72 -1.224,-0.12 -2.304,-1.08 -5.256,-1.08 -2.04,0 -3.744,0.744 -5.16,2.04 -1.608,1.46399 -2.544,3.816 -2.544,6.312 0,4.17599 2.52001,7.68 7.68,7.68" />
    <path
       inkscape:connector-curvature="0"
       id="path3102"
       style="font-size:24px;font-style:normal;font-variant:normal;font-weight:normal;font-stretch:normal;text-align:start;line-height:125%;letter-spacing:0px;word-spacing:0px;writing-mode:lr-tb;text-anchor:start;fill:#d40055;fill-opacity:1;stroke:none;font-family:Linux Libertine O;-inkscape-font-specification:Linux Libertine O"
       d="m 257.8483,974.3355 c 3.16799,0 5.736,2.64 5.736,7.488 0,4.29599 -2.06401,6.816 -4.8,6.816 -2.928,0 -5.688,-2.61601 -5.688,-7.224 0,-5.04 2.376,-7.08 4.752,-7.08 m 8.04,7.032 c 0,-4.968 -3.43201,-7.896 -7.728,-7.896 -4.656,0 -7.368,3.72 -7.368,8.352 0,4.72799 3.432,7.68 7.512,7.68 2.63999,0 4.776,-1.12801 6.096,-3.024 0.96,-1.344 1.488,-3.09601 1.488,-5.112" />
    <path
       inkscape:connector-curvature="0"
       id="path3104"
       style="font-size:40px;font-style:normal;font-variant:normal;font-weight:normal;font-stretch:normal;text-align:center;line-height:125%;letter-spacing:0px;word-spacing:0px;writing-mode:lr-tb;text-anchor:middle;fill:#d40055;fill-opacity:1;stroke:none;font-family:Linux Libertine O;-inkscape-font-specification:Linux Libertine O"
       d="m 268.44242,987.0675 c 0,1.49399 -0.198,1.584 -1.296,1.638 -0.108,0.108 -0.108,0.486 0,0.594 0.63,-0.018 1.296,-0.036 2.016,-0.036 0.72,0 1.404,0.018 1.998,0.036 0.108,-0.108 0.108,-0.486 0,-0.594 -1.098,-0.054 -1.296,-0.14401 -1.296,-1.638 l 0,-8.298 c 0,-1.17 0.072,-1.89 0.072,-1.89 0,-0.126 -0.072,-0.18 -0.234,-0.18 -0.45,0.18 -1.8,0.432 -2.52,0.486 -0.036,0.144 0,0.432 0.108,0.54 1.044,0.072 1.152,0.126 1.152,1.476 l 0,7.866" />
    <path
       inkscape:connector-curvature="0"
       id="path3106"
       style="font-size:40px;font-style:normal;font-variant:normal;font-weight:normal;font-stretch:normal;text-align:center;line-height:125%;letter-spacing:0px;word-spacing:0px;writing-mode:lr-tb;text-anchor:middle;fill:#d40055;fill-opacity:1;stroke:none;font-family:Linux Libertine O;-inkscape-font-specification:Linux Libertine O"
       d="m 272.21652,985.5735 c 0,1.83599 1.224,3.87 3.78,3.87 1.15199,0 2.016,-0.39601 2.628,-1.008 0.80999,-0.774 1.188,-1.90801 1.188,-3.024 0,-1.872 -1.02601,-4.05 -3.78,-4.05 -1.188,0 -2.17801,0.486 -2.826,1.26 -0.648,0.77399 -0.99,1.818 -0.99,2.952 m 3.546,-3.582 c 1.54799,0 2.502,1.404 2.502,3.996 0,2.26799 -1.17001,2.826 -2.016,2.826 -1.872,0 -2.484,-2.26801 -2.484,-3.654 0,-1.566 0.378,-3.168 1.998,-3.168" />
    <path
       inkscape:connector-curvature="0"
       id="path3108"
       style="font-size:40px;font-style:normal;font-variant:normal;font-weight:normal;font-stretch:normal;text-align:center;line-height:125%;letter-spacing:0px;word-spacing:0px;writing-mode:lr-tb;text-anchor:middle;fill:#d40055;fill-opacity:1;stroke:none;font-family:Linux Libertine O;-inkscape-font-specification:Linux Libertine O"
       d="m 283.71683,982.8195 c -0.036,-0.72 -0.072,-1.17 -0.144,-1.368 -0.054,-0.072 -0.072,-0.144 -0.216,-0.144 -0.504,0.198 -0.972,0.36 -2.214,0.522 -0.036,0.108 0,0.396 0.036,0.504 0.972,0.09 1.17,0.18 1.17,1.224 l 0,3.51 c 0,1.49399 -0.216,1.566 -1.332,1.638 -0.108,0.108 -0.108,0.486 0,0.594 0.63,-0.018 1.332,-0.036 2.052,-0.036 0.72,0 1.548,0.018 2.178,0.036 0.108,-0.108 0.108,-0.486 0,-0.594 -1.26,-0.09 -1.476,-0.14401 -1.476,-1.638 l 0,-2.502 c 0,-0.468 0.216,-0.88201 0.432,-1.206 0.198,-0.288 0.612,-0.882 0.828,-0.882 0.162,0 0.324,0.054 0.45,0.234 0.144,0.18 0.342,0.414 0.666,0.414 0.432,0 0.846,-0.45001 0.846,-0.9 0,-0.342 -0.324,-0.864 -1.08,-0.864 -0.846,0 -1.584,0.792 -1.998,1.494 -0.108,0.198 -0.198,0.054 -0.198,-0.036" />
    <text
       xml:space="preserve"
       style="font-size:40px;font-style:normal;font-variant:normal;font-weight:normal;font-stretch:normal;text-align:start;line-height:125%;letter-spacing:0px;word-spacing:0px;writing-mode:lr-tb;text-anchor:start;fill:#000000;fill-opacity:1;stroke:none;font-family:Linux Libertine O;-inkscape-font-specification:Linux Libertine O"
       x="104.57746"
       y="19.190142"
       id="text3012"
       sodipodi:linespacing="125%"
       transform="translate(0,952.36218)"><tspan
         sodipodi:role="line"
         id="tspan3014"
         x="104.57746"
         y="19.190142" /></text>
  </g>
</svg>
